# WaveFront *.obj file (generated by Cheetah3D)

mtllib fill_circle.mtl

g 円
v 0.000000 -1.000000 -0.000000
v -0.309017 -0.951057 -0.000000
v -0.587785 -0.809017 -0.000000
v -0.809017 -0.587785 -0.000000
v -0.951056 -0.309017 -0.000000
v -1.000000 -0.000000 -0.000000
v -0.951056 0.309017 0.000000
v -0.809017 0.587785 0.000000
v -0.587785 0.809017 0.000000
v -0.309017 0.951057 0.000000
v -0.000000 1.000000 0.000000
v 0.309017 0.951056 0.000000
v 0.587785 0.809017 0.000000
v 0.809017 0.587785 0.000000
v 0.951056 0.309017 0.000000
v 1.000000 0.000000 0.000000
v 0.951057 -0.309017 -0.000000
v 0.809017 -0.587785 -0.000000
v 0.587785 -0.809017 -0.000000
v 0.309017 -0.951057 -0.000000

vt 0.500000 0.000000
vt 0.345492 0.024472
vt 0.206107 0.095492
vt 0.095491 0.206107
vt 0.024472 0.345491
vt 0.000000 0.500000
vt 0.024472 0.654509
vt 0.095491 0.793893
vt 0.206107 0.904508
vt 0.345492 0.975528
vt 0.500000 1.000000
vt 0.654509 0.975528
vt 0.793893 0.904509
vt 0.904508 0.793893
vt 0.975528 0.654509
vt 1.000000 0.500000
vt 0.975528 0.345492
vt 0.904508 0.206107
vt 0.793893 0.095492
vt 0.654508 0.024472

vn 0.000000 -0.000000 1.000000

usemtl default
f 20/20/1 19/19/1 18/18/1 17/17/1 16/16/1 15/15/1 14/14/1 13/13/1 12/12/1 11/11/1 10/10/1 9/9/1 8/8/1 7/7/1 6/6/1 5/5/1 4/4/1 3/3/1 2/2/1 1/1/1

