# MagicaVoxel @ ephtracy

# material
mtllib item006.mtl
usemtl palette

# normals
vn -1 0 0
vn 1 0 0
vn 0 0 1
vn 0 0 -1
vn 0 -1 0
vn 0 1 0

# texcoords
vt 0.599609 0.5
vt 0.728516 0.5
vt 0.916016 0.5
vt 0.919922 0.5
vt 0.927734 0.5

# verts
v 0 0 3
v 0 0 -3
v 0 1 5
v 0 1 3
v 0 1 -3
v 0 1 -5
v 0 2 6
v 0 2 5
v 0 2 3
v 0 2 -3
v 0 2 -5
v 0 2 -6
v 0 3 7
v 0 3 6
v 0 3 5
v 0 3 -5
v 0 3 -6
v 0 3 -7
v 0 4 7
v 0 4 6
v 0 4 1
v 0 4 -1
v 0 5 8
v 0 5 7
v 0 5 2
v 0 5 1
v 0 5 -1
v 0 5 -2
v 0 5 -6
v 0 5 -7
v 0 5 -8
v 0 6 3
v 0 6 2
v 0 6 1
v 0 6 -1
v 0 6 -2
v 0 6 -3
v 0 7 4
v 0 7 3
v 0 7 2
v 0 7 -2
v 0 7 -3
v 0 7 -4
v 0 7 -6
v 0 7 -7
v 0 8 -5
v 0 8 -6
v 0 8 -7
v 0 9 4
v 0 9 3
v 0 9 2
v 0 9 -2
v 0 9 -3
v 0 9 -4
v 0 9 -5
v 0 9 -6
v 0 9 -7
v 0 10 3
v 0 10 2
v 0 10 1
v 0 10 -1
v 0 10 -2
v 0 10 -3
v 0 10 -4
v 0 10 -5
v 0 10 -6
v 0 10 -7
v 0 11 8
v 0 11 7
v 0 11 6
v 0 11 2
v 0 11 1
v 0 11 -1
v 0 11 -2
v 0 11 -3
v 0 11 -4
v 0 11 -5
v 0 11 -6
v 0 11 -7
v 0 11 -8
v 0 12 1
v 0 12 -1
v 0 12 -2
v 0 12 -3
v 0 12 -4
v 0 12 -5
v 0 12 -6
v 0 13 7
v 0 13 6
v 0 13 5
v 0 13 -0
v 0 13 -1
v 0 13 -2
v 0 13 -3
v 0 13 -4
v 0 13 -5
v 0 13 -6
v 0 13 -7
v 0 14 6
v 0 14 5
v 0 14 3
v 0 14 1
v 0 14 -0
v 0 14 -1
v 0 14 -2
v 0 14 -3
v 0 14 -4
v 0 14 -5
v 0 14 -6
v 0 15 5
v 0 15 3
v 0 15 1
v 0 15 -0
v 0 15 -1
v 0 15 -2
v 0 15 -3
v 0 15 -5
v 0 16 3
v 0 16 -3
v 1 0 3
v 1 0 -3
v 1 1 5
v 1 1 3
v 1 1 -3
v 1 1 -5
v 1 2 6
v 1 2 5
v 1 2 3
v 1 2 -3
v 1 2 -5
v 1 2 -6
v 1 3 7
v 1 3 6
v 1 3 5
v 1 3 -5
v 1 3 -6
v 1 3 -7
v 1 4 7
v 1 4 6
v 1 4 1
v 1 4 -1
v 1 5 8
v 1 5 7
v 1 5 2
v 1 5 1
v 1 5 -1
v 1 5 -2
v 1 5 -6
v 1 5 -7
v 1 5 -8
v 1 6 3
v 1 6 2
v 1 6 1
v 1 6 -1
v 1 6 -2
v 1 6 -3
v 1 7 4
v 1 7 3
v 1 7 2
v 1 7 -2
v 1 7 -3
v 1 7 -4
v 1 7 -6
v 1 7 -7
v 1 8 -5
v 1 8 -6
v 1 8 -7
v 1 9 4
v 1 9 3
v 1 9 2
v 1 9 -2
v 1 9 -3
v 1 9 -4
v 1 9 -5
v 1 9 -6
v 1 9 -7
v 1 10 3
v 1 10 2
v 1 10 1
v 1 10 -1
v 1 10 -2
v 1 10 -3
v 1 10 -4
v 1 10 -5
v 1 10 -6
v 1 10 -7
v 1 11 8
v 1 11 7
v 1 11 6
v 1 11 2
v 1 11 1
v 1 11 -1
v 1 11 -2
v 1 11 -3
v 1 11 -4
v 1 11 -5
v 1 11 -6
v 1 11 -7
v 1 11 -8
v 1 12 1
v 1 12 -1
v 1 12 -2
v 1 12 -3
v 1 12 -4
v 1 12 -5
v 1 12 -6
v 1 13 7
v 1 13 6
v 1 13 5
v 1 13 -0
v 1 13 -1
v 1 13 -2
v 1 13 -3
v 1 13 -4
v 1 13 -5
v 1 13 -6
v 1 13 -7
v 1 14 6
v 1 14 5
v 1 14 3
v 1 14 1
v 1 14 -0
v 1 14 -1
v 1 14 -2
v 1 14 -3
v 1 14 -4
v 1 14 -5
v 1 14 -6
v 1 15 5
v 1 15 3
v 1 15 1
v 1 15 -0
v 1 15 -1
v 1 15 -2
v 1 15 -3
v 1 15 -5
v 1 16 3
v 1 16 -3
v 0 5 8
v 0 11 8
v 1 5 8
v 1 11 8
v 0 3 7
v 0 4 7
v 0 5 7
v 0 11 7
v 0 13 7
v 1 3 7
v 1 4 7
v 1 5 7
v 1 11 7
v 1 13 7
v 0 2 6
v 0 3 6
v 0 13 6
v 0 14 6
v 1 2 6
v 1 3 6
v 1 13 6
v 1 14 6
v 0 1 5
v 0 2 5
v 0 14 5
v 0 15 5
v 1 1 5
v 1 2 5
v 1 14 5
v 1 15 5
v 0 0 3
v 0 1 3
v 0 15 3
v 0 16 3
v 1 0 3
v 1 1 3
v 1 15 3
v 1 16 3
v 0 5 -1
v 0 6 -1
v 0 10 -1
v 0 11 -1
v 1 5 -1
v 1 6 -1
v 1 10 -1
v 1 11 -1
v 0 6 -2
v 0 7 -2
v 0 9 -2
v 0 10 -2
v 1 6 -2
v 1 7 -2
v 1 9 -2
v 1 10 -2
v 0 7 -3
v 0 9 -3
v 1 7 -3
v 1 9 -3
v 0 7 3
v 0 9 3
v 1 7 3
v 1 9 3
v 0 6 2
v 0 7 2
v 0 9 2
v 0 10 2
v 1 6 2
v 1 7 2
v 1 9 2
v 1 10 2
v 0 5 1
v 0 6 1
v 0 10 1
v 0 11 1
v 1 5 1
v 1 6 1
v 1 10 1
v 1 11 1
v 0 0 -3
v 0 1 -3
v 0 15 -3
v 0 16 -3
v 1 0 -3
v 1 1 -3
v 1 15 -3
v 1 16 -3
v 0 1 -5
v 0 2 -5
v 0 14 -5
v 0 15 -5
v 1 1 -5
v 1 2 -5
v 1 14 -5
v 1 15 -5
v 0 2 -6
v 0 3 -6
v 0 13 -6
v 0 14 -6
v 1 2 -6
v 1 3 -6
v 1 13 -6
v 1 14 -6
v 0 3 -7
v 0 5 -7
v 0 11 -7
v 0 13 -7
v 1 3 -7
v 1 5 -7
v 1 11 -7
v 1 13 -7
v 0 5 -8
v 0 11 -8
v 1 5 -8
v 1 11 -8
v 0 0 3
v 1 0 3
v 0 0 -3
v 1 0 -3
v 0 1 5
v 1 1 5
v 0 1 3
v 1 1 3
v 0 1 -3
v 1 1 -3
v 0 1 -5
v 1 1 -5
v 0 2 6
v 1 2 6
v 0 2 5
v 1 2 5
v 0 2 -5
v 1 2 -5
v 0 2 -6
v 1 2 -6
v 0 3 7
v 1 3 7
v 0 3 6
v 1 3 6
v 0 3 -6
v 1 3 -6
v 0 3 -7
v 1 3 -7
v 0 5 8
v 1 5 8
v 0 5 7
v 1 5 7
v 0 5 -7
v 1 5 -7
v 0 5 -8
v 1 5 -8
v 0 9 3
v 1 9 3
v 0 9 2
v 1 9 2
v 0 9 -2
v 1 9 -2
v 0 9 -3
v 1 9 -3
v 0 10 2
v 1 10 2
v 0 10 1
v 1 10 1
v 0 10 -1
v 1 10 -1
v 0 10 -2
v 1 10 -2
v 0 11 1
v 1 11 1
v 0 11 -1
v 1 11 -1
v 0 5 1
v 1 5 1
v 0 5 -1
v 1 5 -1
v 0 6 2
v 1 6 2
v 0 6 1
v 1 6 1
v 0 6 -1
v 1 6 -1
v 0 6 -2
v 1 6 -2
v 0 7 3
v 1 7 3
v 0 7 2
v 1 7 2
v 0 7 -2
v 1 7 -2
v 0 7 -3
v 1 7 -3
v 0 11 8
v 1 11 8
v 0 11 7
v 1 11 7
v 0 11 -7
v 1 11 -7
v 0 11 -8
v 1 11 -8
v 0 13 7
v 1 13 7
v 0 13 6
v 1 13 6
v 0 13 -6
v 1 13 -6
v 0 13 -7
v 1 13 -7
v 0 14 6
v 1 14 6
v 0 14 5
v 1 14 5
v 0 14 -5
v 1 14 -5
v 0 14 -6
v 1 14 -6
v 0 15 5
v 1 15 5
v 0 15 3
v 1 15 3
v 0 15 -3
v 1 15 -3
v 0 15 -5
v 1 15 -5
v 0 16 3
v 1 16 3
v 0 16 -3
v 1 16 -3

# faces
f 4/5/1 2/5/1 1/5/1
f 5/5/1 2/5/1 4/5/1
f 8/5/1 4/5/1 3/5/1
f 9/4/1 5/4/1 4/4/1
f 9/5/1 4/5/1 8/5/1
f 10/5/1 6/5/1 5/5/1
f 10/4/1 5/4/1 9/4/1
f 11/5/1 6/5/1 10/5/1
f 14/5/1 8/5/1 7/5/1
f 15/4/1 9/4/1 8/4/1
f 15/4/1 10/4/1 9/4/1
f 15/5/1 8/5/1 14/5/1
f 15/4/1 11/4/1 10/4/1
f 16/5/1 12/5/1 11/5/1
f 16/4/1 11/4/1 15/4/1
f 17/5/1 12/5/1 16/5/1
f 19/5/1 14/5/1 13/5/1
f 20/4/1 15/4/1 14/4/1
f 20/5/1 14/5/1 19/5/1
f 20/4/1 16/4/1 15/4/1
f 20/4/1 17/4/1 16/4/1
f 21/4/1 17/4/1 20/4/1
f 22/4/1 17/4/1 21/4/1
f 24/4/1 20/4/1 19/4/1
f 24/4/1 21/4/1 20/4/1
f 25/4/1 21/4/1 24/4/1
f 26/5/1 22/5/1 21/5/1
f 26/4/1 21/4/1 25/4/1
f 27/4/1 17/4/1 22/4/1
f 27/5/1 22/5/1 26/5/1
f 28/4/1 17/4/1 27/4/1
f 29/5/1 18/5/1 17/5/1
f 29/4/1 17/4/1 28/4/1
f 30/5/1 18/5/1 29/5/1
f 32/4/1 25/4/1 24/4/1
f 33/5/1 26/5/1 25/5/1
f 33/4/1 25/4/1 32/4/1
f 34/5/1 26/5/1 33/5/1
f 35/5/1 28/5/1 27/5/1
f 36/4/1 30/4/1 29/4/1
f 36/5/1 28/5/1 35/5/1
f 36/4/1 29/4/1 28/4/1
f 37/4/1 30/4/1 36/4/1
f 38/4/1 32/4/1 24/4/1
f 39/5/1 33/5/1 32/5/1
f 39/4/1 32/4/1 38/4/1
f 40/5/1 33/5/1 39/5/1
f 41/5/1 37/5/1 36/5/1
f 42/4/1 30/4/1 37/4/1
f 42/5/1 37/5/1 41/5/1
f 43/4/1 30/4/1 42/4/1
f 44/4/1 30/4/1 43/4/1
f 45/5/1 31/5/1 30/5/1
f 45/4/1 30/4/1 44/4/1
f 46/4/1 44/4/1 43/4/1
f 47/1/1 45/1/1 44/1/1
f 47/4/1 44/4/1 46/4/1
f 48/5/1 31/5/1 45/5/1
f 48/1/1 45/1/1 47/1/1
f 49/4/1 38/4/1 24/4/1
f 49/5/1 39/5/1 38/5/1
f 50/5/1 39/5/1 49/5/1
f 53/5/1 43/5/1 42/5/1
f 54/4/1 46/4/1 43/4/1
f 54/5/1 43/5/1 53/5/1
f 55/1/1 47/1/1 46/1/1
f 55/4/1 46/4/1 54/4/1
f 56/3/1 48/3/1 47/3/1
f 56/1/1 47/1/1 55/1/1
f 57/5/1 31/5/1 48/5/1
f 57/3/1 48/3/1 56/3/1
f 58/5/1 51/5/1 50/5/1
f 58/4/1 50/4/1 49/4/1
f 59/5/1 51/5/1 58/5/1
f 62/5/1 53/5/1 52/5/1
f 63/4/1 54/4/1 53/4/1
f 63/5/1 53/5/1 62/5/1
f 64/1/1 55/1/1 54/1/1
f 64/4/1 54/4/1 63/4/1
f 65/3/1 56/3/1 55/3/1
f 65/1/1 55/1/1 64/1/1
f 66/2/1 57/2/1 56/2/1
f 66/3/1 56/3/1 65/3/1
f 67/5/1 31/5/1 57/5/1
f 67/2/1 57/2/1 66/2/1
f 68/5/1 24/5/1 23/5/1
f 69/4/1 49/4/1 24/4/1
f 69/5/1 24/5/1 68/5/1
f 69/4/1 58/4/1 49/4/1
f 69/4/1 59/4/1 58/4/1
f 70/4/1 59/4/1 69/4/1
f 71/5/1 60/5/1 59/5/1
f 71/4/1 59/4/1 70/4/1
f 72/5/1 60/5/1 71/5/1
f 73/5/1 62/5/1 61/5/1
f 74/4/1 63/4/1 62/4/1
f 74/5/1 62/5/1 73/5/1
f 75/1/1 64/1/1 63/1/1
f 75/4/1 63/4/1 74/4/1
f 76/3/1 65/3/1 64/3/1
f 76/1/1 64/1/1 75/1/1
f 77/2/1 66/2/1 65/2/1
f 77/3/1 65/3/1 76/3/1
f 78/3/1 67/3/1 66/3/1
f 78/2/1 66/2/1 77/2/1
f 79/5/1 31/5/1 67/5/1
f 79/3/1 67/3/1 78/3/1
f 80/5/1 31/5/1 79/5/1
f 81/4/1 72/4/1 71/4/1
f 81/5/1 73/5/1 72/5/1
f 81/4/1 71/4/1 70/4/1
f 82/4/1 74/4/1 73/4/1
f 82/5/1 73/5/1 81/5/1
f 83/1/1 75/1/1 74/1/1
f 83/4/1 74/4/1 82/4/1
f 84/3/1 76/3/1 75/3/1
f 84/1/1 75/1/1 83/1/1
f 85/2/1 77/2/1 76/2/1
f 85/3/1 76/3/1 84/3/1
f 86/3/1 78/3/1 77/3/1
f 86/2/1 77/2/1 85/2/1
f 87/5/1 79/5/1 78/5/1
f 87/3/1 78/3/1 86/3/1
f 88/5/1 70/5/1 69/5/1
f 89/4/1 81/4/1 70/4/1
f 89/5/1 70/5/1 88/5/1
f 89/4/1 82/4/1 81/4/1
f 90/4/1 82/4/1 89/4/1
f 91/4/1 82/4/1 90/4/1
f 92/1/1 83/1/1 82/1/1
f 92/4/1 82/4/1 91/4/1
f 93/3/1 84/3/1 83/3/1
f 93/1/1 83/1/1 92/1/1
f 94/2/1 85/2/1 84/2/1
f 94/3/1 84/3/1 93/3/1
f 95/3/1 86/3/1 85/3/1
f 95/2/1 85/2/1 94/2/1
f 96/4/1 87/4/1 86/4/1
f 96/3/1 86/3/1 95/3/1
f 97/5/1 79/5/1 87/5/1
f 97/4/1 87/4/1 96/4/1
f 98/5/1 79/5/1 97/5/1
f 99/5/1 90/5/1 89/5/1
f 100/4/1 91/4/1 90/4/1
f 100/5/1 90/5/1 99/5/1
f 101/4/1 91/4/1 100/4/1
f 102/4/1 91/4/1 101/4/1
f 103/1/1 92/1/1 91/1/1
f 103/4/1 91/4/1 102/4/1
f 104/3/1 93/3/1 92/3/1
f 104/1/1 92/1/1 103/1/1
f 105/2/1 94/2/1 93/2/1
f 105/3/1 93/3/1 104/3/1
f 106/3/1 95/3/1 94/3/1
f 106/2/1 94/2/1 105/2/1
f 107/4/1 96/4/1 95/4/1
f 107/3/1 95/3/1 106/3/1
f 108/5/1 97/5/1 96/5/1
f 108/4/1 96/4/1 107/4/1
f 109/5/1 97/5/1 108/5/1
f 110/5/1 101/5/1 100/5/1
f 111/4/1 102/4/1 101/4/1
f 111/5/1 101/5/1 110/5/1
f 112/1/1 103/1/1 102/1/1
f 112/4/1 102/4/1 111/4/1
f 113/3/1 104/3/1 103/3/1
f 113/1/1 103/1/1 112/1/1
f 114/2/1 105/2/1 104/2/1
f 114/3/1 104/3/1 113/3/1
f 115/3/1 106/3/1 105/3/1
f 115/2/1 105/2/1 114/2/1
f 116/5/1 107/5/1 106/5/1
f 116/3/1 106/3/1 115/3/1
f 116/5/1 108/5/1 107/5/1
f 117/5/1 108/5/1 116/5/1
f 118/5/1 114/5/1 113/5/1
f 118/5/1 116/5/1 115/5/1
f 118/5/1 112/5/1 111/5/1
f 118/5/1 115/5/1 114/5/1
f 118/5/1 113/5/1 112/5/1
f 119/5/1 116/5/1 118/5/1
f 120/5/2 121/5/2 123/5/2
f 123/5/2 121/5/2 124/5/2
f 122/5/2 123/5/2 127/5/2
f 123/4/2 124/4/2 128/4/2
f 127/5/2 123/5/2 128/5/2
f 124/5/2 125/5/2 129/5/2
f 128/4/2 124/4/2 129/4/2
f 129/5/2 125/5/2 130/5/2
f 126/5/2 127/5/2 133/5/2
f 127/4/2 128/4/2 134/4/2
f 128/4/2 129/4/2 134/4/2
f 133/5/2 127/5/2 134/5/2
f 129/4/2 130/4/2 134/4/2
f 130/5/2 131/5/2 135/5/2
f 134/4/2 130/4/2 135/4/2
f 135/5/2 131/5/2 136/5/2
f 132/5/2 133/5/2 138/5/2
f 133/4/2 134/4/2 139/4/2
f 138/5/2 133/5/2 139/5/2
f 134/4/2 135/4/2 139/4/2
f 135/4/2 136/4/2 139/4/2
f 139/4/2 136/4/2 140/4/2
f 140/4/2 136/4/2 141/4/2
f 138/4/2 139/4/2 143/4/2
f 139/4/2 140/4/2 143/4/2
f 143/4/2 140/4/2 144/4/2
f 140/5/2 141/5/2 145/5/2
f 144/4/2 140/4/2 145/4/2
f 141/4/2 136/4/2 146/4/2
f 145/5/2 141/5/2 146/5/2
f 146/4/2 136/4/2 147/4/2
f 136/5/2 137/5/2 148/5/2
f 147/4/2 136/4/2 148/4/2
f 148/5/2 137/5/2 149/5/2
f 143/4/2 144/4/2 151/4/2
f 144/5/2 145/5/2 152/5/2
f 151/4/2 144/4/2 152/4/2
f 152/5/2 145/5/2 153/5/2
f 146/5/2 147/5/2 154/5/2
f 148/4/2 149/4/2 155/4/2
f 154/5/2 147/5/2 155/5/2
f 147/4/2 148/4/2 155/4/2
f 155/4/2 149/4/2 156/4/2
f 143/4/2 151/4/2 157/4/2
f 151/5/2 152/5/2 158/5/2
f 157/4/2 151/4/2 158/4/2
f 158/5/2 152/5/2 159/5/2
f 155/5/2 156/5/2 160/5/2
f 156/4/2 149/4/2 161/4/2
f 160/5/2 156/5/2 161/5/2
f 161/4/2 149/4/2 162/4/2
f 162/4/2 149/4/2 163/4/2
f 149/5/2 150/5/2 164/5/2
f 163/4/2 149/4/2 164/4/2
f 162/4/2 163/4/2 165/4/2
f 163/1/2 164/1/2 166/1/2
f 165/4/2 163/4/2 166/4/2
f 164/5/2 150/5/2 167/5/2
f 166/1/2 164/1/2 167/1/2
f 143/4/2 157/4/2 168/4/2
f 157/5/2 158/5/2 168/5/2
f 168/5/2 158/5/2 169/5/2
f 161/5/2 162/5/2 172/5/2
f 162/4/2 165/4/2 173/4/2
f 172/5/2 162/5/2 173/5/2
f 165/1/2 166/1/2 174/1/2
f 173/4/2 165/4/2 174/4/2
f 166/3/2 167/3/2 175/3/2
f 174/1/2 166/1/2 175/1/2
f 167/5/2 150/5/2 176/5/2
f 175/3/2 167/3/2 176/3/2
f 169/5/2 170/5/2 177/5/2
f 168/4/2 169/4/2 177/4/2
f 177/5/2 170/5/2 178/5/2
f 171/5/2 172/5/2 181/5/2
f 172/4/2 173/4/2 182/4/2
f 181/5/2 172/5/2 182/5/2
f 173/1/2 174/1/2 183/1/2
f 182/4/2 173/4/2 183/4/2
f 174/3/2 175/3/2 184/3/2
f 183/1/2 174/1/2 184/1/2
f 175/2/2 176/2/2 185/2/2
f 184/3/2 175/3/2 185/3/2
f 176/5/2 150/5/2 186/5/2
f 185/2/2 176/2/2 186/2/2
f 142/5/2 143/5/2 187/5/2
f 143/4/2 168/4/2 188/4/2
f 187/5/2 143/5/2 188/5/2
f 168/4/2 177/4/2 188/4/2
f 177/4/2 178/4/2 188/4/2
f 188/4/2 178/4/2 189/4/2
f 178/5/2 179/5/2 190/5/2
f 189/4/2 178/4/2 190/4/2
f 190/5/2 179/5/2 191/5/2
f 180/5/2 181/5/2 192/5/2
f 181/4/2 182/4/2 193/4/2
f 192/5/2 181/5/2 193/5/2
f 182/1/2 183/1/2 194/1/2
f 193/4/2 182/4/2 194/4/2
f 183/3/2 184/3/2 195/3/2
f 194/1/2 183/1/2 195/1/2
f 184/2/2 185/2/2 196/2/2
f 195/3/2 184/3/2 196/3/2
f 185/3/2 186/3/2 197/3/2
f 196/2/2 185/2/2 197/2/2
f 186/5/2 150/5/2 198/5/2
f 197/3/2 186/3/2 198/3/2
f 198/5/2 150/5/2 199/5/2
f 190/4/2 191/4/2 200/4/2
f 191/5/2 192/5/2 200/5/2
f 189/4/2 190/4/2 200/4/2
f 192/4/2 193/4/2 201/4/2
f 200/5/2 192/5/2 201/5/2
f 193/1/2 194/1/2 202/1/2
f 201/4/2 193/4/2 202/4/2
f 194/3/2 195/3/2 203/3/2
f 202/1/2 194/1/2 203/1/2
f 195/2/2 196/2/2 204/2/2
f 203/3/2 195/3/2 204/3/2
f 196/3/2 197/3/2 205/3/2
f 204/2/2 196/2/2 205/2/2
f 197/5/2 198/5/2 206/5/2
f 205/3/2 197/3/2 206/3/2
f 188/5/2 189/5/2 207/5/2
f 189/4/2 200/4/2 208/4/2
f 207/5/2 189/5/2 208/5/2
f 200/4/2 201/4/2 208/4/2
f 208/4/2 201/4/2 209/4/2
f 209/4/2 201/4/2 210/4/2
f 201/1/2 202/1/2 211/1/2
f 210/4/2 201/4/2 211/4/2
f 202/3/2 203/3/2 212/3/2
f 211/1/2 202/1/2 212/1/2
f 203/2/2 204/2/2 213/2/2
f 212/3/2 203/3/2 213/3/2
f 204/3/2 205/3/2 214/3/2
f 213/2/2 204/2/2 214/2/2
f 205/4/2 206/4/2 215/4/2
f 214/3/2 205/3/2 215/3/2
f 206/5/2 198/5/2 216/5/2
f 215/4/2 206/4/2 216/4/2
f 216/5/2 198/5/2 217/5/2
f 208/5/2 209/5/2 218/5/2
f 209/4/2 210/4/2 219/4/2
f 218/5/2 209/5/2 219/5/2
f 219/4/2 210/4/2 220/4/2
f 220/4/2 210/4/2 221/4/2
f 210/1/2 211/1/2 222/1/2
f 221/4/2 210/4/2 222/4/2
f 211/3/2 212/3/2 223/3/2
f 222/1/2 211/1/2 223/1/2
f 212/2/2 213/2/2 224/2/2
f 223/3/2 212/3/2 224/3/2
f 213/3/2 214/3/2 225/3/2
f 224/2/2 213/2/2 225/2/2
f 214/4/2 215/4/2 226/4/2
f 225/3/2 214/3/2 226/3/2
f 215/5/2 216/5/2 227/5/2
f 226/4/2 215/4/2 227/4/2
f 227/5/2 216/5/2 228/5/2
f 219/5/2 220/5/2 229/5/2
f 220/4/2 221/4/2 230/4/2
f 229/5/2 220/5/2 230/5/2
f 221/1/2 222/1/2 231/1/2
f 230/4/2 221/4/2 231/4/2
f 222/3/2 223/3/2 232/3/2
f 231/1/2 222/1/2 232/1/2
f 223/2/2 224/2/2 233/2/2
f 232/3/2 223/3/2 233/3/2
f 224/3/2 225/3/2 234/3/2
f 233/2/2 224/2/2 234/2/2
f 225/5/2 226/5/2 235/5/2
f 234/3/2 225/3/2 235/3/2
f 226/5/2 227/5/2 235/5/2
f 235/5/2 227/5/2 236/5/2
f 232/5/2 233/5/2 237/5/2
f 234/5/2 235/5/2 237/5/2
f 230/5/2 231/5/2 237/5/2
f 233/5/2 234/5/2 237/5/2
f 231/5/2 232/5/2 237/5/2
f 237/5/2 235/5/2 238/5/2
f 241/5/3 240/5/3 239/5/3
f 242/5/3 240/5/3 241/5/3
f 248/5/3 244/5/3 243/5/3
f 249/4/3 245/4/3 244/4/3
f 249/5/3 244/5/3 248/5/3
f 250/4/3 245/4/3 249/4/3
f 251/5/3 247/5/3 246/5/3
f 252/5/3 247/5/3 251/5/3
f 257/5/3 254/5/3 253/5/3
f 258/5/3 254/5/3 257/5/3
f 259/5/3 256/5/3 255/5/3
f 260/5/3 256/5/3 259/5/3
f 265/5/3 262/5/3 261/5/3
f 266/5/3 262/5/3 265/5/3
f 267/5/3 264/5/3 263/5/3
f 268/5/3 264/5/3 267/5/3
f 273/5/3 270/5/3 269/5/3
f 274/5/3 270/5/3 273/5/3
f 275/5/3 272/5/3 271/5/3
f 276/5/3 272/5/3 275/5/3
f 281/5/3 278/5/3 277/5/3
f 282/5/3 278/5/3 281/5/3
f 283/5/3 280/5/3 279/5/3
f 284/5/3 280/5/3 283/5/3
f 289/5/3 286/5/3 285/5/3
f 290/5/3 286/5/3 289/5/3
f 291/5/3 288/5/3 287/5/3
f 292/5/3 288/5/3 291/5/3
f 295/5/3 294/5/3 293/5/3
f 296/5/3 294/5/3 295/5/3
f 297/5/4 298/5/4 299/5/4
f 299/5/4 298/5/4 300/5/4
f 301/5/4 302/5/4 305/5/4
f 305/5/4 302/5/4 306/5/4
f 303/5/4 304/5/4 307/5/4
f 307/5/4 304/5/4 308/5/4
f 309/5/4 310/5/4 313/5/4
f 313/5/4 310/5/4 314/5/4
f 311/5/4 312/5/4 315/5/4
f 315/5/4 312/5/4 316/5/4
f 317/5/4 318/5/4 321/5/4
f 321/5/4 318/5/4 322/5/4
f 319/5/4 320/5/4 323/5/4
f 323/5/4 320/5/4 324/5/4
f 325/5/4 326/5/4 329/5/4
f 329/5/4 326/5/4 330/5/4
f 327/5/4 328/5/4 331/5/4
f 331/5/4 328/5/4 332/5/4
f 333/5/4 334/5/4 337/5/4
f 337/5/4 334/5/4 338/5/4
f 335/5/4 336/5/4 339/5/4
f 339/5/4 336/5/4 340/5/4
f 341/5/4 342/5/4 345/5/4
f 345/5/4 342/5/4 346/5/4
f 343/5/4 344/5/4 347/5/4
f 347/5/4 344/5/4 348/5/4
f 349/5/4 350/5/4 351/5/4
f 351/5/4 350/5/4 352/5/4
f 355/5/5 354/5/5 353/5/5
f 356/5/5 354/5/5 355/5/5
f 359/5/5 358/5/5 357/5/5
f 360/5/5 358/5/5 359/5/5
f 363/5/5 362/5/5 361/5/5
f 364/5/5 362/5/5 363/5/5
f 367/5/5 366/5/5 365/5/5
f 368/5/5 366/5/5 367/5/5
f 371/5/5 370/5/5 369/5/5
f 372/5/5 370/5/5 371/5/5
f 375/5/5 374/5/5 373/5/5
f 376/5/5 374/5/5 375/5/5
f 379/5/5 378/5/5 377/5/5
f 380/5/5 378/5/5 379/5/5
f 383/5/5 382/5/5 381/5/5
f 384/5/5 382/5/5 383/5/5
f 387/5/5 386/5/5 385/5/5
f 388/5/5 386/5/5 387/5/5
f 391/5/5 390/5/5 389/5/5
f 392/5/5 390/5/5 391/5/5
f 395/5/5 394/5/5 393/5/5
f 396/5/5 394/5/5 395/5/5
f 399/5/5 398/5/5 397/5/5
f 400/5/5 398/5/5 399/5/5
f 403/5/5 402/5/5 401/5/5
f 404/5/5 402/5/5 403/5/5
f 407/5/5 406/5/5 405/5/5
f 408/5/5 406/5/5 407/5/5
f 409/5/6 410/5/6 411/5/6
f 411/5/6 410/5/6 412/5/6
f 413/5/6 414/5/6 415/5/6
f 415/5/6 414/5/6 416/5/6
f 417/5/6 418/5/6 419/5/6
f 419/5/6 418/5/6 420/5/6
f 421/5/6 422/5/6 423/5/6
f 423/5/6 422/5/6 424/5/6
f 425/5/6 426/5/6 427/5/6
f 427/5/6 426/5/6 428/5/6
f 429/5/6 430/5/6 431/5/6
f 431/5/6 430/5/6 432/5/6
f 433/5/6 434/5/6 435/5/6
f 435/5/6 434/5/6 436/5/6
f 437/5/6 438/5/6 439/5/6
f 439/5/6 438/5/6 440/5/6
f 441/5/6 442/5/6 443/5/6
f 443/5/6 442/5/6 444/5/6
f 445/5/6 446/5/6 447/5/6
f 447/5/6 446/5/6 448/5/6
f 449/5/6 450/5/6 451/5/6
f 451/5/6 450/5/6 452/5/6
f 453/5/6 454/5/6 455/5/6
f 455/5/6 454/5/6 456/5/6
f 457/5/6 458/5/6 459/5/6
f 459/5/6 458/5/6 460/5/6
f 461/5/6 462/5/6 463/5/6
f 463/5/6 462/5/6 464/5/6
