# MagicaVoxel @ ephtracy

# material
mtllib item004.mtl
usemtl palette

# normals
vn -1 0 0
vn 1 0 0
vn 0 0 1
vn 0 0 -1
vn 0 -1 0
vn 0 1 0

# texcoords
vt 0.318359 0.5
vt 0.392578 0.5
vt 0.486328 0.5
vt 0.916016 0.5
vt 0.978516 0.5

# verts
v -3 1 2
v -3 1 1
v -3 3 2
v -3 3 1
v -3 5 2
v -3 5 1
v -3 8 2
v -3 8 1
v -2 0 2
v -2 0 1
v -2 1 2
v -2 1 1
v -2 3 2
v -2 3 1
v -2 5 2
v -2 5 1
v -1 6 2
v -1 6 1
v -1 11 2
v -1 11 1
v -1 14 2
v -1 14 1
v 1 6 2
v 1 6 1
v 1 7 2
v 1 7 1
v -2 6 2
v -2 6 1
v -2 8 2
v -2 8 1
v 0 6 2
v 0 6 1
v 0 11 2
v 0 11 1
v 0 13 2
v 0 13 1
v 1 0 2
v 1 0 1
v 1 1 2
v 1 1 1
v 1 3 2
v 1 3 1
v 1 5 2
v 1 5 1
v 1 13 2
v 1 13 1
v 1 14 2
v 1 14 1
v 2 1 2
v 2 1 1
v 2 3 2
v 2 3 1
v 2 5 2
v 2 5 1
v 2 7 2
v 2 7 1
v -3 1 2
v -3 3 2
v -3 5 2
v -3 8 2
v -2 0 2
v -2 1 2
v -2 2 2
v -2 3 2
v -2 5 2
v -2 6 2
v -2 8 2
v -1 1 2
v -1 2 2
v -1 3 2
v -1 5 2
v -1 6 2
v -1 11 2
v -1 14 2
v 0 1 2
v 0 2 2
v 0 5 2
v 0 6 2
v 0 11 2
v 0 13 2
v 1 0 2
v 1 1 2
v 1 3 2
v 1 5 2
v 1 6 2
v 1 7 2
v 1 13 2
v 1 14 2
v 2 1 2
v 2 3 2
v 2 5 2
v 2 7 2
v -3 1 1
v -3 3 1
v -3 5 1
v -3 8 1
v -2 0 1
v -2 1 1
v -2 2 1
v -2 3 1
v -2 5 1
v -2 6 1
v -2 8 1
v -1 1 1
v -1 2 1
v -1 3 1
v -1 5 1
v -1 6 1
v -1 11 1
v -1 14 1
v 0 1 1
v 0 2 1
v 0 5 1
v 0 6 1
v 0 11 1
v 0 13 1
v 1 0 1
v 1 1 1
v 1 3 1
v 1 5 1
v 1 6 1
v 1 7 1
v 1 13 1
v 1 14 1
v 2 1 1
v 2 3 1
v 2 5 1
v 2 7 1
v -2 0 2
v 1 0 2
v -2 0 1
v 1 0 1
v -3 1 2
v -2 1 2
v 1 1 2
v 2 1 2
v -3 1 1
v -2 1 1
v 1 1 1
v 2 1 1
v -3 5 2
v -2 5 2
v 1 5 2
v 2 5 2
v -3 5 1
v -2 5 1
v 1 5 1
v 2 5 1
v 0 13 2
v 1 13 2
v 0 13 1
v 1 13 1
v -3 3 2
v -2 3 2
v 1 3 2
v 2 3 2
v -3 3 1
v -2 3 1
v 1 3 1
v 2 3 1
v -2 6 2
v -1 6 2
v 0 6 2
v 1 6 2
v -2 6 1
v -1 6 1
v 0 6 1
v 1 6 1
v 1 7 2
v 2 7 2
v 1 7 1
v 2 7 1
v -3 8 2
v -2 8 2
v -3 8 1
v -2 8 1
v -1 14 2
v 1 14 2
v -1 14 1
v 1 14 1

# faces
f 3/3/1 2/3/1 1/3/1
f 4/3/1 2/3/1 3/3/1
f 7/3/1 6/3/1 5/3/1
f 8/3/1 6/3/1 7/3/1
f 11/3/1 10/3/1 9/3/1
f 12/3/1 10/3/1 11/3/1
f 15/3/1 14/3/1 13/3/1
f 16/3/1 14/3/1 15/3/1
f 19/1/1 18/1/1 17/1/1
f 20/1/1 18/1/1 19/1/1
f 21/2/1 20/2/1 19/2/1
f 22/2/1 20/2/1 21/2/1
f 25/3/1 24/3/1 23/3/1
f 26/3/1 24/3/1 25/3/1
f 27/3/2 28/3/2 29/3/2
f 29/3/2 28/3/2 30/3/2
f 31/1/2 32/1/2 33/1/2
f 33/1/2 32/1/2 34/1/2
f 33/2/2 34/2/2 35/2/2
f 35/2/2 34/2/2 36/2/2
f 37/3/2 38/3/2 39/3/2
f 39/3/2 38/3/2 40/3/2
f 41/4/2 42/4/2 43/4/2
f 43/4/2 42/4/2 44/4/2
f 45/2/2 46/2/2 47/2/2
f 47/2/2 46/2/2 48/2/2
f 49/3/2 50/3/2 51/3/2
f 51/3/2 50/3/2 52/3/2
f 53/3/2 54/3/2 55/3/2
f 55/3/2 54/3/2 56/3/2
f 62/3/3 58/3/3 57/3/3
f 63/3/3 58/3/3 62/3/3
f 64/3/3 58/3/3 63/3/3
f 65/3/3 60/3/3 59/3/3
f 66/3/3 60/3/3 65/3/3
f 67/3/3 60/3/3 66/3/3
f 68/3/3 62/3/3 61/3/3
f 68/3/3 63/3/3 62/3/3
f 69/4/3 64/4/3 63/4/3
f 69/3/3 63/3/3 68/3/3
f 70/3/3 65/3/3 64/3/3
f 70/4/3 64/4/3 69/4/3
f 71/4/3 66/4/3 65/4/3
f 71/3/3 65/3/3 70/3/3
f 72/4/3 66/4/3 71/4/3
f 75/3/3 68/3/3 61/3/3
f 75/5/3 69/5/3 68/5/3
f 76/4/3 70/4/3 69/4/3
f 76/5/3 69/5/3 75/5/3
f 76/4/3 71/4/3 70/4/3
f 77/1/3 72/1/3 71/1/3
f 77/4/3 71/4/3 76/4/3
f 77/1/3 73/1/3 72/1/3
f 78/1/3 73/1/3 77/1/3
f 79/2/3 74/2/3 73/2/3
f 79/1/3 73/1/3 78/1/3
f 80/2/3 74/2/3 79/2/3
f 81/3/3 75/3/3 61/3/3
f 82/4/3 78/4/3 77/4/3
f 82/3/3 75/3/3 81/3/3
f 82/4/3 76/4/3 75/4/3
f 82/4/3 77/4/3 76/4/3
f 83/4/3 78/4/3 82/4/3
f 84/4/3 78/4/3 83/4/3
f 85/4/3 78/4/3 84/4/3
f 87/2/3 74/2/3 80/2/3
f 88/2/3 74/2/3 87/2/3
f 89/3/3 83/3/3 82/3/3
f 90/3/3 83/3/3 89/3/3
f 91/3/3 86/3/3 85/3/3
f 91/3/3 85/3/3 84/3/3
f 92/3/3 86/3/3 91/3/3
f 93/3/4 94/3/4 98/3/4
f 98/3/4 94/3/4 99/3/4
f 99/3/4 94/3/4 100/3/4
f 95/3/4 96/3/4 101/3/4
f 101/3/4 96/3/4 102/3/4
f 102/3/4 96/3/4 103/3/4
f 97/3/4 98/3/4 104/3/4
f 98/3/4 99/3/4 104/3/4
f 99/4/4 100/4/4 105/4/4
f 104/3/4 99/3/4 105/3/4
f 100/3/4 101/3/4 106/3/4
f 105/4/4 100/4/4 106/4/4
f 101/4/4 102/4/4 107/4/4
f 106/3/4 101/3/4 107/3/4
f 107/4/4 102/4/4 108/4/4
f 97/3/4 104/3/4 111/3/4
f 104/5/4 105/5/4 111/5/4
f 105/4/4 106/4/4 112/4/4
f 111/5/4 105/5/4 112/5/4
f 106/4/4 107/4/4 112/4/4
f 107/1/4 108/1/4 113/1/4
f 112/4/4 107/4/4 113/4/4
f 108/1/4 109/1/4 113/1/4
f 113/1/4 109/1/4 114/1/4
f 109/2/4 110/2/4 115/2/4
f 114/1/4 109/1/4 115/1/4
f 115/2/4 110/2/4 116/2/4
f 97/3/4 111/3/4 117/3/4
f 113/4/4 114/4/4 118/4/4
f 117/3/4 111/3/4 118/3/4
f 111/4/4 112/4/4 118/4/4
f 112/4/4 113/4/4 118/4/4
f 118/4/4 114/4/4 119/4/4
f 119/4/4 114/4/4 120/4/4
f 120/4/4 114/4/4 121/4/4
f 116/2/4 110/2/4 123/2/4
f 123/2/4 110/2/4 124/2/4
f 118/3/4 119/3/4 125/3/4
f 125/3/4 119/3/4 126/3/4
f 121/3/4 122/3/4 127/3/4
f 120/3/4 121/3/4 127/3/4
f 127/3/4 122/3/4 128/3/4
f 131/3/5 130/3/5 129/3/5
f 132/3/5 130/3/5 131/3/5
f 137/3/5 134/3/5 133/3/5
f 138/3/5 134/3/5 137/3/5
f 139/3/5 136/3/5 135/3/5
f 140/3/5 136/3/5 139/3/5
f 145/3/5 142/3/5 141/3/5
f 146/3/5 142/3/5 145/3/5
f 147/3/5 144/3/5 143/3/5
f 148/3/5 144/3/5 147/3/5
f 151/2/5 150/2/5 149/2/5
f 152/2/5 150/2/5 151/2/5
f 153/3/6 154/3/6 157/3/6
f 157/3/6 154/3/6 158/3/6
f 155/3/6 156/3/6 159/3/6
f 159/3/6 156/3/6 160/3/6
f 161/4/6 162/4/6 165/4/6
f 165/4/6 162/4/6 166/4/6
f 163/4/6 164/4/6 167/4/6
f 167/4/6 164/4/6 168/4/6
f 169/3/6 170/3/6 171/3/6
f 171/3/6 170/3/6 172/3/6
f 173/3/6 174/3/6 175/3/6
f 175/3/6 174/3/6 176/3/6
f 177/2/6 178/2/6 179/2/6
f 179/2/6 178/2/6 180/2/6
