ply
format ascii 1.0
comment : item003
comment : MagicaVoxel @ ephtracy
element vertex 710
property float x
property float y
property float z
property uchar red
property uchar green
property uchar blue
element face 568
property list uchar int vertex_index
end_header
-1 3 -0 161 145 52
0 3 -0 141 127 45
0 3 -1 151 136 48
-1 3 -1 174 157 56
-0.5 3 -0.5 157 141 50
-1 3 -1 174 157 56
0 3 -1 151 136 48
0 3 -2 164 147 52
-1 3 -2 186 168 60
-0.5 3 -1.5 169 152 54
-2 2 -0 165 148 53
-1 2 -0 148 134 48
-1 2 -1 152 137 49
-2 2 -1 169 153 54
-1.5 2 -0.5 159 143 51
-2 2 1 162 146 52
-1 2 1 146 131 47
-1 2 -0 148 134 48
-2 2 -0 165 148 53
-1.5 2 0.5 155 140 50
0 6 1 225 202 72
1 6 1 225 202 72
1 6 -0 225 202 72
0 6 -0 225 202 72
0.5 6 0.5 225 202 72
0 6 2 225 202 72
1 6 2 225 202 72
1 6 1 225 202 72
0 6 1 225 202 72
0.5 6 1.5 225 202 72
0 6 3 225 202 72
1 6 3 225 202 72
1 6 2 225 202 72
0 6 2 225 202 72
0.5 6 2.5 225 202 72
1 6 3 225 202 72
2 6 3 225 202 72
2 6 2 225 202 72
1 6 2 225 202 72
1.5 6 2.5 225 202 72
1 6 2 225 202 72
2 6 2 225 202 72
2 6 1 225 202 72
1 6 1 225 202 72
1.5 6 1.5 225 202 72
1 6 1 225 202 72
2 6 1 225 202 72
2 6 -0 225 202 72
1 6 -0 225 202 72
1.5 6 0.5 225 202 72
1 3 -0 143 129 46
2 3 -0 168 151 54
2 3 -1 180 162 58
1 3 -1 154 138 49
1.5 3 -0.5 161 145 52
0 3 -0 141 127 45
1 3 -0 143 129 46
1 3 -1 154 138 49
0 3 -1 151 136 48
0.5 3 -0.5 147 133 47
1 3 -1 154 138 49
2 3 -1 180 162 58
2 3 -2 189 170 61
1 3 -2 167 150 54
1.5 3 -1.5 173 155 55
-1 6 2 225 202 72
0 6 2 225 202 72
0 6 1 225 202 72
-1 6 1 225 202 72
-0.5 6 1.5 225 202 72
0 3 -1 151 136 48
1 3 -1 154 138 49
1 3 -2 167 150 54
0 3 -2 164 147 52
0.5 3 -1.5 159 143 51
-1 6 1 225 202 72
0 6 1 225 202 72
0 6 -0 225 202 72
-1 6 -0 225 202 72
-0.5 6 0.5 225 202 72
2 2 -1 161 145 52
3 2 -1 177 159 57
3 2 -2 183 164 59
2 2 -2 167 151 54
2.5 2 -1.5 172 155 55
2 2 -0 157 141 50
3 2 -0 173 156 55
3 2 -1 177 159 57
2 2 -1 161 145 52
2.5 2 -0.5 167 150 54
2 2 1 155 139 50
3 2 1 170 153 55
3 2 -0 173 156 55
2 2 -0 157 141 50
2.5 2 0.5 164 147 52
0 4 -2 205 185 66
1 4 -2 205 185 66
1 4 -3 216 195 69
0 4 -3 217 195 70
0.5 4 -2.5 211 190 68
-2 2 -1 169 153 54
-1 2 -1 152 137 49
-1 2 -2 161 145 52
-2 2 -2 178 160 57
-1.5 2 -1.5 165 149 53
-1 6 3 225 202 72
0 6 3 225 202 72
0 6 2 225 202 72
-1 6 2 225 202 72
-0.5 6 2.5 225 202 72
1 3 -2 167 150 54
2 3 -2 189 170 61
2 3 -3 197 178 63
1 3 -3 185 166 59
1.5 3 -2.5 185 166 59
-1 3 -2 186 168 60
0 3 -2 164 147 52
0 3 -3 184 165 59
-1 3 -3 198 178 64
-0.5 3 -2.5 183 165 59
0 4 4 148 46 48
1 4 4 149 47 48
1 4 3 135 42 44
0 4 3 134 42 43
0.5 4 3.5 142 44 46
2 0 1 111 100 36
2 0 -0 98 88 31
2 1 -0 80 72 26
2 1 1 107 96 34
2 0.5 0.5 99 89 32
2 0 -0 98 88 31
2 0 -1 96 86 31
2 1 -1 79 71 25
2 1 -0 80 72 26
2 0.5 -0.5 88 79 28
2 0 -1 96 86 31
2 0 -2 107 97 34
2 1 -2 104 93 33
2 1 -1 79 71 25
2 0.5 -1.5 97 87 31
2 0 2 125 113 40
2 0 1 111 100 36
2 1 1 107 96 34
2 1 2 126 113 40
2 0.5 1.5 117 106 38
2 5 3 153 138 49
2 5 2 153 138 49
2 6 2 157 141 50
2 6 3 157 142 50
2 5.5 2.5 155 140 50
2 5 2 153 138 49
2 5 1 153 138 49
2 6 1 157 142 50
2 6 2 157 141 50
2 5.5 1.5 155 140 50
2 1 2 126 113 40
2 1 1 107 96 34
2 2 1 135 121 43
2 2 2 135 121 43
2 1.5 1.5 126 113 40
2 2 1 135 121 43
2 2 -0 142 128 46
2 3 -0 145 130 46
2 3 1 145 130 46
2 2.5 0.5 142 127 45
2 5 1 153 138 49
2 5 -0 153 138 49
2 6 -0 158 142 50
2 6 1 157 142 50
2 5.5 0.5 155 140 50
2 2 2 135 121 43
2 2 1 135 121 43
2 3 1 145 130 46
2 3 2 145 130 46
2 2.5 1.5 140 126 45
2 2 -0 142 128 46
2 2 -1 142 128 45
2 3 -1 145 130 46
2 3 -0 145 130 46
2 2.5 -0.5 143 129 46
2 2 -1 142 128 45
2 2 -2 133 120 43
2 3 -2 145 130 46
2 3 -1 145 130 46
2 2.5 -1.5 141 127 45
3 1 -1 137 123 44
3 1 -2 137 123 44
3 2 -2 141 127 45
3 2 -1 141 127 45
3 1.5 -1.5 139 125 44
3 1 -0 136 123 44
3 1 -1 137 123 44
3 2 -1 141 127 45
3 2 -0 141 127 45
3 1.5 -0.5 139 125 44
3 1 1 136 123 44
3 1 -0 136 123 44
3 2 -0 141 127 45
3 2 1 141 127 45
3 1.5 0.5 139 125 44
1 3 -2 138 125 44
1 3 -3 135 121 43
1 4 -3 146 131 47
1 4 -2 141 127 45
1 3.5 -2.5 140 126 45
2 1 -2 104 93 33
2 1 -3 123 111 39
2 2 -3 133 120 43
2 2 -2 133 120 43
2 1.5 -2.5 123 111 39
2 2 -2 133 120 43
2 2 -3 133 120 43
2 3 -3 145 130 46
2 3 -2 145 130 46
2 2.5 -2.5 139 125 44
1 3 4 104 32 33
1 3 3 85 27 27
1 4 3 95 30 30
1 4 4 104 33 34
1 3.5 3.5 97 30 31
2 3 1 145 130 46
2 3 -0 145 130 46
2 4 -0 149 134 48
2 4 1 149 134 48
2 3.5 0.5 147 132 47
2 3 2 145 130 46
2 3 1 145 130 46
2 4 1 149 134 48
2 4 2 149 134 48
2 3.5 1.5 147 132 47
2 4 2 149 134 48
2 4 1 149 134 48
2 5 1 153 138 49
2 5 2 153 138 49
2 4.5 1.5 151 136 48
2 4 1 149 134 48
2 4 -0 149 134 48
2 5 -0 153 138 49
2 5 1 153 138 49
2 4.5 0.5 151 136 48
2 3 3 145 131 46
2 3 2 145 130 46
2 4 2 149 134 48
2 4 3 149 134 48
2 3.5 2.5 147 132 47
2 4 3 34 29 22
2 4 2 34 29 22
2 5 2 35 30 23
2 5 3 35 30 23
2 4.5 2.5 34 30 22
0 0 -2 99 89 31
0 1 -2 84 76 27
1 1 -2 84 75 27
1 0 -2 98 88 31
0.5 0.5 -2 91 82 29
-1 0 -2 108 97 35
-1 1 -2 100 90 32
0 1 -2 84 76 27
0 0 -2 99 89 31
-0.5 0.5 -2 98 88 31
1 0 -2 98 88 31
1 1 -2 84 75 27
2 1 -2 100 90 32
2 0 -2 108 97 34
1.5 0.5 -2 97 88 31
0 5 -0 144 129 46
0 6 -0 149 134 48
1 6 -0 149 134 48
1 5 -0 143 129 46
0.5 5.5 -0 146 132 47
1 5 -0 143 129 46
1 6 -0 149 134 48
2 6 -0 149 134 48
2 5 -0 143 129 46
1.5 5.5 -0 146 131 47
-1 5 -0 144 129 46
-1 6 -0 149 134 48
0 6 -0 149 134 48
0 5 -0 144 129 46
-0.5 5.5 -0 146 132 47
2 1 -2 100 90 32
2 2 -2 105 95 34
3 2 -2 117 105 37
3 1 -2 115 103 37
2.5 1.5 -2 109 98 35
0 3 -3 138 124 44
0 4 -3 142 128 46
1 4 -3 142 128 46
1 3 -3 138 124 44
0.5 3.5 -3 140 126 45
0 1 -3 130 117 42
0 2 -3 134 121 43
1 2 -3 134 121 43
1 1 -3 130 117 42
0.5 1.5 -3 132 119 42
1 1 -3 130 117 42
1 2 -3 134 121 43
2 2 -3 134 121 43
2 1 -3 130 117 42
1.5 1.5 -3 132 119 42
-1 1 -3 130 117 42
-1 2 -3 134 121 43
0 2 -3 134 121 43
0 1 -3 130 117 42
-0.5 1.5 -3 132 119 42
-2 1 -2 115 104 37
-2 2 -2 117 105 37
-1 2 -2 106 95 34
-1 1 -2 100 90 32
-1.5 1.5 -2 110 99 35
1 2 -3 134 121 43
1 3 -3 138 124 44
2 3 -3 138 124 44
2 2 -3 134 121 43
1.5 2.5 -3 136 122 44
-1 2 -3 134 121 43
-1 3 -3 138 124 44
0 3 -3 138 124 44
0 2 -3 134 121 43
-0.5 2.5 -3 136 123 44
0 2 -3 134 121 43
0 3 -3 138 124 44
1 3 -3 138 124 44
1 2 -3 134 121 43
0.5 2.5 -3 136 122 44
0 3 -0 125 112 40
0 4 -0 133 119 42
1 4 -0 132 119 42
1 3 -0 124 111 40
0.5 3.5 -0 128 115 41
1 3 -0 124 111 40
1 4 -0 132 119 42
2 4 -0 133 120 43
2 3 -0 118 106 38
1.5 3.5 -0 127 114 41
-1 3 -0 120 108 38
-1 4 -0 135 121 43
0 4 -0 133 119 42
0 3 -0 125 112 40
-0.5 3.5 -0 128 115 41
1 4 -0 132 119 42
1 5 -0 143 129 46
2 5 -0 143 129 46
2 4 -0 133 120 43
1.5 4.5 -0 138 124 44
0 4 -0 133 119 42
0 5 -0 144 129 46
1 5 -0 143 129 46
1 4 -0 132 119 42
0.5 4.5 -0 138 124 44
-1 4 -0 135 121 43
-1 5 -0 144 129 46
0 5 -0 144 129 46
0 4 -0 133 119 42
-0.5 4.5 -0 139 125 44
0 0 2 25 22 8
0 0 1 25 22 8
1 0 1 25 22 8
1 0 2 25 22 8
0.5 0 1.5 25 22 8
1 0 1 25 22 8
1 0 -0 25 22 8
2 0 -0 25 22 8
2 0 1 25 22 8
1.5 0 0.5 25 22 8
1 0 -0 25 22 8
1 0 -1 25 22 8
2 0 -1 25 22 8
2 0 -0 25 22 8
1.5 0 -0.5 25 22 8
0 0 -1 25 22 8
0 0 -2 25 22 8
1 0 -2 25 22 8
1 0 -1 25 22 8
0.5 0 -1.5 25 22 8
-1 0 -1 25 22 8
-1 0 -2 25 22 8
0 0 -2 25 22 8
0 0 -1 25 22 8
-0.5 0 -1.5 25 22 8
-1 0 -0 25 22 8
-1 0 -1 25 22 8
0 0 -1 25 22 8
0 0 -0 25 22 8
-0.5 0 -0.5 25 22 8
-1 0 1 25 22 8
-1 0 -0 25 22 8
0 0 -0 25 22 8
0 0 1 25 22 8
-0.5 0 0.5 25 22 8
0 0 -0 25 22 8
0 0 -1 25 22 8
1 0 -1 25 22 8
1 0 -0 25 22 8
0.5 0 -0.5 25 22 8
0 0 1 25 22 8
0 0 -0 25 22 8
1 0 -0 25 22 8
1 0 1 25 22 8
0.5 0 0.5 25 22 8
1 0 -1 25 22 8
1 0 -2 25 22 8
2 0 -2 25 22 8
2 0 -1 25 22 8
1.5 0 -1.5 25 22 8
1 0 2 25 22 8
1 0 1 25 22 8
2 0 1 25 22 8
2 0 2 25 22 8
1.5 0 1.5 25 22 8
-1 0 2 25 22 8
-1 0 1 25 22 8
0 0 1 25 22 8
0 0 2 25 22 8
-0.5 0 1.5 25 22 8
-2 1 -0 26 23 8
-2 1 -1 26 23 8
-1 1 -1 25 23 8
-1 1 -0 26 23 8
-1.5 1 -0.5 26 23 8
-2 1 1 26 23 8
-2 1 -0 26 23 8
-1 1 -0 26 23 8
-1 1 1 26 23 8
-1.5 1 0.5 26 23 8
2 1 -1 25 23 8
2 1 -2 25 23 8
3 1 -2 26 23 8
3 1 -1 25 23 8
2.5 1 -1.5 25 23 8
2 1 -0 25 23 8
2 1 -1 25 23 8
3 1 -1 25 23 8
3 1 -0 26 23 8
2.5 1 -0.5 25 23 8
2 1 1 26 23 8
2 1 -0 25 23 8
3 1 -0 26 23 8
3 1 1 26 23 8
2.5 1 0.5 26 23 8
0 1 -2 25 23 8
0 1 -3 25 23 8
1 1 -3 25 23 8
1 1 -2 25 23 8
0.5 1 -2.5 25 23 8
1 1 -2 25 23 8
1 1 -3 25 23 8
2 1 -3 25 23 8
2 1 -2 25 23 8
1.5 1 -2.5 25 23 8
-1 1 -2 25 23 8
-1 1 -3 26 23 8
0 1 -3 25 23 8
0 1 -2 25 23 8
-0.5 1 -2.5 25 23 8
-2 1 -1 26 23 8
-2 1 -2 26 23 8
-1 1 -2 25 23 8
-1 1 -1 25 23 8
-1.5 1 -1.5 26 23 8
0 3 4 23 7 7
0 3 3 23 7 7
1 3 3 23 7 7
1 3 4 23 7 7
0.5 3 3.5 23 7 7
-1 3 3 28 25 9
-1 3 2 28 25 9
0 3 2 28 25 9
0 3 3 28 25 9
-0.5 3 2.5 28 25 9
0 3 3 28 25 9
0 3 2 28 25 9
1 3 2 28 25 9
1 3 3 28 25 9
0.5 3 2.5 28 25 9
1 3 3 28 25 9
1 3 2 28 25 9
2 3 2 28 26 9
2 3 3 29 26 9
1.5 3 2.5 28 25 9
-1 2 -0 138 124 44
-1 3 -0 141 127 45
-1 3 -1 140 126 45
-1 2 -1 138 124 44
-1 2.5 -0.5 139 125 45
-1 2 -1 138 124 44
-1 3 -1 140 126 45
-1 3 -2 141 127 45
-1 2 -2 130 117 42
-1 2.5 -1.5 137 123 44
-1 0 -1 98 88 31
-1 1 -1 81 73 26
-1 1 -2 105 94 34
-1 0 -2 110 99 35
-1 0.5 -1.5 98 89 31
-1 0 -0 97 88 31
-1 1 -0 80 72 26
-1 1 -1 81 73 26
-1 0 -1 98 88 31
-1 0.5 -0.5 89 80 28
-1 0 1 108 97 35
-1 1 1 103 92 33
-1 1 -0 80 72 26
-1 0 -0 97 88 31
-1 0.5 0.5 97 87 31
-1 0 2 121 109 39
-1 1 2 120 108 38
-1 1 1 103 92 33
-1 0 1 108 97 35
-1 0.5 1.5 113 102 36
-2 1 -0 133 120 43
-2 2 -0 138 124 44
-2 2 -1 137 124 44
-2 1 -1 133 120 43
-2 1.5 -0.5 135 122 43
-2 1 1 133 120 43
-2 2 1 138 124 44
-2 2 -0 138 124 44
-2 1 -0 133 120 43
-2 1.5 0.5 136 122 43
-1 1 2 120 108 38
-1 2 2 130 117 42
-1 2 1 129 116 41
-1 1 1 103 92 33
-1 1.5 1.5 120 108 39
-1 2 1 129 116 41
-1 3 1 141 127 45
-1 3 -0 141 127 45
-1 2 -0 138 124 44
-1 2.5 0.5 137 123 44
-1 2 2 130 117 42
-1 3 2 141 127 45
-1 3 1 141 127 45
-1 2 1 129 116 41
-1 2.5 1.5 135 122 43
-1 5 2 150 135 48
-1 6 2 154 139 49
-1 6 1 154 139 49
-1 5 1 150 135 48
-1 5.5 1.5 152 137 49
-1 5 1 150 135 48
-1 6 1 154 139 49
-1 6 -0 154 139 49
-1 5 -0 150 135 48
-1 5.5 0.5 152 137 49
0 3 -2 134 121 43
0 4 -2 138 124 44
0 4 -3 142 128 45
0 3 -3 130 117 42
0 3.5 -2.5 136 122 44
-1 1 -2 105 94 34
-1 2 -2 130 117 42
-1 2 -3 131 118 42
-1 1 -3 122 110 39
-1 1.5 -2.5 122 110 39
-2 1 -1 133 120 43
-2 2 -1 137 124 44
-2 2 -2 137 123 44
-2 1 -2 133 120 43
-2 1.5 -1.5 135 122 43
-1 5 3 150 135 48
-1 6 3 154 138 49
-1 6 2 154 139 49
-1 5 2 150 135 48
-1 5.5 2.5 152 137 49
-1 2 -2 130 117 42
-1 3 -2 141 127 45
-1 3 -3 141 127 45
-1 2 -3 131 118 42
-1 2.5 -2.5 136 122 43
0 3 4 99 31 32
0 4 4 100 31 32
0 4 3 90 28 29
0 3 3 81 25 26
0 3.5 3.5 92 29 30
-1 3 3 142 127 45
-1 4 3 146 131 47
-1 4 2 146 131 47
-1 3 2 141 127 45
-1 3.5 2.5 144 129 46
-1 4 3 33 29 22
-1 5 3 34 29 22
-1 5 2 34 30 22
-1 4 2 33 29 22
-1 4.5 2.5 34 29 22
-1 3 1 141 127 45
-1 4 1 146 131 47
-1 4 -0 146 131 47
-1 3 -0 141 127 45
-1 3.5 0.5 143 129 46
-1 3 2 141 127 45
-1 4 2 146 131 47
-1 4 1 146 131 47
-1 3 1 141 127 45
-1 3.5 1.5 143 129 46
-1 4 2 146 131 47
-1 5 2 150 135 48
-1 5 1 150 135 48
-1 4 1 146 131 47
-1 4.5 1.5 148 133 47
-1 4 1 146 131 47
-1 5 1 150 135 48
-1 5 -0 150 135 48
-1 4 -0 146 131 47
-1 4.5 0.5 148 133 47
0 0 2 126 113 40
1 0 2 128 115 41
1 1 2 124 112 40
0 1 2 121 109 39
0.5 0.5 2 125 112 40
1 0 2 128 115 41
2 0 2 128 115 41
2 1 2 129 116 41
1 1 2 124 112 40
1.5 0.5 2 127 115 41
-1 0 2 124 112 40
0 0 2 126 113 40
0 1 2 121 109 39
-1 1 2 123 110 39
-0.5 0.5 2 124 111 40
-2 1 1 106 95 34
-1 1 1 96 86 31
-1 2 1 98 88 31
-2 2 1 109 98 35
-1.5 1.5 1 102 92 33
0 5 3 157 142 50
1 5 3 157 142 50
1 6 3 162 146 52
0 6 3 162 146 52
0.5 5.5 3 160 144 51
1 5 3 157 142 50
2 5 3 158 142 51
2 6 3 162 145 52
1 6 3 162 146 52
1.5 5.5 3 160 144 51
0 1 2 121 109 39
1 1 2 124 112 40
1 2 2 103 92 33
0 2 2 100 90 32
0.5 1.5 2 112 101 36
-1 1 2 123 110 39
0 1 2 121 109 39
0 2 2 100 90 32
-1 2 2 113 101 36
-0.5 1.5 2 114 103 37
1 1 2 124 112 40
2 1 2 129 116 41
2 2 2 119 107 38
1 2 2 103 92 33
1.5 1.5 2 119 107 38
1 2 2 103 92 33
2 2 2 119 107 38
2 3 2 114 103 37
1 3 2 85 77 27
1.5 2.5 2 105 95 34
0 2 2 100 90 32
1 2 2 103 92 33
1 3 2 85 77 27
0 3 2 85 76 27
0.5 2.5 2 93 84 30
-1 2 2 113 101 36
0 2 2 100 90 32
0 3 2 85 76 27
-1 3 2 106 95 34
-0.5 2.5 2 101 91 32
2 1 1 110 99 35
3 1 1 117 106 38
3 2 1 120 108 38
2 2 1 112 101 36
2.5 1.5 1 115 103 37
0 3 -2 87 78 28
1 3 -2 88 80 28
1 4 -2 96 86 31
0 4 -2 94 85 30
0.5 3.5 -2 91 82 29
-1 5 3 158 142 51
0 5 3 157 142 50
0 6 3 162 146 52
-1 6 3 162 146 52
-0.5 5.5 3 160 144 51
0 3 4 122 38 39
1 3 4 122 38 39
1 4 4 126 39 41
0 4 4 126 39 41
0.5 3.5 4 124 39 40
-1 3 3 135 121 43
0 3 3 118 106 38
0 4 3 145 131 46
-1 4 3 146 132 47
-0.5 3.5 3 136 122 44
-1 4 3 33 29 22
0 4 3 33 29 22
0 5 3 36 31 23
-1 5 3 36 31 24
-0.5 4.5 3 35 30 23
0 4 3 145 131 46
1 4 3 147 132 47
1 5 3 157 142 50
0 5 3 157 142 50
0.5 4.5 3 152 137 49
1 3 3 122 110 39
2 3 3 138 125 44
2 4 3 148 133 47
1 4 3 147 132 47
1.5 3.5 3 139 125 45
1 4 3 34 29 22
2 4 3 34 29 22
2 5 3 36 31 24
1 5 3 36 31 23
1.5 4.5 3 35 30 23
3 4 0 1
3 4 1 2
3 4 2 3
3 4 3 0
3 9 5 6
3 9 6 7
3 9 7 8
3 9 8 5
3 14 10 11
3 14 11 12
3 14 12 13
3 14 13 10
3 19 15 16
3 19 16 17
3 19 17 18
3 19 18 15
3 24 20 21
3 24 21 22
3 24 22 23
3 24 23 20
3 29 25 26
3 29 26 27
3 29 27 28
3 29 28 25
3 34 30 31
3 34 31 32
3 34 32 33
3 34 33 30
3 39 35 36
3 39 36 37
3 39 37 38
3 39 38 35
3 44 40 41
3 44 41 42
3 44 42 43
3 44 43 40
3 49 45 46
3 49 46 47
3 49 47 48
3 49 48 45
3 54 50 51
3 54 51 52
3 54 52 53
3 54 53 50
3 59 55 56
3 59 56 57
3 59 57 58
3 59 58 55
3 64 60 61
3 64 61 62
3 64 62 63
3 64 63 60
3 69 65 66
3 69 66 67
3 69 67 68
3 69 68 65
3 74 70 71
3 74 71 72
3 74 72 73
3 74 73 70
3 79 75 76
3 79 76 77
3 79 77 78
3 79 78 75
3 84 80 81
3 84 81 82
3 84 82 83
3 84 83 80
3 89 85 86
3 89 86 87
3 89 87 88
3 89 88 85
3 94 90 91
3 94 91 92
3 94 92 93
3 94 93 90
3 99 95 96
3 99 96 97
3 99 97 98
3 99 98 95
3 104 100 101
3 104 101 102
3 104 102 103
3 104 103 100
3 109 105 106
3 109 106 107
3 109 107 108
3 109 108 105
3 114 110 111
3 114 111 112
3 114 112 113
3 114 113 110
3 119 115 116
3 119 116 117
3 119 117 118
3 119 118 115
3 124 120 121
3 124 121 122
3 124 122 123
3 124 123 120
3 129 125 126
3 129 126 127
3 129 127 128
3 129 128 125
3 134 130 131
3 134 131 132
3 134 132 133
3 134 133 130
3 139 135 136
3 139 136 137
3 139 137 138
3 139 138 135
3 144 140 141
3 144 141 142
3 144 142 143
3 144 143 140
3 149 145 146
3 149 146 147
3 149 147 148
3 149 148 145
3 154 150 151
3 154 151 152
3 154 152 153
3 154 153 150
3 159 155 156
3 159 156 157
3 159 157 158
3 159 158 155
3 164 160 161
3 164 161 162
3 164 162 163
3 164 163 160
3 169 165 166
3 169 166 167
3 169 167 168
3 169 168 165
3 174 170 171
3 174 171 172
3 174 172 173
3 174 173 170
3 179 175 176
3 179 176 177
3 179 177 178
3 179 178 175
3 184 180 181
3 184 181 182
3 184 182 183
3 184 183 180
3 189 185 186
3 189 186 187
3 189 187 188
3 189 188 185
3 194 190 191
3 194 191 192
3 194 192 193
3 194 193 190
3 199 195 196
3 199 196 197
3 199 197 198
3 199 198 195
3 204 200 201
3 204 201 202
3 204 202 203
3 204 203 200
3 209 205 206
3 209 206 207
3 209 207 208
3 209 208 205
3 214 210 211
3 214 211 212
3 214 212 213
3 214 213 210
3 219 215 216
3 219 216 217
3 219 217 218
3 219 218 215
3 224 220 221
3 224 221 222
3 224 222 223
3 224 223 220
3 229 225 226
3 229 226 227
3 229 227 228
3 229 228 225
3 234 230 231
3 234 231 232
3 234 232 233
3 234 233 230
3 239 235 236
3 239 236 237
3 239 237 238
3 239 238 235
3 244 240 241
3 244 241 242
3 244 242 243
3 244 243 240
3 249 245 246
3 249 246 247
3 249 247 248
3 249 248 245
3 254 250 251
3 254 251 252
3 254 252 253
3 254 253 250
3 259 255 256
3 259 256 257
3 259 257 258
3 259 258 255
3 264 260 261
3 264 261 262
3 264 262 263
3 264 263 260
3 269 265 266
3 269 266 267
3 269 267 268
3 269 268 265
3 274 270 271
3 274 271 272
3 274 272 273
3 274 273 270
3 279 275 276
3 279 276 277
3 279 277 278
3 279 278 275
3 284 280 281
3 284 281 282
3 284 282 283
3 284 283 280
3 289 285 286
3 289 286 287
3 289 287 288
3 289 288 285
3 294 290 291
3 294 291 292
3 294 292 293
3 294 293 290
3 299 295 296
3 299 296 297
3 299 297 298
3 299 298 295
3 304 300 301
3 304 301 302
3 304 302 303
3 304 303 300
3 309 305 306
3 309 306 307
3 309 307 308
3 309 308 305
3 314 310 311
3 314 311 312
3 314 312 313
3 314 313 310
3 319 315 316
3 319 316 317
3 319 317 318
3 319 318 315
3 324 320 321
3 324 321 322
3 324 322 323
3 324 323 320
3 329 325 326
3 329 326 327
3 329 327 328
3 329 328 325
3 334 330 331
3 334 331 332
3 334 332 333
3 334 333 330
3 339 335 336
3 339 336 337
3 339 337 338
3 339 338 335
3 344 340 341
3 344 341 342
3 344 342 343
3 344 343 340
3 349 345 346
3 349 346 347
3 349 347 348
3 349 348 345
3 354 350 351
3 354 351 352
3 354 352 353
3 354 353 350
3 359 355 356
3 359 356 357
3 359 357 358
3 359 358 355
3 364 360 361
3 364 361 362
3 364 362 363
3 364 363 360
3 369 365 366
3 369 366 367
3 369 367 368
3 369 368 365
3 374 370 371
3 374 371 372
3 374 372 373
3 374 373 370
3 379 375 376
3 379 376 377
3 379 377 378
3 379 378 375
3 384 380 381
3 384 381 382
3 384 382 383
3 384 383 380
3 389 385 386
3 389 386 387
3 389 387 388
3 389 388 385
3 394 390 391
3 394 391 392
3 394 392 393
3 394 393 390
3 399 395 396
3 399 396 397
3 399 397 398
3 399 398 395
3 404 400 401
3 404 401 402
3 404 402 403
3 404 403 400
3 409 405 406
3 409 406 407
3 409 407 408
3 409 408 405
3 414 410 411
3 414 411 412
3 414 412 413
3 414 413 410
3 419 415 416
3 419 416 417
3 419 417 418
3 419 418 415
3 424 420 421
3 424 421 422
3 424 422 423
3 424 423 420
3 429 425 426
3 429 426 427
3 429 427 428
3 429 428 425
3 434 430 431
3 434 431 432
3 434 432 433
3 434 433 430
3 439 435 436
3 439 436 437
3 439 437 438
3 439 438 435
3 444 440 441
3 444 441 442
3 444 442 443
3 444 443 440
3 449 445 446
3 449 446 447
3 449 447 448
3 449 448 445
3 454 450 451
3 454 451 452
3 454 452 453
3 454 453 450
3 459 455 456
3 459 456 457
3 459 457 458
3 459 458 455
3 464 460 461
3 464 461 462
3 464 462 463
3 464 463 460
3 469 465 466
3 469 466 467
3 469 467 468
3 469 468 465
3 474 470 471
3 474 471 472
3 474 472 473
3 474 473 470
3 479 475 476
3 479 476 477
3 479 477 478
3 479 478 475
3 484 480 481
3 484 481 482
3 484 482 483
3 484 483 480
3 489 485 486
3 489 486 487
3 489 487 488
3 489 488 485
3 494 490 491
3 494 491 492
3 494 492 493
3 494 493 490
3 499 495 496
3 499 496 497
3 499 497 498
3 499 498 495
3 504 500 501
3 504 501 502
3 504 502 503
3 504 503 500
3 509 505 506
3 509 506 507
3 509 507 508
3 509 508 505
3 514 510 511
3 514 511 512
3 514 512 513
3 514 513 510
3 519 515 516
3 519 516 517
3 519 517 518
3 519 518 515
3 524 520 521
3 524 521 522
3 524 522 523
3 524 523 520
3 529 525 526
3 529 526 527
3 529 527 528
3 529 528 525
3 534 530 531
3 534 531 532
3 534 532 533
3 534 533 530
3 539 535 536
3 539 536 537
3 539 537 538
3 539 538 535
3 544 540 541
3 544 541 542
3 544 542 543
3 544 543 540
3 549 545 546
3 549 546 547
3 549 547 548
3 549 548 545
3 554 550 551
3 554 551 552
3 554 552 553
3 554 553 550
3 559 555 556
3 559 556 557
3 559 557 558
3 559 558 555
3 564 560 561
3 564 561 562
3 564 562 563
3 564 563 560
3 569 565 566
3 569 566 567
3 569 567 568
3 569 568 565
3 574 570 571
3 574 571 572
3 574 572 573
3 574 573 570
3 579 575 576
3 579 576 577
3 579 577 578
3 579 578 575
3 584 580 581
3 584 581 582
3 584 582 583
3 584 583 580
3 589 585 586
3 589 586 587
3 589 587 588
3 589 588 585
3 594 590 591
3 594 591 592
3 594 592 593
3 594 593 590
3 599 595 596
3 599 596 597
3 599 597 598
3 599 598 595
3 604 600 601
3 604 601 602
3 604 602 603
3 604 603 600
3 609 605 606
3 609 606 607
3 609 607 608
3 609 608 605
3 614 610 611
3 614 611 612
3 614 612 613
3 614 613 610
3 619 615 616
3 619 616 617
3 619 617 618
3 619 618 615
3 624 620 621
3 624 621 622
3 624 622 623
3 624 623 620
3 629 625 626
3 629 626 627
3 629 627 628
3 629 628 625
3 634 630 631
3 634 631 632
3 634 632 633
3 634 633 630
3 639 635 636
3 639 636 637
3 639 637 638
3 639 638 635
3 644 640 641
3 644 641 642
3 644 642 643
3 644 643 640
3 649 645 646
3 649 646 647
3 649 647 648
3 649 648 645
3 654 650 651
3 654 651 652
3 654 652 653
3 654 653 650
3 659 655 656
3 659 656 657
3 659 657 658
3 659 658 655
3 664 660 661
3 664 661 662
3 664 662 663
3 664 663 660
3 669 665 666
3 669 666 667
3 669 667 668
3 669 668 665
3 674 670 671
3 674 671 672
3 674 672 673
3 674 673 670
3 679 675 676
3 679 676 677
3 679 677 678
3 679 678 675
3 684 680 681
3 684 681 682
3 684 682 683
3 684 683 680
3 689 685 686
3 689 686 687
3 689 687 688
3 689 688 685
3 694 690 691
3 694 691 692
3 694 692 693
3 694 693 690
3 699 695 696
3 699 696 697
3 699 697 698
3 699 698 695
3 704 700 701
3 704 701 702
3 704 702 703
3 704 703 700
3 709 705 706
3 709 706 707
3 709 707 708
3 709 708 705
