# MagicaVoxel @ ephtracy

# material
mtllib item007.mtl
usemtl palette

# normals
vn -1 0 0
vn 1 0 0
vn 0 0 1
vn 0 0 -1
vn 0 -1 0
vn 0 1 0

# texcoords
vt 0.958984 0.5
vt 0.994141 0.5

# verts
v -3 0 1
v -3 0 -1
v -3 2 1
v -3 2 -1
v -3 6 2
v -3 6 -2
v -3 9 2
v -3 9 -2
v -2 0 2
v -2 0 1
v -2 0 -1
v -2 0 -2
v -2 2 1
v -2 2 -1
v -2 4 2
v -2 4 -2
v -2 5 2
v -2 5 -2
v -2 6 3
v -2 6 2
v -2 6 -2
v -2 6 -3
v -2 9 3
v -2 9 2
v -2 9 -2
v -2 9 -3
v -2 10 2
v -2 10 -2
v -1 9 3
v -1 9 2
v -1 9 -2
v -1 9 -3
v -1 10 2
v -1 10 1
v -1 10 -1
v -1 10 -2
v -1 11 3
v -1 11 1
v -1 11 -1
v -1 11 -3
v 0 9 3
v 0 9 2
v 0 9 -2
v 0 9 -3
v 0 10 2
v 0 10 1
v 0 10 -1
v 0 10 -2
v 0 11 3
v 0 11 1
v 0 11 -1
v 0 11 -3
v 1 0 1
v 1 0 -1
v 1 1 2
v 1 1 1
v 1 1 -1
v 1 1 -2
v 1 4 2
v 1 4 1
v 1 4 -1
v 1 4 -2
v 1 5 2
v 1 5 1
v 1 5 -1
v 1 5 -2
v 1 6 3
v 1 6 2
v 1 6 -2
v 1 6 -3
v 1 7 2
v 1 7 -2
v 1 9 3
v 1 9 2
v 1 9 1
v 1 9 -1
v 1 9 -2
v 1 9 -3
v 1 10 2
v 1 10 -2
v 2 6 2
v 2 6 1
v 2 6 -1
v 2 6 -2
v 2 7 2
v 2 7 1
v 2 7 -1
v 2 7 -2
v 2 8 1
v 2 8 -1
v 2 9 2
v 2 9 1
v 2 9 -1
v 2 9 -2
v 3 0 2
v 3 0 1
v 3 0 -1
v 3 0 -2
v 3 1 2
v 3 1 1
v 3 1 -1
v 3 1 -2
v 3 4 2
v 3 4 1
v 3 4 -1
v 3 4 -2
v 3 5 2
v 3 5 1
v 3 5 -1
v 3 5 -2
v 3 6 1
v 3 6 -1
v 3 7 1
v 3 7 -1
v 3 8 1
v 3 8 -1
v -2 6 3
v -2 9 3
v -1 9 3
v -1 11 3
v 0 9 3
v 0 11 3
v 1 6 3
v 1 9 3
v -3 6 2
v -3 9 2
v -2 0 2
v -2 4 2
v -2 5 2
v -2 6 2
v -2 9 2
v -2 10 2
v -1 9 2
v -1 10 2
v 0 0 2
v 0 1 2
v 0 9 2
v 0 10 2
v 1 1 2
v 1 4 2
v 1 5 2
v 1 6 2
v 1 7 2
v 1 9 2
v 1 10 2
v 2 6 2
v 2 7 2
v 2 9 2
v 3 0 2
v 3 1 2
v 3 4 2
v 3 5 2
v -3 0 1
v -3 2 1
v -2 0 1
v -2 2 1
v 2 6 1
v 2 7 1
v 2 8 1
v 3 6 1
v 3 7 1
v 3 8 1
v -1 10 -1
v -1 11 -1
v 0 10 -1
v 0 11 -1
v 1 0 -1
v 1 1 -1
v 1 4 -1
v 1 5 -1
v 3 0 -1
v 3 1 -1
v 3 4 -1
v 3 5 -1
v -1 10 1
v -1 11 1
v 0 10 1
v 0 11 1
v 1 0 1
v 1 1 1
v 1 4 1
v 1 5 1
v 3 0 1
v 3 1 1
v 3 4 1
v 3 5 1
v -3 0 -1
v -3 2 -1
v -2 0 -1
v -2 2 -1
v 2 6 -1
v 2 7 -1
v 2 8 -1
v 3 6 -1
v 3 7 -1
v 3 8 -1
v -3 6 -2
v -3 9 -2
v -2 0 -2
v -2 4 -2
v -2 5 -2
v -2 6 -2
v -2 9 -2
v -2 10 -2
v -1 9 -2
v -1 10 -2
v 0 0 -2
v 0 1 -2
v 0 9 -2
v 0 10 -2
v 1 1 -2
v 1 4 -2
v 1 5 -2
v 1 6 -2
v 1 7 -2
v 1 9 -2
v 1 10 -2
v 2 6 -2
v 2 7 -2
v 2 9 -2
v 3 0 -2
v 3 1 -2
v 3 4 -2
v 3 5 -2
v -2 6 -3
v -2 9 -3
v -1 9 -3
v -1 11 -3
v 0 9 -3
v 0 11 -3
v 1 6 -3
v 1 9 -3
v -2 0 2
v 0 0 2
v 3 0 2
v -3 0 1
v -2 0 1
v 0 0 1
v 1 0 1
v 3 0 1
v -3 0 -1
v -2 0 -1
v 0 0 -1
v 1 0 -1
v 3 0 -1
v -2 0 -2
v 0 0 -2
v 3 0 -2
v 1 4 2
v 3 4 2
v 1 4 1
v 3 4 1
v 1 4 -1
v 3 4 -1
v 1 4 -2
v 3 4 -2
v -2 6 3
v 1 6 3
v -3 6 2
v -2 6 2
v 1 6 2
v 2 6 2
v 2 6 1
v 3 6 1
v 2 6 -1
v 3 6 -1
v -3 6 -2
v -2 6 -2
v 1 6 -2
v 2 6 -2
v -2 6 -3
v 1 6 -3
v 1 1 2
v 3 1 2
v 1 1 1
v 3 1 1
v 1 1 -1
v 3 1 -1
v 1 1 -2
v 3 1 -2
v -3 2 1
v -2 2 1
v -3 2 -1
v -2 2 -1
v 1 5 2
v 3 5 2
v 1 5 1
v 3 5 1
v 1 5 -1
v 3 5 -1
v 1 5 -2
v 3 5 -2
v 2 8 1
v 3 8 1
v 2 8 -1
v 3 8 -1
v -2 9 3
v -1 9 3
v 0 9 3
v 1 9 3
v -3 9 2
v -2 9 2
v -1 9 2
v 0 9 2
v 1 9 2
v 2 9 2
v 1 9 1
v 2 9 1
v 1 9 -1
v 2 9 -1
v -3 9 -2
v -2 9 -2
v -1 9 -2
v 0 9 -2
v 1 9 -2
v 2 9 -2
v -2 9 -3
v -1 9 -3
v 0 9 -3
v 1 9 -3
v -2 10 2
v -1 10 2
v 0 10 2
v 1 10 2
v -1 10 1
v 0 10 1
v -1 10 -1
v 0 10 -1
v -2 10 -2
v -1 10 -2
v 0 10 -2
v 1 10 -2
v -1 11 3
v 0 11 3
v -1 11 1
v 0 11 1
v -1 11 -1
v 0 11 -1
v -1 11 -3
v 0 11 -3

# faces
f 3/1/1 2/1/1 1/1/1
f 4/1/1 2/1/1 3/1/1
f 7/1/1 6/1/1 5/1/1
f 8/1/1 6/1/1 7/1/1
f 13/1/1 10/1/1 9/1/1
f 14/1/1 12/1/1 11/1/1
f 15/1/1 13/1/1 9/1/1
f 15/1/1 14/1/1 13/1/1
f 16/1/1 12/1/1 14/1/1
f 16/1/1 14/1/1 15/1/1
f 17/2/1 16/2/1 15/2/1
f 18/2/1 16/2/1 17/2/1
f 20/1/1 18/1/1 17/1/1
f 21/1/1 18/1/1 20/1/1
f 23/1/1 20/1/1 19/1/1
f 24/1/1 20/1/1 23/1/1
f 25/1/1 22/1/1 21/1/1
f 26/1/1 22/1/1 25/1/1
f 27/1/1 25/1/1 24/1/1
f 28/1/1 25/1/1 27/1/1
f 33/2/1 30/2/1 29/2/1
f 36/2/1 32/2/1 31/2/1
f 37/2/1 34/2/1 33/2/1
f 37/2/1 33/2/1 29/2/1
f 38/2/1 34/2/1 37/2/1
f 39/2/1 36/2/1 35/2/1
f 40/2/1 32/2/1 36/2/1
f 40/2/1 36/2/1 39/2/1
f 41/2/2 42/2/2 45/2/2
f 43/2/2 44/2/2 48/2/2
f 45/2/2 46/2/2 49/2/2
f 41/2/2 45/2/2 49/2/2
f 49/2/2 46/2/2 50/2/2
f 47/2/2 48/2/2 51/2/2
f 48/2/2 44/2/2 52/2/2
f 51/2/2 48/2/2 52/2/2
f 53/1/2 54/1/2 56/1/2
f 56/1/2 54/1/2 57/1/2
f 55/1/2 56/1/2 59/1/2
f 57/1/2 58/1/2 59/1/2
f 56/1/2 57/1/2 59/1/2
f 59/1/2 58/1/2 60/1/2
f 60/1/2 58/1/2 61/1/2
f 61/1/2 58/1/2 62/1/2
f 60/2/2 61/2/2 64/2/2
f 64/2/2 61/2/2 65/2/2
f 63/1/2 64/1/2 68/1/2
f 65/1/2 66/1/2 68/1/2
f 64/1/2 65/1/2 68/1/2
f 68/1/2 66/1/2 69/1/2
f 67/1/2 68/1/2 71/1/2
f 69/1/2 70/1/2 72/1/2
f 67/1/2 71/1/2 73/1/2
f 73/1/2 71/1/2 74/1/2
f 72/1/2 70/1/2 77/1/2
f 77/1/2 70/1/2 78/1/2
f 75/1/2 76/1/2 79/1/2
f 76/1/2 77/1/2 79/1/2
f 74/1/2 75/1/2 79/1/2
f 79/1/2 77/1/2 80/1/2
f 81/1/2 82/1/2 85/1/2
f 85/1/2 82/1/2 86/1/2
f 83/1/2 84/1/2 87/1/2
f 87/1/2 84/1/2 88/1/2
f 85/2/2 86/2/2 89/2/2
f 87/2/2 88/2/2 90/2/2
f 85/2/2 89/2/2 91/2/2
f 89/1/2 90/1/2 92/1/2
f 91/2/2 89/2/2 92/2/2
f 90/2/2 88/2/2 93/2/2
f 92/1/2 90/1/2 93/1/2
f 93/2/2 88/2/2 94/2/2
f 95/2/2 96/2/2 99/2/2
f 99/2/2 96/2/2 100/2/2
f 97/2/2 98/2/2 101/2/2
f 101/2/2 98/2/2 102/2/2
f 103/2/2 104/2/2 107/2/2
f 107/2/2 104/2/2 108/2/2
f 105/2/2 106/2/2 109/2/2
f 109/2/2 106/2/2 110/2/2
f 111/1/2 112/1/2 113/1/2
f 113/1/2 112/1/2 114/1/2
f 113/2/2 114/2/2 115/2/2
f 115/2/2 114/2/2 116/2/2
f 119/1/3 118/1/3 117/1/3
f 121/1/3 119/1/3 117/1/3
f 121/2/3 120/2/3 119/2/3
f 122/2/3 120/2/3 121/2/3
f 123/1/3 121/1/3 117/1/3
f 124/1/3 121/1/3 123/1/3
f 130/1/3 126/1/3 125/1/3
f 131/1/3 126/1/3 130/1/3
f 133/1/3 132/1/3 131/1/3
f 134/1/3 132/1/3 133/1/3
f 135/1/3 128/1/3 127/1/3
f 136/1/3 128/1/3 135/1/3
f 139/2/3 136/2/3 135/2/3
f 139/1/3 128/1/3 136/1/3
f 140/2/3 129/2/3 128/2/3
f 140/1/3 128/1/3 139/1/3
f 141/1/3 130/1/3 129/1/3
f 141/2/3 129/2/3 140/2/3
f 142/1/3 130/1/3 141/1/3
f 144/1/3 138/1/3 137/1/3
f 145/1/3 138/1/3 144/1/3
f 146/1/3 143/1/3 142/1/3
f 147/2/3 144/2/3 143/2/3
f 147/1/3 143/1/3 146/1/3
f 148/2/3 144/2/3 147/2/3
f 149/2/3 139/2/3 135/2/3
f 150/2/3 139/2/3 149/2/3
f 151/2/3 141/2/3 140/2/3
f 152/2/3 141/2/3 151/2/3
f 155/1/3 154/1/3 153/1/3
f 156/1/3 154/1/3 155/1/3
f 160/1/3 158/1/3 157/1/3
f 161/2/3 159/2/3 158/2/3
f 161/1/3 158/1/3 160/1/3
f 162/2/3 159/2/3 161/2/3
f 165/2/3 164/2/3 163/2/3
f 166/2/3 164/2/3 165/2/3
f 171/2/3 168/2/3 167/2/3
f 172/2/3 168/2/3 171/2/3
f 173/2/3 170/2/3 169/2/3
f 174/2/3 170/2/3 173/2/3
f 175/2/4 176/2/4 177/2/4
f 177/2/4 176/2/4 178/2/4
f 179/2/4 180/2/4 183/2/4
f 183/2/4 180/2/4 184/2/4
f 181/2/4 182/2/4 185/2/4
f 185/2/4 182/2/4 186/2/4
f 187/1/4 188/1/4 189/1/4
f 189/1/4 188/1/4 190/1/4
f 191/1/4 192/1/4 194/1/4
f 192/2/4 193/2/4 195/2/4
f 194/1/4 192/1/4 195/1/4
f 195/2/4 193/2/4 196/2/4
f 197/1/4 198/1/4 202/1/4
f 202/1/4 198/1/4 203/1/4
f 203/1/4 204/1/4 205/1/4
f 205/1/4 204/1/4 206/1/4
f 199/1/4 200/1/4 207/1/4
f 207/1/4 200/1/4 208/1/4
f 207/2/4 208/2/4 211/2/4
f 208/1/4 200/1/4 211/1/4
f 200/2/4 201/2/4 212/2/4
f 211/1/4 200/1/4 212/1/4
f 201/1/4 202/1/4 213/1/4
f 212/2/4 201/2/4 213/2/4
f 213/1/4 202/1/4 214/1/4
f 209/1/4 210/1/4 216/1/4
f 216/1/4 210/1/4 217/1/4
f 214/1/4 215/1/4 218/1/4
f 215/2/4 216/2/4 219/2/4
f 218/1/4 215/1/4 219/1/4
f 219/2/4 216/2/4 220/2/4
f 207/2/4 211/2/4 221/2/4
f 221/2/4 211/2/4 222/2/4
f 212/2/4 213/2/4 223/2/4
f 223/2/4 213/2/4 224/2/4
f 225/1/4 226/1/4 227/1/4
f 225/1/4 227/1/4 229/1/4
f 227/2/4 228/2/4 229/2/4
f 229/2/4 228/2/4 230/2/4
f 225/1/4 229/1/4 231/1/4
f 231/1/4 229/1/4 232/1/4
f 237/1/5 234/1/5 233/1/5
f 238/2/5 235/2/5 234/2/5
f 238/1/5 234/1/5 237/1/5
f 239/2/5 235/2/5 238/2/5
f 240/2/5 235/2/5 239/2/5
f 241/1/5 237/1/5 236/1/5
f 241/1/5 238/1/5 237/1/5
f 241/1/5 239/1/5 238/1/5
f 242/1/5 239/1/5 241/1/5
f 243/1/5 239/1/5 242/1/5
f 244/1/5 239/1/5 243/1/5
f 246/1/5 243/1/5 242/1/5
f 247/2/5 245/2/5 244/2/5
f 247/1/5 243/1/5 246/1/5
f 247/2/5 244/2/5 243/2/5
f 248/2/5 245/2/5 247/2/5
f 251/2/5 250/2/5 249/2/5
f 252/2/5 250/2/5 251/2/5
f 255/2/5 254/2/5 253/2/5
f 256/2/5 254/2/5 255/2/5
f 260/1/5 258/1/5 257/1/5
f 261/1/5 258/1/5 260/1/5
f 263/1/5 262/1/5 261/1/5
f 265/1/5 263/1/5 261/1/5
f 265/1/5 264/1/5 263/1/5
f 266/1/5 264/1/5 265/1/5
f 267/1/5 260/1/5 259/1/5
f 268/1/5 260/1/5 267/1/5
f 269/1/5 265/1/5 261/1/5
f 270/1/5 265/1/5 269/1/5
f 271/1/5 269/1/5 268/1/5
f 272/1/5 269/1/5 271/1/5
f 273/2/6 274/2/6 275/2/6
f 275/2/6 274/2/6 276/2/6
f 277/2/6 278/2/6 279/2/6
f 279/2/6 278/2/6 280/2/6
f 281/1/6 282/1/6 283/1/6
f 283/1/6 282/1/6 284/1/6
f 285/2/6 286/2/6 287/2/6
f 287/2/6 286/2/6 288/2/6
f 289/2/6 290/2/6 291/2/6
f 291/2/6 290/2/6 292/2/6
f 293/2/6 294/2/6 295/2/6
f 295/2/6 294/2/6 296/2/6
f 297/1/6 298/1/6 302/1/6
f 302/1/6 298/1/6 303/1/6
f 299/1/6 300/1/6 304/1/6
f 304/1/6 300/1/6 305/1/6
f 305/2/6 306/2/6 307/2/6
f 307/2/6 306/2/6 308/2/6
f 307/1/6 308/1/6 309/1/6
f 309/1/6 308/1/6 310/1/6
f 301/1/6 302/1/6 311/1/6
f 311/1/6 302/1/6 312/1/6
f 309/2/6 310/2/6 315/2/6
f 315/2/6 310/2/6 316/2/6
f 312/1/6 313/1/6 317/1/6
f 317/1/6 313/1/6 318/1/6
f 314/1/6 315/1/6 319/1/6
f 319/1/6 315/1/6 320/1/6
f 321/1/6 322/1/6 325/1/6
f 323/1/6 324/1/6 326/1/6
f 321/1/6 325/1/6 327/1/6
f 325/1/6 326/1/6 327/1/6
f 326/1/6 324/1/6 328/1/6
f 327/1/6 326/1/6 328/1/6
f 321/1/6 327/1/6 329/1/6
f 329/1/6 327/1/6 330/1/6
f 328/1/6 324/1/6 331/1/6
f 331/1/6 324/1/6 332/1/6
f 333/2/6 334/2/6 335/2/6
f 335/2/6 334/2/6 336/2/6
f 337/2/6 338/2/6 339/2/6
f 339/2/6 338/2/6 340/2/6
