ply
format ascii 1.0
comment : item007
comment : MagicaVoxel @ ephtracy
element vertex 1400
property float x
property float y
property float z
property uchar red
property uchar green
property uchar blue
element face 1120
property list uchar int vertex_index
end_header
-2 1 2 10 10 10
-1 1 2 9 9 9
-1 1 1 8 8 8
-2 1 1 10 10 10
-1.5 1 1.5 9 9 9
-2 1 3 11 11 11
-1 1 3 11 11 11
-1 1 2 9 9 9
-2 1 2 10 10 10
-1.5 1 2.5 10 10 10
1 1 2 9 9 9
2 1 2 10 10 10
2 1 1 10 10 10
1 1 1 8 8 8
1.5 1 1.5 9 9 9
1 1 3 11 11 11
2 1 3 12 12 12
2 1 2 10 10 10
1 1 2 9 9 9
1.5 1 2.5 11 11 11
0 8 3 13 13 13
1 8 3 13 13 13
1 8 2 12 12 12
0 8 2 12 12 12
0.5 8 2.5 12 12 12
-1 8 3 13 13 13
0 8 3 13 13 13
0 8 2 12 12 12
-1 8 2 12 12 12
-0.5 8 2.5 12 12 12
-3 11 -0 15 15 15
-2 11 -0 15 15 15
-2 11 -1 15 15 15
-3 11 -1 15 15 15
-2.5 11 -0.5 15 15 15
-2 11 -0 15 15 15
-1 11 -0 15 15 15
-1 11 -1 15 15 15
-2 11 -1 15 15 15
-1.5 11 -0.5 15 15 15
2 11 -0 15 15 15
3 11 -0 15 15 15
3 11 -1 15 15 15
2 11 -1 15 15 15
2.5 11 -0.5 15 15 15
1 11 -0 15 15 15
2 11 -0 15 15 15
2 11 -1 15 15 15
1 11 -1 15 15 15
1.5 11 -0.5 15 15 15
1 5 2 7 7 7
2 5 2 9 9 9
2 5 1 7 7 7
1 5 1 5 5 5
1.5 5 1.5 7 7 7
1 5 3 10 10 10
2 5 3 11 11 11
2 5 2 9 9 9
1 5 2 7 7 7
1.5 5 2.5 9 9 9
-2 5 2 9 9 9
-1 5 2 6 6 6
-1 5 1 5 5 5
-2 5 1 7 7 7
-1.5 5 1.5 7 7 7
-2 5 3 11 11 11
-1 5 3 10 10 10
-1 5 2 6 6 6
-2 5 2 9 9 9
-1.5 5 2.5 9 9 9
-1 2 -2 121 121 121
0 2 -2 115 115 115
0 2 -3 130 130 130
-1 2 -3 134 134 134
-0.5 2 -2.5 125 125 125
0 2 -2 115 115 115
1 2 -2 123 123 123
1 2 -3 139 139 139
0 2 -3 130 130 130
0.5 2 -2.5 126 126 126
1 9 -2 157 157 157
2 9 -2 157 157 157
2 9 -3 186 186 186
1 9 -3 178 178 178
1.5 9 -2.5 169 169 169
0 9 -2 154 154 154
1 9 -2 157 157 157
1 9 -3 178 178 178
0 9 -3 176 176 176
0.5 9 -2.5 166 166 166
-1 9 -2 158 158 158
0 9 -2 154 154 154
0 9 -3 176 176 176
-1 9 -3 178 178 178
-0.5 9 -2.5 167 167 167
-2 9 -2 155 155 155
-1 9 -2 158 158 158
-1 9 -3 178 178 178
-2 9 -3 186 186 186
-1.5 9 -2.5 169 169 169
-2 10 -1 162 162 162
-1 10 -1 175 175 175
-1 10 -2 191 191 191
-2 10 -2 183 183 183
-1.5 10 -1.5 178 178 178
-1 10 -1 175 175 175
0 10 -1 180 180 180
0 10 -2 199 199 199
-1 10 -2 191 191 191
-0.5 10 -1.5 186 186 186
0 10 -1 180 180 180
1 10 -1 173 173 173
1 10 -2 191 191 191
0 10 -2 199 199 199
0.5 10 -1.5 186 186 186
1 10 -1 173 173 173
2 10 -1 162 162 162
2 10 -2 183 183 183
1 10 -2 191 191 191
1.5 10 -1.5 177 177 177
-1 10 -0 181 181 181
0 10 -0 184 184 184
0 10 -1 180 180 180
-1 10 -1 175 175 175
-0.5 10 -0.5 180 180 180
0 10 -0 184 184 184
1 10 -0 180 180 180
1 10 -1 173 173 173
0 10 -1 180 180 180
0.5 10 -0.5 179 179 179
1 10 1 195 195 195
2 10 1 189 189 189
2 10 -0 175 175 175
1 10 -0 180 180 180
1.5 10 0.5 184 184 184
0 10 1 202 202 202
1 10 1 195 195 195
1 10 -0 180 180 180
0 10 -0 184 184 184
0.5 10 0.5 190 190 190
-1 10 1 195 195 195
0 10 1 202 202 202
0 10 -0 184 184 184
-1 10 -0 181 181 181
-0.5 10 0.5 191 191 191
-2 10 1 188 188 188
-1 10 1 195 195 195
-1 10 -0 181 181 181
-2 10 -0 174 174 174
-1.5 10 0.5 185 185 185
-3 9 -1 156 156 156
-2 9 -1 124 124 124
-2 9 -2 155 155 155
-3 9 -2 170 170 170
-2.5 9 -1.5 151 151 151
-3 9 1 177 177 177
-2 9 1 164 164 164
-2 9 -0 132 132 132
-3 9 -0 162 162 162
-2.5 9 0.5 159 159 159
2 9 1 166 166 166
3 9 1 178 178 178
3 9 -0 165 165 165
2 9 -0 136 136 136
2.5 9 0.5 161 161 161
2 9 -1 128 128 128
3 9 -1 160 160 160
3 9 -2 172 172 172
2 9 -2 157 157 157
2.5 9 -1.5 154 154 154
0 9 2 183 183 183
1 9 2 184 184 184
1 9 1 171 171 171
0 9 1 169 169 169
0.5 9 1.5 177 177 177
-1 9 2 184 184 184
0 9 2 183 183 183
0 9 1 169 169 169
-1 9 1 171 171 171
-0.5 9 1.5 177 177 177
-2 9 2 13 13 13
-1 9 2 13 13 13
-1 9 1 12 12 12
-2 9 1 11 11 11
-1.5 9 1.5 12 12 12
1 9 2 13 13 13
2 9 2 13 13 13
2 9 1 11 11 11
1 9 1 12 12 12
1.5 9 1.5 12 12 12
2 0 -1 124 124 124
2 0 -2 125 125 125
2 1 -2 129 129 129
2 1 -1 128 128 128
2 0.5 -1.5 126 126 126
2 0 -0 124 124 124
2 0 -1 124 124 124
2 1 -1 128 128 128
2 1 -0 128 128 128
2 0.5 -0.5 126 126 126
2 0 1 8 8 8
2 0 -0 8 8 8
2 1 -0 9 9 9
2 1 1 9 9 9
2 0.5 0.5 9 9 9
-1 0 2 5 5 5
-1 0 1 4 4 4
-1 1 1 5 5 5
-1 1 2 5 5 5
-1 0.5 1.5 5 5 5
-1 0 3 6 6 6
-1 0 2 5 5 5
-1 1 2 5 5 5
-1 1 3 6 6 6
-1 0.5 2.5 6 6 6
2 0 2 8 8 8
2 0 1 8 8 8
2 1 1 9 9 9
2 1 2 9 9 9
2 0.5 1.5 9 9 9
2 0 3 8 8 8
2 0 2 8 8 8
2 1 2 9 9 9
2 1 3 9 9 9
2 0.5 2.5 9 9 9
1 6 3 129 129 129
1 6 2 105 105 105
1 7 2 120 120 120
1 7 3 131 131 131
1 6.5 2.5 121 121 121
1 7 3 9 9 9
1 7 2 8 8 8
1 8 2 9 9 9
1 8 3 9 9 9
1 7.5 2.5 9 9 9
2 1 -0 128 128 128
2 1 -1 128 128 128
2 2 -1 132 132 132
2 2 -0 131 131 131
2 1.5 -0.5 130 130 130
2 1 -1 128 128 128
2 1 -2 129 129 129
2 2 -2 132 132 132
2 2 -1 132 132 132
2 1.5 -1.5 130 130 130
2 1 1 128 128 128
2 1 -0 128 128 128
2 2 -0 131 131 131
2 2 1 132 132 132
2 1.5 0.5 130 130 130
2 2 -1 132 132 132
2 2 -2 132 132 132
2 3 -2 136 136 136
2 3 -1 135 135 135
2 2.5 -1.5 134 134 134
2 2 -0 131 131 131
2 2 -1 132 132 132
2 3 -1 135 135 135
2 3 -0 134 134 134
2 2.5 -0.5 133 133 133
2 2 1 132 132 132
2 2 -0 131 131 131
2 3 -0 134 134 134
2 3 1 135 135 135
2 2.5 0.5 133 133 133
-1 10 -0 9 9 9
-1 10 -1 9 9 9
-1 11 -1 10 10 10
-1 11 -0 10 10 10
-1 10.5 -0.5 9 9 9
3 10 -0 11 11 11
3 10 -1 11 11 11
3 11 -1 11 11 11
3 11 -0 11 11 11
3 10.5 -0.5 11 11 11
2 3 -0 134 134 134
2 3 -1 135 135 135
2 4 -1 131 131 131
2 4 -0 132 132 132
2 3.5 -0.5 133 133 133
2 3 -1 135 135 135
2 3 -2 136 136 136
2 4 -2 134 134 134
2 4 -1 131 131 131
2 3.5 -1.5 134 134 134
2 3 1 135 135 135
2 3 -0 134 134 134
2 4 -0 132 132 132
2 4 1 135 135 135
2 3.5 0.5 134 134 134
3 9 -0 11 11 11
3 9 -1 11 11 11
3 10 -1 11 11 11
3 10 -0 11 11 11
3 9.5 -0.5 11 11 11
2 4 -0 9 9 9
2 4 -1 9 9 9
2 5 -1 7 7 7
2 5 -0 8 8 8
2 4.5 -0.5 8 8 8
2 4 -1 9 9 9
2 4 -2 9 9 9
2 5 -2 8 8 8
2 5 -1 7 7 7
2 4.5 -1.5 8 8 8
2 4 1 9 9 9
2 4 -0 9 9 9
2 5 -0 8 8 8
2 5 1 8 8 8
2 4.5 0.5 9 9 9
2 4 2 9 9 9
2 4 1 9 9 9
2 5 1 8 8 8
2 5 2 9 9 9
2 4.5 1.5 9 9 9
2 4 3 9 9 9
2 4 2 9 9 9
2 5 2 9 9 9
2 5 3 10 10 10
2 4.5 2.5 9 9 9
-1 4 2 5 5 5
-1 4 1 4 4 4
-1 5 1 3 3 3
-1 5 2 4 4 4
-1 4.5 1.5 4 4 4
-1 4 3 6 6 6
-1 4 2 5 5 5
-1 5 2 4 4 4
-1 5 3 6 6 6
-1 4.5 2.5 5 5 5
1 0 -2 89 89 89
1 0 -3 107 107 107
1 1 -3 107 107 107
1 1 -2 94 94 94
1 0.5 -2.5 99 99 99
1 1 -2 94 94 94
1 1 -3 107 107 107
1 2 -3 109 109 109
1 2 -2 97 97 97
1 1.5 -2.5 102 102 102
2 6 -2 112 112 112
2 6 -3 130 130 130
2 7 -3 128 128 128
2 7 -2 112 112 112
2 6.5 -2.5 120 120 120
2 5 -0 113 113 113
2 5 -1 111 111 111
2 6 -1 95 95 95
2 6 -0 96 96 96
2 5.5 -0.5 104 104 104
2 5 1 125 125 125
2 5 -0 113 113 113
2 6 -0 96 96 96
2 6 1 116 116 116
2 5.5 0.5 112 112 112
2 5 -1 111 111 111
2 5 -2 121 121 121
2 6 -2 112 112 112
2 6 -1 95 95 95
2 5.5 -1.5 110 110 110
2 7 -2 112 112 112
2 7 -3 128 128 128
2 8 -3 133 133 133
2 8 -2 119 119 119
2 7.5 -2.5 123 123 123
2 8 -2 119 119 119
2 8 -3 133 133 133
2 9 -3 145 145 145
2 9 -2 129 129 129
2 8.5 -2.5 132 132 132
2 9 -1 113 113 113
2 9 -2 129 129 129
2 10 -2 138 138 138
2 10 -1 122 122 122
2 9.5 -1.5 125 125 125
2 9 1 135 135 135
2 9 -0 122 122 122
2 10 -0 129 129 129
2 10 1 142 142 142
2 9.5 0.5 132 132 132
3 8 1 158 158 158
3 8 -0 157 157 157
3 9 -0 161 161 161
3 9 1 161 161 161
3 8.5 0.5 159 159 159
3 8 -1 157 157 157
3 8 -2 158 158 158
3 9 -2 161 161 161
3 9 -1 161 161 161
3 8.5 -1.5 159 159 159
3 8 -0 157 157 157
3 8 -1 157 157 157
3 9 -1 161 161 161
3 9 -0 161 161 161
3 8.5 -0.5 159 159 159
3 7 1 154 154 154
3 7 -0 154 154 154
3 8 -0 157 157 157
3 8 1 158 158 158
3 7.5 0.5 156 156 156
3 7 -0 154 154 154
3 7 -1 154 154 154
3 8 -1 157 157 157
3 8 -0 157 157 157
3 7.5 -0.5 156 156 156
3 7 -1 154 154 154
3 7 -2 154 154 154
3 8 -2 158 158 158
3 8 -1 157 157 157
3 7.5 -1.5 156 156 156
3 6 -1 150 150 150
3 6 -2 150 150 150
3 7 -2 154 154 154
3 7 -1 154 154 154
3 6.5 -1.5 152 152 152
2 6 2 133 133 133
2 6 1 116 116 116
2 7 1 120 120 120
2 7 2 132 132 132
2 6.5 1.5 125 125 125
3 6 -0 150 150 150
3 6 -1 150 150 150
3 7 -1 154 154 154
3 7 -0 154 154 154
3 6.5 -0.5 152 152 152
3 6 1 150 150 150
3 6 -0 150 150 150
3 7 -0 154 154 154
3 7 1 154 154 154
3 6.5 0.5 152 152 152
2 7 2 9 9 9
2 7 1 8 8 8
2 8 1 9 9 9
2 8 2 9 9 9
2 7.5 1.5 9 9 9
2 8 2 9 9 9
2 8 1 9 9 9
2 9 1 9 9 9
2 9 2 10 10 10
2 8.5 1.5 9 9 9
-2 0 -2 105 105 105
-2 1 -2 108 108 108
-1 1 -2 98 98 98
-1 0 -2 91 91 91
-1.5 0.5 -2 101 101 101
1 0 -2 91 91 91
1 1 -2 97 97 97
2 1 -2 107 107 107
2 0 -2 105 105 105
1.5 0.5 -2 100 100 100
-2 1 -2 108 108 108
-2 2 -2 119 119 119
-1 2 -2 118 118 118
-1 1 -2 98 98 98
-1.5 1.5 -2 111 111 111
1 1 -2 97 97 97
1 2 -2 118 118 118
2 2 -2 119 119 119
2 1 -2 107 107 107
1.5 1.5 -2 110 110 110
0 2 -2 126 126 126
0 3 -2 126 126 126
1 3 -2 127 127 127
1 2 -2 118 118 118
0.5 2.5 -2 124 124 124
1 2 -2 118 118 118
1 3 -2 127 127 127
2 3 -2 128 128 128
2 2 -2 119 119 119
1.5 2.5 -2 123 123 123
-3 10 -1 10 10 10
-3 11 -1 11 11 11
-2 11 -1 11 11 11
-2 10 -1 10 10 10
-2.5 10.5 -1 10 10 10
-1 2 -2 118 118 118
-1 3 -2 127 127 127
0 3 -2 126 126 126
0 2 -2 126 126 126
-0.5 2.5 -2 124 124 124
-3 9 -1 9 9 9
-3 10 -1 10 10 10
-2 10 -1 10 10 10
-2 9 -1 8 8 8
-2.5 9.5 -1 9 9 9
-2 2 -2 119 119 119
-2 3 -2 128 128 128
-1 3 -2 127 127 127
-1 2 -2 118 118 118
-1.5 2.5 -2 123 123 123
-2 10 -1 10 10 10
-2 11 -1 11 11 11
-1 11 -1 11 11 11
-1 10 -1 10 10 10
-1.5 10.5 -1 10 10 10
-1 3 -2 127 127 127
-1 4 -2 127 127 127
0 4 -2 126 126 126
0 3 -2 126 126 126
-0.5 3.5 -2 127 127 127
2 10 -1 9 9 9
2 11 -1 11 11 11
3 11 -1 11 11 11
3 10 -1 10 10 10
2.5 10.5 -1 10 10 10
-2 3 -2 128 128 128
-2 4 -2 129 129 129
-1 4 -2 127 127 127
-1 3 -2 127 127 127
-1.5 3.5 -2 128 128 128
0 3 -2 126 126 126
0 4 -2 126 126 126
1 4 -2 127 127 127
1 3 -2 127 127 127
0.5 3.5 -2 127 127 127
1 3 -2 127 127 127
1 4 -2 127 127 127
2 4 -2 129 129 129
2 3 -2 128 128 128
1.5 3.5 -2 128 128 128
1 10 -1 10 10 10
1 11 -1 11 11 11
2 11 -1 11 11 11
2 10 -1 9 9 9
1.5 10.5 -1 10 10 10
0 4 -2 9 9 9
0 5 -2 7 7 7
1 5 -2 8 8 8
1 4 -2 9 9 9
0.5 4.5 -2 8 8 8
2 9 -1 8 8 8
2 10 -1 9 9 9
3 10 -1 10 10 10
3 9 -1 9 9 9
2.5 9.5 -1 9 9 9
-1 4 -2 9 9 9
-1 5 -2 8 8 8
0 5 -2 7 7 7
0 4 -2 9 9 9
-0.5 4.5 -2 8 8 8
1 4 -2 9 9 9
1 5 -2 8 8 8
2 5 -2 8 8 8
2 4 -2 9 9 9
1.5 4.5 -2 8 8 8
-2 4 -2 9 9 9
-2 5 -2 8 8 8
-1 5 -2 8 8 8
-1 4 -2 9 9 9
-1.5 4.5 -2 8 8 8
0 0 -3 119 119 119
0 1 -3 123 123 123
1 1 -3 123 123 123
1 0 -3 119 119 119
0.5 0.5 -3 121 121 121
-1 0 -3 119 119 119
-1 1 -3 123 123 123
0 1 -3 123 123 123
0 0 -3 119 119 119
-0.5 0.5 -3 121 121 121
-1 1 -3 123 123 123
-1 2 -3 127 127 127
0 2 -3 127 127 127
0 1 -3 123 123 123
-0.5 1.5 -3 125 125 125
0 1 -3 123 123 123
0 2 -3 127 127 127
1 2 -3 127 127 127
1 1 -3 123 123 123
0.5 1.5 -3 125 125 125
1 6 -3 144 144 144
1 7 -3 148 148 148
2 7 -3 148 148 148
2 6 -3 144 144 144
1.5 6.5 -3 146 146 146
-1 5 -2 112 112 112
-1 6 -2 98 98 98
0 6 -2 94 94 94
0 5 -2 110 110 110
-0.5 5.5 -2 104 104 104
0 5 -2 110 110 110
0 6 -2 94 94 94
1 6 -2 97 97 97
1 5 -2 112 112 112
0.5 5.5 -2 103 103 103
0 6 -3 144 144 144
0 7 -3 148 148 148
1 7 -3 148 148 148
1 6 -3 144 144 144
0.5 6.5 -3 146 146 146
1 5 -2 112 112 112
1 6 -2 97 97 97
2 6 -2 112 112 112
2 5 -2 121 121 121
1.5 5.5 -2 110 110 110
-1 6 -3 145 145 145
-1 7 -3 148 148 148
0 7 -3 148 148 148
0 6 -3 144 144 144
-0.5 6.5 -3 146 146 146
-2 5 -2 122 122 122
-2 6 -2 114 114 114
-1 6 -2 98 98 98
-1 5 -2 112 112 112
-1.5 5.5 -2 112 112 112
-1 7 -3 148 148 148
-1 8 -3 152 152 152
0 8 -3 151 151 151
0 7 -3 148 148 148
-0.5 7.5 -3 150 150 150
0 7 -3 148 148 148
0 8 -3 151 151 151
1 8 -3 152 152 152
1 7 -3 148 148 148
0.5 7.5 -3 150 150 150
1 7 -3 148 148 148
1 8 -3 152 152 152
2 8 -3 152 152 152
2 7 -3 148 148 148
1.5 7.5 -3 150 150 150
1 8 -3 152 152 152
1 9 -3 155 155 155
2 9 -3 155 155 155
2 8 -3 152 152 152
1.5 8.5 -3 153 153 153
0 8 -3 151 151 151
0 9 -3 155 155 155
1 9 -3 155 155 155
1 8 -3 152 152 152
0.5 8.5 -3 153 153 153
-1 8 -3 152 152 152
-1 9 -3 155 155 155
0 9 -3 155 155 155
0 8 -3 151 151 151
-0.5 8.5 -3 153 153 153
-2 8 -3 152 152 152
-2 9 -3 155 155 155
-1 9 -3 155 155 155
-1 8 -3 152 152 152
-1.5 8.5 -3 153 153 153
-2 6 -3 145 145 145
-2 7 -3 149 149 149
-1 7 -3 148 148 148
-1 6 -3 145 145 145
-1.5 6.5 -3 147 147 147
-2 9 -2 142 142 142
-2 10 -2 155 155 155
-1 10 -2 153 153 153
-1 9 -2 146 146 146
-1.5 9.5 -2 149 149 149
-1 9 -2 146 146 146
-1 10 -2 153 153 153
0 10 -2 152 152 152
0 9 -2 144 144 144
-0.5 9.5 -2 148 148 148
0 9 -2 144 144 144
0 10 -2 152 152 152
1 10 -2 152 152 152
1 9 -2 144 144 144
0.5 9.5 -2 148 148 148
1 9 -2 144 144 144
1 10 -2 152 152 152
2 10 -2 153 153 153
2 9 -2 139 139 139
1.5 9.5 -2 147 147 147
-3 8 -2 132 132 132
-3 9 -2 145 145 145
-2 9 -2 142 142 142
-2 8 -2 120 120 120
-2.5 8.5 -2 135 135 135
-2 7 -3 149 149 149
-2 8 -3 152 152 152
-1 8 -3 152 152 152
-1 7 -3 148 148 148
-1.5 7.5 -3 150 150 150
-3 7 -2 127 127 127
-3 8 -2 132 132 132
-2 8 -2 120 120 120
-2 7 -2 114 114 114
-2.5 7.5 -2 123 123 123
-3 6 -2 129 129 129
-3 7 -2 127 127 127
-2 7 -2 114 114 114
-2 6 -2 114 114 114
-2.5 6.5 -2 121 121 121
2 8 -2 116 116 116
2 9 -2 139 139 139
3 9 -2 143 143 143
3 8 -2 130 130 130
2.5 8.5 -2 132 132 132
2 7 -2 111 111 111
2 8 -2 116 116 116
3 8 -2 130 130 130
3 7 -2 124 124 124
2.5 7.5 -2 120 120 120
2 6 -2 112 112 112
2 7 -2 111 111 111
3 7 -2 124 124 124
3 6 -2 126 126 126
2.5 6.5 -2 118 118 118
-2 0 -1 23 23 23
-2 0 -2 23 23 23
-1 0 -2 23 23 23
-1 0 -1 23 23 23
-1.5 0 -1.5 23 23 23
-1 0 -1 23 23 23
-1 0 -2 23 23 23
0 0 -2 23 23 23
0 0 -1 23 23 23
-0.5 0 -1.5 23 23 23
0 0 -1 23 23 23
0 0 -2 23 23 23
1 0 -2 23 23 23
1 0 -1 23 23 23
0.5 0 -1.5 23 23 23
1 0 -1 23 23 23
1 0 -2 23 23 23
2 0 -2 23 23 23
2 0 -1 23 23 23
1.5 0 -1.5 23 23 23
1 0 -0 23 23 23
1 0 -1 23 23 23
2 0 -1 23 23 23
2 0 -0 23 23 23
1.5 0 -0.5 23 23 23
0 0 -0 23 23 23
0 0 -1 23 23 23
1 0 -1 23 23 23
1 0 -0 23 23 23
0.5 0 -0.5 23 23 23
-2 0 -0 23 23 23
-2 0 -1 23 23 23
-1 0 -1 23 23 23
-1 0 -0 23 23 23
-1.5 0 -0.5 23 23 23
-1 0 -0 23 23 23
-1 0 -1 23 23 23
0 0 -1 23 23 23
0 0 -0 23 23 23
-0.5 0 -0.5 23 23 23
1 0 1 1 1 1
1 0 -0 1 1 1
2 0 -0 1 1 1
2 0 1 1 1 1
1.5 0 0.5 1 1 1
0 0 1 23 23 23
0 0 -0 23 23 23
1 0 -0 23 23 23
1 0 1 23 23 23
0.5 0 0.5 23 23 23
-1 0 1 23 23 23
-1 0 -0 23 23 23
0 0 -0 23 23 23
0 0 1 23 23 23
-0.5 0 0.5 23 23 23
-2 0 1 1 1 1
-2 0 -0 1 1 1
-1 0 -0 1 1 1
-1 0 1 1 1 1
-1.5 0 0.5 1 1 1
-2 0 2 1 1 1
-2 0 1 1 1 1
-1 0 1 1 1 1
-1 0 2 1 1 1
-1.5 0 1.5 1 1 1
-2 0 3 1 1 1
-2 0 2 1 1 1
-1 0 2 1 1 1
-1 0 3 1 1 1
-1.5 0 2.5 1 1 1
1 0 2 1 1 1
1 0 1 1 1 1
2 0 1 1 1 1
2 0 2 1 1 1
1.5 0 1.5 1 1 1
1 0 3 1 1 1
1 0 2 1 1 1
2 0 2 1 1 1
2 0 3 1 1 1
1.5 0 2.5 1 1 1
-1 6 3 33 33 33
-1 6 2 32 32 32
0 6 2 31 31 31
0 6 3 33 33 33
-0.5 6 2.5 32 32 32
0 6 3 33 33 33
0 6 2 31 31 31
1 6 2 32 32 32
1 6 3 33 33 33
0.5 6 2.5 32 32 32
1 4 2 2 2 2
1 4 1 2 2 2
2 4 1 2 2 2
2 4 2 2 2 2
1.5 4 1.5 2 2 2
1 4 3 2 2 2
1 4 2 2 2 2
2 4 2 2 2 2
2 4 3 2 2 2
1.5 4 2.5 2 2 2
-2 4 2 2 2 2
-2 4 1 2 2 2
-1 4 1 2 2 2
-1 4 2 2 2 2
-1.5 4 1.5 2 2 2
-2 4 3 2 2 2
-2 4 2 2 2 2
-1 4 2 2 2 2
-1 4 3 2 2 2
-1.5 4 2.5 2 2 2
0 0 -2 23 23 23
0 0 -3 24 24 24
1 0 -3 24 24 24
1 0 -2 23 23 23
0.5 0 -2.5 23 23 23
-1 0 -2 23 23 23
-1 0 -3 23 23 23
0 0 -3 24 24 24
0 0 -2 23 23 23
-0.5 0 -2.5 23 23 23
1 6 -2 30 30 30
1 6 -3 31 31 31
2 6 -3 32 32 32
2 6 -2 31 31 31
1.5 6 -2.5 31 31 31
0 6 -2 30 30 30
0 6 -3 31 31 31
1 6 -3 31 31 31
1 6 -2 30 30 30
0.5 6 -2.5 30 30 30
-1 6 -2 31 31 31
-1 6 -3 31 31 31
0 6 -3 31 31 31
0 6 -2 30 30 30
-0.5 6 -2.5 31 31 31
-2 6 -2 32 32 32
-2 6 -3 33 33 33
-1 6 -3 31 31 31
-1 6 -2 31 31 31
-1.5 6 -2.5 32 32 32
-3 6 -1 32 32 32
-3 6 -2 33 33 33
-2 6 -2 32 32 32
-2 6 -1 31 31 31
-2.5 6 -1.5 32 32 32
-3 6 -0 32 32 32
-3 6 -1 32 32 32
-2 6 -1 31 31 31
-2 6 -0 31 31 31
-2.5 6 -0.5 32 32 32
-3 6 1 33 33 33
-3 6 -0 32 32 32
-2 6 -0 31 31 31
-2 6 1 32 32 32
-2.5 6 0.5 32 32 32
2 6 -1 30 30 30
2 6 -2 31 31 31
3 6 -2 32 32 32
3 6 -1 32 32 32
2.5 6 -1.5 31 31 31
1 6 2 32 32 32
1 6 1 31 31 31
2 6 1 31 31 31
2 6 2 32 32 32
1.5 6 1.5 32 32 32
0 6 2 31 31 31
0 6 1 31 31 31
1 6 1 31 31 31
1 6 2 32 32 32
0.5 6 1.5 31 31 31
-1 6 2 32 32 32
-1 6 1 31 31 31
0 6 1 31 31 31
0 6 2 31 31 31
-0.5 6 1.5 31 31 31
-2 6 2 32 32 32
-2 6 1 32 32 32
-1 6 1 31 31 31
-1 6 2 32 32 32
-1.5 6 1.5 32 32 32
2 6 -0 30 30 30
2 6 -1 30 30 30
3 6 -1 32 32 32
3 6 -0 31 31 31
2.5 6 -0.5 31 31 31
2 6 1 31 31 31
2 6 -0 30 30 30
3 6 -0 31 31 31
3 6 1 32 32 32
2.5 6 0.5 31 31 31
-2 0 -1 122 122 122
-2 1 -1 126 126 126
-2 1 -2 126 126 126
-2 0 -2 122 122 122
-2 0.5 -1.5 124 124 124
-2 0 -0 122 122 122
-2 1 -0 126 126 126
-2 1 -1 126 126 126
-2 0 -1 122 122 122
-2 0.5 -0.5 124 124 124
-2 0 1 8 8 8
-2 1 1 9 9 9
-2 1 -0 9 9 9
-2 0 -0 8 8 8
-2 0.5 0.5 8 8 8
-2 0 2 8 8 8
-2 1 2 9 9 9
-2 1 1 9 9 9
-2 0 1 8 8 8
-2 0.5 1.5 8 8 8
-2 0 3 8 8 8
-2 1 3 9 9 9
-2 1 2 9 9 9
-2 0 2 8 8 8
-2 0.5 2.5 8 8 8
1 0 2 5 5 5
1 1 2 5 5 5
1 1 1 4 4 4
1 0 1 4 4 4
1 0.5 1.5 4 4 4
1 0 3 6 6 6
1 1 3 6 6 6
1 1 2 5 5 5
1 0 2 5 5 5
1 0.5 2.5 5 5 5
-2 1 1 126 126 126
-2 2 1 129 129 129
-2 2 -0 129 129 129
-2 1 -0 126 126 126
-2 1.5 0.5 128 128 128
-2 1 -0 126 126 126
-2 2 -0 129 129 129
-2 2 -1 129 129 129
-2 1 -1 126 126 126
-2 1.5 -0.5 128 128 128
-2 1 -1 126 126 126
-2 2 -1 129 129 129
-2 2 -2 129 129 129
-2 1 -2 126 126 126
-2 1.5 -1.5 127 127 127
-1 6 3 124 124 124
-1 7 3 125 125 125
-1 7 2 114 114 114
-1 6 2 102 102 102
-1 6.5 2.5 116 116 116
-1 7 3 8 8 8
-1 8 3 9 9 9
-1 8 2 8 8 8
-1 7 2 8 8 8
-1 7.5 2.5 8 8 8
-3 10 -0 11 11 11
-3 11 -0 11 11 11
-3 11 -1 11 11 11
-3 10 -1 11 11 11
-3 10.5 -0.5 11 11 11
-3 9 -0 11 11 11
-3 10 -0 11 11 11
-3 10 -1 11 11 11
-3 9 -1 11 11 11
-3 9.5 -0.5 11 11 11
-2 2 1 129 129 129
-2 3 1 132 132 132
-2 3 -0 132 132 132
-2 2 -0 129 129 129
-2 2.5 0.5 131 131 131
-2 2 -0 129 129 129
-2 3 -0 132 132 132
-2 3 -1 132 132 132
-2 2 -1 129 129 129
-2 2.5 -0.5 131 131 131
-2 2 -1 129 129 129
-2 3 -1 132 132 132
-2 3 -2 132 132 132
-2 2 -2 129 129 129
-2 2.5 -1.5 131 131 131
-2 3 -0 132 132 132
-2 4 -0 131 131 131
-2 4 -1 131 131 131
-2 3 -1 132 132 132
-2 3.5 -0.5 131 131 131
-2 3 -1 132 132 132
-2 4 -1 131 131 131
-2 4 -2 134 134 134
-2 3 -2 132 132 132
-2 3.5 -1.5 132 132 132
-2 3 1 132 132 132
-2 4 1 133 133 133
-2 4 -0 131 131 131
-2 3 -0 132 132 132
-2 3.5 0.5 132 132 132
1 10 -0 9 9 9
1 11 -0 10 10 10
1 11 -1 10 10 10
1 10 -1 9 9 9
1 10.5 -0.5 9 9 9
-2 4 -0 9 9 9
-2 5 -0 8 8 8
-2 5 -1 8 8 8
-2 4 -1 9 9 9
-2 4.5 -0.5 8 8 8
-2 4 -1 9 9 9
-2 5 -1 8 8 8
-2 5 -2 8 8 8
-2 4 -2 9 9 9
-2 4.5 -1.5 9 9 9
-2 4 1 9 9 9
-2 5 1 8 8 8
-2 5 -0 8 8 8
-2 4 -0 9 9 9
-2 4.5 0.5 8 8 8
1 4 2 4 4 4
1 5 2 4 4 4
1 5 1 3 3 3
1 4 1 4 4 4
1 4.5 1.5 4 4 4
1 4 3 6 6 6
1 5 3 6 6 6
1 5 2 4 4 4
1 4 2 4 4 4
1 4.5 2.5 5 5 5
-2 4 2 9 9 9
-2 5 2 9 9 9
-2 5 1 8 8 8
-2 4 1 9 9 9
-2 4.5 1.5 9 9 9
-2 4 3 9 9 9
-2 5 3 9 9 9
-2 5 2 9 9 9
-2 4 2 9 9 9
-2 4.5 2.5 9 9 9
-1 0 -2 93 93 93
-1 1 -2 98 98 98
-1 1 -3 108 108 108
-1 0 -3 108 108 108
-1 0.5 -2.5 102 102 102
-1 1 -2 98 98 98
-1 2 -2 100 100 100
-1 2 -3 110 110 110
-1 1 -3 108 108 108
-1 1.5 -2.5 104 104 104
-2 5 -0 113 113 113
-2 6 -0 97 97 97
-2 6 -1 98 98 98
-2 5 -1 114 114 114
-2 5.5 -0.5 105 105 105
-2 5 1 123 123 123
-2 6 1 113 113 113
-2 6 -0 97 97 97
-2 5 -0 113 113 113
-2 5.5 0.5 111 111 111
-2 5 -1 114 114 114
-2 6 -1 98 98 98
-2 6 -2 115 115 115
-2 5 -2 125 125 125
-2 5.5 -1.5 113 113 113
-2 8 -2 121 121 121
-2 9 -2 129 129 129
-2 9 -3 144 144 144
-2 8 -3 134 134 134
-2 8.5 -2.5 132 132 132
-2 6 -2 115 115 115
-2 7 -2 116 116 116
-2 7 -3 129 129 129
-2 6 -3 131 131 131
-2 6.5 -2.5 123 123 123
-2 9 -1 116 116 116
-2 10 -1 124 124 124
-2 10 -2 137 137 137
-2 9 -2 129 129 129
-2 9.5 -1.5 127 127 127
-2 9 1 128 128 128
-2 10 1 137 137 137
-2 10 -0 122 122 122
-2 9 -0 115 115 115
-2 9.5 0.5 126 126 126
-3 8 -1 155 155 155
-3 9 -1 158 158 158
-3 9 -2 158 158 158
-3 8 -2 155 155 155
-3 8.5 -1.5 156 156 156
-3 8 -0 155 155 155
-3 9 -0 158 158 158
-3 9 -1 158 158 158
-3 8 -1 155 155 155
-3 8.5 -0.5 156 156 156
-3 8 1 155 155 155
-3 9 1 158 158 158
-3 9 -0 158 158 158
-3 8 -0 155 155 155
-3 8.5 0.5 156 156 156
-3 7 1 151 151 151
-3 8 1 155 155 155
-3 8 -0 155 155 155
-3 7 -0 151 151 151
-3 7.5 0.5 153 153 153
-3 7 -0 151 151 151
-3 8 -0 155 155 155
-3 8 -1 155 155 155
-3 7 -1 151 151 151
-3 7.5 -0.5 153 153 153
-2 7 -2 116 116 116
-2 8 -2 121 121 121
-2 8 -3 134 134 134
-2 7 -3 129 129 129
-2 7.5 -2.5 125 125 125
-3 7 -1 151 151 151
-3 8 -1 155 155 155
-3 8 -2 155 155 155
-3 7 -2 151 151 151
-3 7.5 -1.5 153 153 153
-3 6 -1 147 147 147
-3 7 -1 151 151 151
-3 7 -2 151 151 151
-3 6 -2 148 148 148
-3 6.5 -1.5 149 149 149
-3 6 -0 147 147 147
-3 7 -0 151 151 151
-3 7 -1 151 151 151
-3 6 -1 147 147 147
-3 6.5 -0.5 149 149 149
-3 6 1 147 147 147
-3 7 1 151 151 151
-3 7 -0 151 151 151
-3 6 -0 147 147 147
-3 6.5 0.5 149 149 149
-2 6 2 129 129 129
-2 7 2 127 127 127
-2 7 1 115 115 115
-2 6 1 113 113 113
-2 6.5 1.5 121 121 121
-2 7 2 9 9 9
-2 8 2 9 9 9
-2 8 1 8 8 8
-2 7 1 8 8 8
-2 7.5 1.5 8 8 8
-2 8 2 9 9 9
-2 9 2 10 10 10
-2 9 1 9 9 9
-2 8 1 8 8 8
-2 8.5 1.5 9 9 9
0 0 1 90 90 90
1 0 1 82 82 82
1 1 1 112 112 112
0 1 1 105 105 105
0.5 0.5 1 97 97 97
-1 0 1 85 85 85
0 0 1 90 90 90
0 1 1 105 105 105
-1 1 1 111 111 111
-0.5 0.5 1 98 98 98
-2 0 3 9 9 9
-1 0 3 8 8 8
-1 1 3 9 9 9
-2 1 3 9 9 9
-1.5 0.5 3 9 9 9
1 0 3 8 8 8
2 0 3 8 8 8
2 1 3 9 9 9
1 1 3 9 9 9
1.5 0.5 3 9 9 9
0 1 1 105 105 105
1 1 1 112 112 112
1 2 1 118 118 118
0 2 1 116 116 116
0.5 1.5 1 113 113 113
-1 1 1 111 111 111
0 1 1 105 105 105
0 2 1 116 116 116
-1 2 1 118 118 118
-0.5 1.5 1 112 112 112
-2 1 1 115 115 115
-1 1 1 111 111 111
-1 2 1 118 118 118
-2 2 1 120 120 120
-1.5 1.5 1 116 116 116
-1 6 3 154 154 154
0 6 3 153 153 153
0 7 3 157 157 157
-1 7 3 157 157 157
-0.5 6.5 3 155 155 155
0 6 3 153 153 153
1 6 3 153 153 153
1 7 3 157 157 157
0 7 3 157 157 157
0.5 6.5 3 155 155 155
0 7 3 11 11 11
1 7 3 11 11 11
1 8 3 11 11 11
0 8 3 11 11 11
0.5 7.5 3 11 11 11
1 1 1 112 112 112
2 1 1 119 119 119
2 2 1 124 124 124
1 2 1 118 118 118
1.5 1.5 1 118 118 118
-1 7 3 11 11 11
0 7 3 11 11 11
0 8 3 11 11 11
-1 8 3 11 11 11
-0.5 7.5 3 11 11 11
1 2 1 118 118 118
2 2 1 124 124 124
2 3 1 115 115 115
1 3 1 105 105 105
1.5 2.5 1 116 116 116
0 2 1 116 116 116
1 2 1 118 118 118
1 3 1 105 105 105
0 3 1 107 107 107
0.5 2.5 1 111 111 111
-3 10 -0 10 10 10
-2 10 -0 10 10 10
-2 11 -0 11 11 11
-3 11 -0 11 11 11
-2.5 10.5 -0 11 11 11
-3 9 -0 9 9 9
-2 9 -0 9 9 9
-2 10 -0 10 10 10
-3 10 -0 10 10 10
-2.5 9.5 -0 10 10 10
-1 2 1 118 118 118
0 2 1 116 116 116
0 3 1 107 107 107
-1 3 1 105 105 105
-0.5 2.5 1 111 111 111
-2 2 1 120 120 120
-1 2 1 118 118 118
-1 3 1 105 105 105
-2 3 1 109 109 109
-1.5 2.5 1 113 113 113
-2 10 -0 10 10 10
-1 10 -0 11 11 11
-1 11 -0 11 11 11
-2 11 -0 11 11 11
-1.5 10.5 -0 11 11 11
-1 3 1 105 105 105
0 3 1 107 107 107
0 4 1 90 90 90
-1 4 1 90 90 90
-0.5 3.5 1 98 98 98
2 10 -0 10 10 10
3 10 -0 10 10 10
3 11 -0 11 11 11
2 11 -0 11 11 11
2.5 10.5 -0 11 11 11
-2 3 1 109 109 109
-1 3 1 105 105 105
-1 4 1 90 90 90
-2 4 1 102 102 102
-1.5 3.5 1 101 101 101
0 3 1 107 107 107
1 3 1 105 105 105
1 4 1 90 90 90
0 4 1 90 90 90
0.5 3.5 1 98 98 98
1 3 1 105 105 105
2 3 1 115 115 115
2 4 1 110 110 110
1 4 1 90 90 90
1.5 3.5 1 105 105 105
1 10 -0 10 10 10
2 10 -0 10 10 10
2 11 -0 11 11 11
1 11 -0 11 11 11
1.5 10.5 -0 11 11 11
0 4 1 6 6 6
1 4 1 6 6 6
1 5 1 5 5 5
0 5 1 5 5 5
0.5 4.5 1 6 6 6
2 9 -0 9 9 9
3 9 -0 9 9 9
3 10 -0 10 10 10
2 10 -0 10 10 10
2.5 9.5 -0 10 10 10
-1 4 1 6 6 6
0 4 1 6 6 6
0 5 1 5 5 5
-1 5 1 5 5 5
-0.5 4.5 1 6 6 6
1 4 3 10 10 10
2 4 3 10 10 10
2 5 3 10 10 10
1 5 3 10 10 10
1.5 4.5 3 10 10 10
-2 4 3 10 10 10
-1 4 3 10 10 10
-1 5 3 10 10 10
-2 5 3 10 10 10
-1.5 4.5 3 10 10 10
1 5 1 83 83 83
2 5 1 112 112 112
2 6 1 115 115 115
1 6 1 85 85 85
1.5 5.5 1 99 99 99
0 5 1 79 79 79
1 5 1 83 83 83
1 6 1 85 85 85
0 6 1 79 79 79
0.5 5.5 1 81 81 81
-1 5 1 83 83 83
0 5 1 79 79 79
0 6 1 79 79 79
-1 6 1 85 85 85
-0.5 5.5 1 81 81 81
-2 5 1 105 105 105
-1 5 1 83 83 83
-1 6 1 85 85 85
-2 6 1 108 108 108
-1.5 5.5 1 95 95 95
1 9 1 152 152 152
2 9 1 148 148 148
2 10 1 162 162 162
1 10 1 160 160 160
1.5 9.5 1 155 155 155
0 9 1 151 151 151
1 9 1 152 152 152
1 10 1 160 160 160
0 10 1 160 160 160
0.5 9.5 1 156 156 156
-1 9 1 153 153 153
0 9 1 151 151 151
0 10 1 160 160 160
-1 10 1 160 160 160
-0.5 9.5 1 156 156 156
-2 9 1 148 148 148
-1 9 1 153 153 153
-1 10 1 160 160 160
-2 10 1 162 162 162
-1.5 9.5 1 156 156 156
-3 8 1 137 137 137
-2 8 1 123 123 123
-2 9 1 148 148 148
-3 9 1 152 152 152
-2.5 8.5 1 140 140 140
-3 7 1 129 129 129
-2 7 1 113 113 113
-2 8 1 123 123 123
-3 8 1 137 137 137
-2.5 7.5 1 126 126 126
-3 6 1 128 128 128
-2 6 1 108 108 108
-2 7 1 113 113 113
-3 7 1 129 129 129
-2.5 6.5 1 120 120 120
2 8 1 129 129 129
3 8 1 139 139 139
3 9 1 152 152 152
2 9 1 148 148 148
2.5 8.5 1 142 142 142
2 7 1 124 124 124
3 7 1 134 134 134
3 8 1 139 139 139
2 8 1 129 129 129
2.5 7.5 1 132 132 132
1 6 2 119 119 119
2 6 2 136 136 136
2 7 2 138 138 138
1 7 2 128 128 128
1.5 6.5 2 130 130 130
-2 6 2 132 132 132
-1 6 2 112 112 112
-1 7 2 121 121 121
-2 7 2 136 136 136
-1.5 6.5 2 125 125 125
-2 7 2 9 9 9
-1 7 2 8 8 8
-1 8 2 10 10 10
-2 8 2 10 10 10
-1.5 7.5 2 9 9 9
2 6 1 115 115 115
3 6 1 134 134 134
3 7 1 134 134 134
2 7 1 124 124 124
2.5 6.5 1 127 127 127
1 7 2 9 9 9
2 7 2 9 9 9
2 8 2 10 10 10
1 8 2 10 10 10
1.5 7.5 2 10 10 10
0 8 2 152 152 152
1 8 2 147 147 147
1 9 2 159 159 159
0 9 2 158 158 158
0.5 8.5 2 154 154 154
-1 8 2 147 147 147
0 8 2 152 152 152
0 9 2 158 158 158
-1 9 2 160 160 160
-0.5 8.5 2 154 154 154
-2 8 2 10 10 10
-1 8 2 10 10 10
-1 9 2 11 11 11
-2 9 2 11 11 11
-1.5 8.5 2 11 11 11
1 8 2 10 10 10
2 8 2 10 10 10
2 9 2 11 11 11
1 9 2 11 11 11
1.5 8.5 2 11 11 11
3 4 0 1
3 4 1 2
3 4 2 3
3 4 3 0
3 9 5 6
3 9 6 7
3 9 7 8
3 9 8 5
3 14 10 11
3 14 11 12
3 14 12 13
3 14 13 10
3 19 15 16
3 19 16 17
3 19 17 18
3 19 18 15
3 24 20 21
3 24 21 22
3 24 22 23
3 24 23 20
3 29 25 26
3 29 26 27
3 29 27 28
3 29 28 25
3 34 30 31
3 34 31 32
3 34 32 33
3 34 33 30
3 39 35 36
3 39 36 37
3 39 37 38
3 39 38 35
3 44 40 41
3 44 41 42
3 44 42 43
3 44 43 40
3 49 45 46
3 49 46 47
3 49 47 48
3 49 48 45
3 54 50 51
3 54 51 52
3 54 52 53
3 54 53 50
3 59 55 56
3 59 56 57
3 59 57 58
3 59 58 55
3 64 60 61
3 64 61 62
3 64 62 63
3 64 63 60
3 69 65 66
3 69 66 67
3 69 67 68
3 69 68 65
3 74 70 71
3 74 71 72
3 74 72 73
3 74 73 70
3 79 75 76
3 79 76 77
3 79 77 78
3 79 78 75
3 84 80 81
3 84 81 82
3 84 82 83
3 84 83 80
3 89 85 86
3 89 86 87
3 89 87 88
3 89 88 85
3 94 90 91
3 94 91 92
3 94 92 93
3 94 93 90
3 99 95 96
3 99 96 97
3 99 97 98
3 99 98 95
3 104 100 101
3 104 101 102
3 104 102 103
3 104 103 100
3 109 105 106
3 109 106 107
3 109 107 108
3 109 108 105
3 114 110 111
3 114 111 112
3 114 112 113
3 114 113 110
3 119 115 116
3 119 116 117
3 119 117 118
3 119 118 115
3 124 120 121
3 124 121 122
3 124 122 123
3 124 123 120
3 129 125 126
3 129 126 127
3 129 127 128
3 129 128 125
3 134 130 131
3 134 131 132
3 134 132 133
3 134 133 130
3 139 135 136
3 139 136 137
3 139 137 138
3 139 138 135
3 144 140 141
3 144 141 142
3 144 142 143
3 144 143 140
3 149 145 146
3 149 146 147
3 149 147 148
3 149 148 145
3 154 150 151
3 154 151 152
3 154 152 153
3 154 153 150
3 159 155 156
3 159 156 157
3 159 157 158
3 159 158 155
3 164 160 161
3 164 161 162
3 164 162 163
3 164 163 160
3 169 165 166
3 169 166 167
3 169 167 168
3 169 168 165
3 174 170 171
3 174 171 172
3 174 172 173
3 174 173 170
3 179 175 176
3 179 176 177
3 179 177 178
3 179 178 175
3 184 180 181
3 184 181 182
3 184 182 183
3 184 183 180
3 189 185 186
3 189 186 187
3 189 187 188
3 189 188 185
3 194 190 191
3 194 191 192
3 194 192 193
3 194 193 190
3 199 195 196
3 199 196 197
3 199 197 198
3 199 198 195
3 204 200 201
3 204 201 202
3 204 202 203
3 204 203 200
3 209 205 206
3 209 206 207
3 209 207 208
3 209 208 205
3 214 210 211
3 214 211 212
3 214 212 213
3 214 213 210
3 219 215 216
3 219 216 217
3 219 217 218
3 219 218 215
3 224 220 221
3 224 221 222
3 224 222 223
3 224 223 220
3 229 225 226
3 229 226 227
3 229 227 228
3 229 228 225
3 234 230 231
3 234 231 232
3 234 232 233
3 234 233 230
3 239 235 236
3 239 236 237
3 239 237 238
3 239 238 235
3 244 240 241
3 244 241 242
3 244 242 243
3 244 243 240
3 249 245 246
3 249 246 247
3 249 247 248
3 249 248 245
3 254 250 251
3 254 251 252
3 254 252 253
3 254 253 250
3 259 255 256
3 259 256 257
3 259 257 258
3 259 258 255
3 264 260 261
3 264 261 262
3 264 262 263
3 264 263 260
3 269 265 266
3 269 266 267
3 269 267 268
3 269 268 265
3 274 270 271
3 274 271 272
3 274 272 273
3 274 273 270
3 279 275 276
3 279 276 277
3 279 277 278
3 279 278 275
3 284 280 281
3 284 281 282
3 284 282 283
3 284 283 280
3 289 285 286
3 289 286 287
3 289 287 288
3 289 288 285
3 294 290 291
3 294 291 292
3 294 292 293
3 294 293 290
3 299 295 296
3 299 296 297
3 299 297 298
3 299 298 295
3 304 300 301
3 304 301 302
3 304 302 303
3 304 303 300
3 309 305 306
3 309 306 307
3 309 307 308
3 309 308 305
3 314 310 311
3 314 311 312
3 314 312 313
3 314 313 310
3 319 315 316
3 319 316 317
3 319 317 318
3 319 318 315
3 324 320 321
3 324 321 322
3 324 322 323
3 324 323 320
3 329 325 326
3 329 326 327
3 329 327 328
3 329 328 325
3 334 330 331
3 334 331 332
3 334 332 333
3 334 333 330
3 339 335 336
3 339 336 337
3 339 337 338
3 339 338 335
3 344 340 341
3 344 341 342
3 344 342 343
3 344 343 340
3 349 345 346
3 349 346 347
3 349 347 348
3 349 348 345
3 354 350 351
3 354 351 352
3 354 352 353
3 354 353 350
3 359 355 356
3 359 356 357
3 359 357 358
3 359 358 355
3 364 360 361
3 364 361 362
3 364 362 363
3 364 363 360
3 369 365 366
3 369 366 367
3 369 367 368
3 369 368 365
3 374 370 371
3 374 371 372
3 374 372 373
3 374 373 370
3 379 375 376
3 379 376 377
3 379 377 378
3 379 378 375
3 384 380 381
3 384 381 382
3 384 382 383
3 384 383 380
3 389 385 386
3 389 386 387
3 389 387 388
3 389 388 385
3 394 390 391
3 394 391 392
3 394 392 393
3 394 393 390
3 399 395 396
3 399 396 397
3 399 397 398
3 399 398 395
3 404 400 401
3 404 401 402
3 404 402 403
3 404 403 400
3 409 405 406
3 409 406 407
3 409 407 408
3 409 408 405
3 414 410 411
3 414 411 412
3 414 412 413
3 414 413 410
3 419 415 416
3 419 416 417
3 419 417 418
3 419 418 415
3 424 420 421
3 424 421 422
3 424 422 423
3 424 423 420
3 429 425 426
3 429 426 427
3 429 427 428
3 429 428 425
3 434 430 431
3 434 431 432
3 434 432 433
3 434 433 430
3 439 435 436
3 439 436 437
3 439 437 438
3 439 438 435
3 444 440 441
3 444 441 442
3 444 442 443
3 444 443 440
3 449 445 446
3 449 446 447
3 449 447 448
3 449 448 445
3 454 450 451
3 454 451 452
3 454 452 453
3 454 453 450
3 459 455 456
3 459 456 457
3 459 457 458
3 459 458 455
3 464 460 461
3 464 461 462
3 464 462 463
3 464 463 460
3 469 465 466
3 469 466 467
3 469 467 468
3 469 468 465
3 474 470 471
3 474 471 472
3 474 472 473
3 474 473 470
3 479 475 476
3 479 476 477
3 479 477 478
3 479 478 475
3 484 480 481
3 484 481 482
3 484 482 483
3 484 483 480
3 489 485 486
3 489 486 487
3 489 487 488
3 489 488 485
3 494 490 491
3 494 491 492
3 494 492 493
3 494 493 490
3 499 495 496
3 499 496 497
3 499 497 498
3 499 498 495
3 504 500 501
3 504 501 502
3 504 502 503
3 504 503 500
3 509 505 506
3 509 506 507
3 509 507 508
3 509 508 505
3 514 510 511
3 514 511 512
3 514 512 513
3 514 513 510
3 519 515 516
3 519 516 517
3 519 517 518
3 519 518 515
3 524 520 521
3 524 521 522
3 524 522 523
3 524 523 520
3 529 525 526
3 529 526 527
3 529 527 528
3 529 528 525
3 534 530 531
3 534 531 532
3 534 532 533
3 534 533 530
3 539 535 536
3 539 536 537
3 539 537 538
3 539 538 535
3 544 540 541
3 544 541 542
3 544 542 543
3 544 543 540
3 549 545 546
3 549 546 547
3 549 547 548
3 549 548 545
3 554 550 551
3 554 551 552
3 554 552 553
3 554 553 550
3 559 555 556
3 559 556 557
3 559 557 558
3 559 558 555
3 564 560 561
3 564 561 562
3 564 562 563
3 564 563 560
3 569 565 566
3 569 566 567
3 569 567 568
3 569 568 565
3 574 570 571
3 574 571 572
3 574 572 573
3 574 573 570
3 579 575 576
3 579 576 577
3 579 577 578
3 579 578 575
3 584 580 581
3 584 581 582
3 584 582 583
3 584 583 580
3 589 585 586
3 589 586 587
3 589 587 588
3 589 588 585
3 594 590 591
3 594 591 592
3 594 592 593
3 594 593 590
3 599 595 596
3 599 596 597
3 599 597 598
3 599 598 595
3 604 600 601
3 604 601 602
3 604 602 603
3 604 603 600
3 609 605 606
3 609 606 607
3 609 607 608
3 609 608 605
3 614 610 611
3 614 611 612
3 614 612 613
3 614 613 610
3 619 615 616
3 619 616 617
3 619 617 618
3 619 618 615
3 624 620 621
3 624 621 622
3 624 622 623
3 624 623 620
3 629 625 626
3 629 626 627
3 629 627 628
3 629 628 625
3 634 630 631
3 634 631 632
3 634 632 633
3 634 633 630
3 639 635 636
3 639 636 637
3 639 637 638
3 639 638 635
3 644 640 641
3 644 641 642
3 644 642 643
3 644 643 640
3 649 645 646
3 649 646 647
3 649 647 648
3 649 648 645
3 654 650 651
3 654 651 652
3 654 652 653
3 654 653 650
3 659 655 656
3 659 656 657
3 659 657 658
3 659 658 655
3 664 660 661
3 664 661 662
3 664 662 663
3 664 663 660
3 669 665 666
3 669 666 667
3 669 667 668
3 669 668 665
3 674 670 671
3 674 671 672
3 674 672 673
3 674 673 670
3 679 675 676
3 679 676 677
3 679 677 678
3 679 678 675
3 684 680 681
3 684 681 682
3 684 682 683
3 684 683 680
3 689 685 686
3 689 686 687
3 689 687 688
3 689 688 685
3 694 690 691
3 694 691 692
3 694 692 693
3 694 693 690
3 699 695 696
3 699 696 697
3 699 697 698
3 699 698 695
3 704 700 701
3 704 701 702
3 704 702 703
3 704 703 700
3 709 705 706
3 709 706 707
3 709 707 708
3 709 708 705
3 714 710 711
3 714 711 712
3 714 712 713
3 714 713 710
3 719 715 716
3 719 716 717
3 719 717 718
3 719 718 715
3 724 720 721
3 724 721 722
3 724 722 723
3 724 723 720
3 729 725 726
3 729 726 727
3 729 727 728
3 729 728 725
3 734 730 731
3 734 731 732
3 734 732 733
3 734 733 730
3 739 735 736
3 739 736 737
3 739 737 738
3 739 738 735
3 744 740 741
3 744 741 742
3 744 742 743
3 744 743 740
3 749 745 746
3 749 746 747
3 749 747 748
3 749 748 745
3 754 750 751
3 754 751 752
3 754 752 753
3 754 753 750
3 759 755 756
3 759 756 757
3 759 757 758
3 759 758 755
3 764 760 761
3 764 761 762
3 764 762 763
3 764 763 760
3 769 765 766
3 769 766 767
3 769 767 768
3 769 768 765
3 774 770 771
3 774 771 772
3 774 772 773
3 774 773 770
3 779 775 776
3 779 776 777
3 779 777 778
3 779 778 775
3 784 780 781
3 784 781 782
3 784 782 783
3 784 783 780
3 789 785 786
3 789 786 787
3 789 787 788
3 789 788 785
3 794 790 791
3 794 791 792
3 794 792 793
3 794 793 790
3 799 795 796
3 799 796 797
3 799 797 798
3 799 798 795
3 804 800 801
3 804 801 802
3 804 802 803
3 804 803 800
3 809 805 806
3 809 806 807
3 809 807 808
3 809 808 805
3 814 810 811
3 814 811 812
3 814 812 813
3 814 813 810
3 819 815 816
3 819 816 817
3 819 817 818
3 819 818 815
3 824 820 821
3 824 821 822
3 824 822 823
3 824 823 820
3 829 825 826
3 829 826 827
3 829 827 828
3 829 828 825
3 834 830 831
3 834 831 832
3 834 832 833
3 834 833 830
3 839 835 836
3 839 836 837
3 839 837 838
3 839 838 835
3 844 840 841
3 844 841 842
3 844 842 843
3 844 843 840
3 849 845 846
3 849 846 847
3 849 847 848
3 849 848 845
3 854 850 851
3 854 851 852
3 854 852 853
3 854 853 850
3 859 855 856
3 859 856 857
3 859 857 858
3 859 858 855
3 864 860 861
3 864 861 862
3 864 862 863
3 864 863 860
3 869 865 866
3 869 866 867
3 869 867 868
3 869 868 865
3 874 870 871
3 874 871 872
3 874 872 873
3 874 873 870
3 879 875 876
3 879 876 877
3 879 877 878
3 879 878 875
3 884 880 881
3 884 881 882
3 884 882 883
3 884 883 880
3 889 885 886
3 889 886 887
3 889 887 888
3 889 888 885
3 894 890 891
3 894 891 892
3 894 892 893
3 894 893 890
3 899 895 896
3 899 896 897
3 899 897 898
3 899 898 895
3 904 900 901
3 904 901 902
3 904 902 903
3 904 903 900
3 909 905 906
3 909 906 907
3 909 907 908
3 909 908 905
3 914 910 911
3 914 911 912
3 914 912 913
3 914 913 910
3 919 915 916
3 919 916 917
3 919 917 918
3 919 918 915
3 924 920 921
3 924 921 922
3 924 922 923
3 924 923 920
3 929 925 926
3 929 926 927
3 929 927 928
3 929 928 925
3 934 930 931
3 934 931 932
3 934 932 933
3 934 933 930
3 939 935 936
3 939 936 937
3 939 937 938
3 939 938 935
3 944 940 941
3 944 941 942
3 944 942 943
3 944 943 940
3 949 945 946
3 949 946 947
3 949 947 948
3 949 948 945
3 954 950 951
3 954 951 952
3 954 952 953
3 954 953 950
3 959 955 956
3 959 956 957
3 959 957 958
3 959 958 955
3 964 960 961
3 964 961 962
3 964 962 963
3 964 963 960
3 969 965 966
3 969 966 967
3 969 967 968
3 969 968 965
3 974 970 971
3 974 971 972
3 974 972 973
3 974 973 970
3 979 975 976
3 979 976 977
3 979 977 978
3 979 978 975
3 984 980 981
3 984 981 982
3 984 982 983
3 984 983 980
3 989 985 986
3 989 986 987
3 989 987 988
3 989 988 985
3 994 990 991
3 994 991 992
3 994 992 993
3 994 993 990
3 999 995 996
3 999 996 997
3 999 997 998
3 999 998 995
3 1004 1000 1001
3 1004 1001 1002
3 1004 1002 1003
3 1004 1003 1000
3 1009 1005 1006
3 1009 1006 1007
3 1009 1007 1008
3 1009 1008 1005
3 1014 1010 1011
3 1014 1011 1012
3 1014 1012 1013
3 1014 1013 1010
3 1019 1015 1016
3 1019 1016 1017
3 1019 1017 1018
3 1019 1018 1015
3 1024 1020 1021
3 1024 1021 1022
3 1024 1022 1023
3 1024 1023 1020
3 1029 1025 1026
3 1029 1026 1027
3 1029 1027 1028
3 1029 1028 1025
3 1034 1030 1031
3 1034 1031 1032
3 1034 1032 1033
3 1034 1033 1030
3 1039 1035 1036
3 1039 1036 1037
3 1039 1037 1038
3 1039 1038 1035
3 1044 1040 1041
3 1044 1041 1042
3 1044 1042 1043
3 1044 1043 1040
3 1049 1045 1046
3 1049 1046 1047
3 1049 1047 1048
3 1049 1048 1045
3 1054 1050 1051
3 1054 1051 1052
3 1054 1052 1053
3 1054 1053 1050
3 1059 1055 1056
3 1059 1056 1057
3 1059 1057 1058
3 1059 1058 1055
3 1064 1060 1061
3 1064 1061 1062
3 1064 1062 1063
3 1064 1063 1060
3 1069 1065 1066
3 1069 1066 1067
3 1069 1067 1068
3 1069 1068 1065
3 1074 1070 1071
3 1074 1071 1072
3 1074 1072 1073
3 1074 1073 1070
3 1079 1075 1076
3 1079 1076 1077
3 1079 1077 1078
3 1079 1078 1075
3 1084 1080 1081
3 1084 1081 1082
3 1084 1082 1083
3 1084 1083 1080
3 1089 1085 1086
3 1089 1086 1087
3 1089 1087 1088
3 1089 1088 1085
3 1094 1090 1091
3 1094 1091 1092
3 1094 1092 1093
3 1094 1093 1090
3 1099 1095 1096
3 1099 1096 1097
3 1099 1097 1098
3 1099 1098 1095
3 1104 1100 1101
3 1104 1101 1102
3 1104 1102 1103
3 1104 1103 1100
3 1109 1105 1106
3 1109 1106 1107
3 1109 1107 1108
3 1109 1108 1105
3 1114 1110 1111
3 1114 1111 1112
3 1114 1112 1113
3 1114 1113 1110
3 1119 1115 1116
3 1119 1116 1117
3 1119 1117 1118
3 1119 1118 1115
3 1124 1120 1121
3 1124 1121 1122
3 1124 1122 1123
3 1124 1123 1120
3 1129 1125 1126
3 1129 1126 1127
3 1129 1127 1128
3 1129 1128 1125
3 1134 1130 1131
3 1134 1131 1132
3 1134 1132 1133
3 1134 1133 1130
3 1139 1135 1136
3 1139 1136 1137
3 1139 1137 1138
3 1139 1138 1135
3 1144 1140 1141
3 1144 1141 1142
3 1144 1142 1143
3 1144 1143 1140
3 1149 1145 1146
3 1149 1146 1147
3 1149 1147 1148
3 1149 1148 1145
3 1154 1150 1151
3 1154 1151 1152
3 1154 1152 1153
3 1154 1153 1150
3 1159 1155 1156
3 1159 1156 1157
3 1159 1157 1158
3 1159 1158 1155
3 1164 1160 1161
3 1164 1161 1162
3 1164 1162 1163
3 1164 1163 1160
3 1169 1165 1166
3 1169 1166 1167
3 1169 1167 1168
3 1169 1168 1165
3 1174 1170 1171
3 1174 1171 1172
3 1174 1172 1173
3 1174 1173 1170
3 1179 1175 1176
3 1179 1176 1177
3 1179 1177 1178
3 1179 1178 1175
3 1184 1180 1181
3 1184 1181 1182
3 1184 1182 1183
3 1184 1183 1180
3 1189 1185 1186
3 1189 1186 1187
3 1189 1187 1188
3 1189 1188 1185
3 1194 1190 1191
3 1194 1191 1192
3 1194 1192 1193
3 1194 1193 1190
3 1199 1195 1196
3 1199 1196 1197
3 1199 1197 1198
3 1199 1198 1195
3 1204 1200 1201
3 1204 1201 1202
3 1204 1202 1203
3 1204 1203 1200
3 1209 1205 1206
3 1209 1206 1207
3 1209 1207 1208
3 1209 1208 1205
3 1214 1210 1211
3 1214 1211 1212
3 1214 1212 1213
3 1214 1213 1210
3 1219 1215 1216
3 1219 1216 1217
3 1219 1217 1218
3 1219 1218 1215
3 1224 1220 1221
3 1224 1221 1222
3 1224 1222 1223
3 1224 1223 1220
3 1229 1225 1226
3 1229 1226 1227
3 1229 1227 1228
3 1229 1228 1225
3 1234 1230 1231
3 1234 1231 1232
3 1234 1232 1233
3 1234 1233 1230
3 1239 1235 1236
3 1239 1236 1237
3 1239 1237 1238
3 1239 1238 1235
3 1244 1240 1241
3 1244 1241 1242
3 1244 1242 1243
3 1244 1243 1240
3 1249 1245 1246
3 1249 1246 1247
3 1249 1247 1248
3 1249 1248 1245
3 1254 1250 1251
3 1254 1251 1252
3 1254 1252 1253
3 1254 1253 1250
3 1259 1255 1256
3 1259 1256 1257
3 1259 1257 1258
3 1259 1258 1255
3 1264 1260 1261
3 1264 1261 1262
3 1264 1262 1263
3 1264 1263 1260
3 1269 1265 1266
3 1269 1266 1267
3 1269 1267 1268
3 1269 1268 1265
3 1274 1270 1271
3 1274 1271 1272
3 1274 1272 1273
3 1274 1273 1270
3 1279 1275 1276
3 1279 1276 1277
3 1279 1277 1278
3 1279 1278 1275
3 1284 1280 1281
3 1284 1281 1282
3 1284 1282 1283
3 1284 1283 1280
3 1289 1285 1286
3 1289 1286 1287
3 1289 1287 1288
3 1289 1288 1285
3 1294 1290 1291
3 1294 1291 1292
3 1294 1292 1293
3 1294 1293 1290
3 1299 1295 1296
3 1299 1296 1297
3 1299 1297 1298
3 1299 1298 1295
3 1304 1300 1301
3 1304 1301 1302
3 1304 1302 1303
3 1304 1303 1300
3 1309 1305 1306
3 1309 1306 1307
3 1309 1307 1308
3 1309 1308 1305
3 1314 1310 1311
3 1314 1311 1312
3 1314 1312 1313
3 1314 1313 1310
3 1319 1315 1316
3 1319 1316 1317
3 1319 1317 1318
3 1319 1318 1315
3 1324 1320 1321
3 1324 1321 1322
3 1324 1322 1323
3 1324 1323 1320
3 1329 1325 1326
3 1329 1326 1327
3 1329 1327 1328
3 1329 1328 1325
3 1334 1330 1331
3 1334 1331 1332
3 1334 1332 1333
3 1334 1333 1330
3 1339 1335 1336
3 1339 1336 1337
3 1339 1337 1338
3 1339 1338 1335
3 1344 1340 1341
3 1344 1341 1342
3 1344 1342 1343
3 1344 1343 1340
3 1349 1345 1346
3 1349 1346 1347
3 1349 1347 1348
3 1349 1348 1345
3 1354 1350 1351
3 1354 1351 1352
3 1354 1352 1353
3 1354 1353 1350
3 1359 1355 1356
3 1359 1356 1357
3 1359 1357 1358
3 1359 1358 1355
3 1364 1360 1361
3 1364 1361 1362
3 1364 1362 1363
3 1364 1363 1360
3 1369 1365 1366
3 1369 1366 1367
3 1369 1367 1368
3 1369 1368 1365
3 1374 1370 1371
3 1374 1371 1372
3 1374 1372 1373
3 1374 1373 1370
3 1379 1375 1376
3 1379 1376 1377
3 1379 1377 1378
3 1379 1378 1375
3 1384 1380 1381
3 1384 1381 1382
3 1384 1382 1383
3 1384 1383 1380
3 1389 1385 1386
3 1389 1386 1387
3 1389 1387 1388
3 1389 1388 1385
3 1394 1390 1391
3 1394 1391 1392
3 1394 1392 1393
3 1394 1393 1390
3 1399 1395 1396
3 1399 1396 1397
3 1399 1397 1398
3 1399 1398 1395
