ply
format ascii 1.0
comment : item004
comment : MagicaVoxel @ ephtracy
element vertex 610
property float x
property float y
property float z
property uchar red
property uchar green
property uchar blue
element face 488
property list uchar int vertex_index
end_header
-3 3 2 162 153 107
-2 3 2 146 137 96
-2 3 1 138 130 91
-3 3 1 157 148 104
-2.5 3 1.5 150 142 100
1 3 2 147 139 98
2 3 2 163 154 108
2 3 1 161 152 107
1 3 1 141 133 94
1.5 3 1.5 153 145 101
-2 6 2 162 162 159
-1 6 2 161 161 159
-1 6 1 153 153 151
-2 6 1 152 152 149
-1.5 6 1.5 157 157 155
0 6 2 165 165 162
1 6 2 168 168 165
1 6 1 160 160 157
0 6 1 158 158 156
0.5 6 1.5 163 163 160
1 7 2 170 161 113
2 7 2 181 171 120
2 7 1 180 170 119
1 7 1 168 159 111
1.5 7 1.5 175 165 116
-3 8 2 183 173 121
-2 8 2 170 161 113
-2 8 1 166 157 110
-3 8 1 181 171 120
-2.5 8 1.5 175 166 116
0 14 2 197 165 108
1 14 2 197 165 108
1 14 1 197 165 108
0 14 1 197 165 108
0.5 14 1.5 197 165 108
-1 14 2 197 165 108
0 14 2 197 165 108
0 14 1 197 165 108
-1 14 1 197 165 108
-0.5 14 1.5 197 165 108
1 0 2 98 93 65
1 0 1 96 91 64
1 1 1 88 83 58
1 1 2 91 86 60
1 0.5 1.5 94 88 62
2 1 2 118 111 78
2 1 1 118 111 78
2 2 1 122 115 81
2 2 2 122 115 81
2 1.5 1.5 120 113 79
2 2 2 122 115 81
2 2 1 122 115 81
2 3 1 125 118 83
2 3 2 125 118 83
2 2.5 1.5 123 117 82
1 3 2 135 135 133
1 3 1 132 132 130
1 4 1 129 129 127
1 4 2 132 132 130
1 3.5 1.5 132 132 130
1 4 2 132 132 130
1 4 1 129 129 127
1 5 1 118 118 116
1 5 2 123 123 121
1 4.5 1.5 125 125 124
2 5 2 132 125 87
2 5 1 132 125 87
2 6 1 136 128 90
2 6 2 136 128 90
2 5.5 1.5 134 127 89
2 6 2 136 128 90
2 6 1 136 128 90
2 7 1 140 132 92
2 7 2 140 132 92
2 6.5 1.5 138 130 91
-2 6 2 93 88 61
-2 6 1 89 84 59
-2 7 1 93 88 61
-2 7 2 96 91 64
-2 6.5 1.5 93 88 61
-2 7 2 96 91 64
-2 7 1 93 88 61
-2 8 1 96 90 63
-2 8 2 100 94 66
-2 7.5 1.5 96 91 64
0 6 2 60 42 21
0 6 1 58 41 20
0 7 1 68 48 24
0 7 2 69 48 24
0 6.5 1.5 64 45 22
0 7 2 69 48 24
0 7 1 68 48 24
0 8 1 77 54 27
0 8 2 77 54 27
0 7.5 1.5 73 51 26
0 8 2 77 54 27
0 8 1 77 54 27
0 9 1 79 56 28
0 9 2 79 56 28
0 8.5 1.5 78 55 28
0 9 2 79 56 28
0 9 1 79 56 28
0 10 1 80 57 28
0 10 2 80 57 28
0 9.5 1.5 80 56 28
0 10 2 80 57 28
0 10 1 80 57 28
0 11 1 80 57 28
0 11 2 81 57 29
0 10.5 1.5 80 57 28
0 11 2 148 124 81
0 11 1 148 123 81
0 12 1 137 115 75
0 12 2 139 117 76
0 11.5 1.5 143 120 78
0 12 2 139 117 76
0 12 1 137 115 75
0 13 1 127 106 70
0 13 2 131 110 72
0 12.5 1.5 134 112 73
1 13 2 158 132 87
1 13 1 158 132 86
1 14 1 160 133 88
1 14 2 160 133 88
1 13.5 1.5 159 133 87
-2 0 1 108 102 71
-2 1 1 111 105 74
-1 1 1 111 105 74
-1 0 1 108 102 71
-1.5 0.5 1 110 104 73
-1 0 1 108 102 71
-1 1 1 111 105 74
0 1 1 111 105 74
0 0 1 108 102 71
-0.5 0.5 1 110 104 73
0 0 1 108 102 71
0 1 1 111 105 74
1 1 1 111 105 74
1 0 1 108 102 71
0.5 0.5 1 110 104 73
-2 1 1 111 105 74
-2 2 1 115 109 76
-1 2 1 115 108 76
-1 1 1 111 105 74
-1.5 1.5 1 113 107 75
-1 1 1 61 61 61
-1 2 1 63 63 63
0 2 1 63 63 63
0 1 1 61 61 61
-0.5 1.5 1 62 62 62
0 1 1 131 131 129
0 2 1 135 135 133
1 2 1 135 135 133
1 1 1 131 131 129
0.5 1.5 1 133 133 131
1 1 1 111 105 74
1 2 1 115 108 76
2 2 1 115 108 76
2 1 1 111 105 74
1.5 1.5 1 113 107 75
-3 1 1 112 105 74
-3 2 1 115 109 76
-2 2 1 115 109 76
-2 1 1 111 105 74
-2.5 1.5 1 113 107 75
-2 2 1 135 135 133
-2 3 1 139 139 137
-1 3 1 139 139 136
-1 2 1 135 135 133
-1.5 2.5 1 137 137 135
-3 2 1 115 109 76
-3 3 1 118 112 78
-2 3 1 118 112 78
-2 2 1 115 109 76
-2.5 2.5 1 117 110 77
-1 2 1 135 135 133
-1 3 1 139 139 136
0 3 1 139 139 137
0 2 1 135 135 133
-0.5 2.5 1 137 137 135
0 2 1 135 135 133
0 3 1 139 139 137
1 3 1 139 139 137
1 2 1 135 135 133
0.5 2.5 1 137 137 135
1 2 1 115 108 76
1 3 1 118 111 78
2 3 1 118 111 78
2 2 1 115 108 76
1.5 2.5 1 116 110 77
-2 3 1 118 112 78
-2 4 1 121 114 80
-1 4 1 121 114 80
-1 3 1 118 111 78
-1.5 3.5 1 119 113 79
-2 5 1 146 146 144
-2 6 1 151 151 149
-1 6 1 151 151 148
-1 5 1 146 146 144
-1.5 5.5 1 148 148 146
-1 3 1 139 139 136
-1 4 1 142 142 140
0 4 1 142 142 140
0 3 1 139 139 137
-0.5 3.5 1 140 140 138
0 3 1 139 139 137
0 4 1 142 142 140
1 4 1 142 142 140
1 3 1 139 139 137
0.5 3.5 1 140 140 138
-3 5 1 125 118 83
-3 6 1 129 122 85
-2 6 1 128 121 85
-2 5 1 124 118 82
-2.5 5.5 1 127 120 84
-2 4 1 121 114 80
-2 5 1 124 118 82
-1 5 1 124 117 82
-1 4 1 121 114 80
-1.5 4.5 1 123 116 81
0 5 1 146 146 144
0 6 1 150 150 148
1 6 1 150 150 148
1 5 1 146 146 144
0.5 5.5 1 148 148 146
-1 4 1 142 142 140
-1 5 1 146 146 144
0 5 1 146 146 144
0 4 1 142 142 140
-0.5 4.5 1 144 144 142
0 4 1 142 142 140
0 5 1 146 146 144
1 5 1 146 146 144
1 4 1 142 142 140
0.5 4.5 1 144 144 142
1 5 1 124 117 82
1 6 1 128 121 85
2 6 1 128 120 84
2 5 1 124 117 82
1.5 5.5 1 126 119 83
-1 5 1 68 48 24
-1 6 1 71 50 25
0 6 1 70 50 25
0 5 1 68 48 24
-0.5 5.5 1 69 49 25
1 6 1 128 121 85
1 7 1 131 124 87
2 7 1 131 124 87
2 6 1 128 120 84
1.5 6.5 1 129 122 86
-3 6 1 129 122 85
-3 7 1 132 125 88
-2 7 1 132 125 88
-2 6 1 128 121 85
-2.5 6.5 1 130 123 86
-3 7 1 132 125 88
-3 8 1 135 127 89
-2 8 1 135 127 89
-2 7 1 132 125 88
-2.5 7.5 1 134 126 88
-1 6 1 71 50 25
-1 7 1 73 51 26
0 7 1 73 51 26
0 6 1 70 50 25
-0.5 6.5 1 72 51 25
-1 7 1 73 51 26
-1 8 1 74 52 26
0 8 1 74 52 26
0 7 1 73 51 26
-0.5 7.5 1 73 52 26
-1 8 1 74 52 26
-1 9 1 76 54 27
0 9 1 76 54 27
0 8 1 74 52 26
-0.5 8.5 1 75 53 27
-1 9 1 76 54 27
-1 10 1 78 55 27
0 10 1 78 55 27
0 9 1 76 54 27
-0.5 9.5 1 77 54 27
-1 10 1 78 55 27
-1 11 1 79 56 28
0 11 1 79 56 28
0 10 1 78 55 27
-0.5 10.5 1 78 55 28
-1 11 1 145 122 80
-1 12 1 148 124 81
0 12 1 148 124 81
0 11 1 146 122 80
-0.5 11.5 1 147 123 81
-1 12 1 148 124 81
-1 13 1 151 126 83
0 13 1 151 126 83
0 12 1 148 124 81
-0.5 12.5 1 150 125 82
0 13 1 151 126 83
0 14 1 153 128 84
1 14 1 153 128 84
1 13 1 151 126 83
0.5 13.5 1 152 127 83
-1 13 1 151 126 83
-1 14 1 153 128 84
0 14 1 153 128 84
0 13 1 151 126 83
-0.5 13.5 1 152 127 83
-2 0 2 21 20 14
-2 0 1 21 20 14
-1 0 1 21 20 14
-1 0 2 21 20 14
-1.5 0 1.5 21 20 14
-1 0 2 21 20 14
-1 0 1 21 20 14
0 0 1 21 20 14
0 0 2 21 20 14
-0.5 0 1.5 21 20 14
0 0 2 21 20 14
0 0 1 21 20 14
1 0 1 21 20 14
1 0 2 21 20 14
0.5 0 1.5 21 20 14
1 1 2 22 21 15
1 1 1 22 21 14
2 1 1 22 21 15
2 1 2 22 21 15
1.5 1 1.5 22 21 15
-3 1 2 23 21 15
-3 1 1 22 21 15
-2 1 1 22 21 15
-2 1 2 22 21 15
-2.5 1 1.5 22 21 15
-3 5 2 29 27 19
-3 5 1 29 27 19
-2 5 1 27 26 18
-2 5 2 28 26 18
-2.5 5 1.5 28 27 19
1 5 2 28 26 18
1 5 1 27 26 18
2 5 1 28 27 19
2 5 2 28 27 18
1.5 5 1.5 28 26 18
0 13 2 50 42 27
0 13 1 50 41 27
1 13 1 52 43 28
1 13 2 52 44 28
0.5 13 1.5 51 43 28
-2 0 2 97 91 64
-2 1 2 89 84 59
-2 1 1 91 86 60
-2 0 1 98 92 65
-2 0.5 1.5 94 88 62
-3 1 2 116 109 77
-3 2 2 120 113 79
-3 2 1 119 113 79
-3 1 1 116 109 77
-3 1.5 1.5 118 111 78
-3 2 2 120 113 79
-3 3 2 123 117 82
-3 3 1 123 116 82
-3 2 1 119 113 79
-3 2.5 1.5 121 115 80
-2 3 2 111 105 74
-2 4 2 111 105 74
-2 4 1 112 106 74
-2 3 1 112 106 74
-2 3.5 1.5 112 105 74
-3 5 2 131 124 87
-3 6 2 135 127 89
-3 6 1 134 127 89
-3 5 1 131 124 87
-3 5.5 1.5 133 125 88
-2 4 2 111 105 74
-2 5 2 103 97 68
-2 5 1 104 98 69
-2 4 1 112 106 74
-2 4.5 1.5 108 102 71
1 6 2 88 83 58
1 7 2 92 87 61
1 7 1 93 87 61
1 6 1 90 85 59
1 6.5 1.5 90 85 60
-3 6 2 135 127 89
-3 7 2 138 131 92
-3 7 1 138 130 91
-3 6 1 134 127 89
-3 6.5 1.5 136 129 90
-3 7 2 138 131 92
-3 8 2 141 134 94
-3 8 1 141 133 93
-3 7 1 138 130 91
-3 7.5 1.5 140 132 92
-1 6 2 53 37 19
-1 7 2 58 41 20
-1 7 1 58 41 20
-1 6 1 53 37 19
-1 6.5 1.5 55 39 19
-1 7 2 58 41 20
-1 8 2 69 48 24
-1 8 1 68 48 24
-1 7 1 58 41 20
-1 7.5 1.5 63 45 22
-1 8 2 69 48 24
-1 9 2 77 54 27
-1 9 1 77 54 27
-1 8 1 68 48 24
-1 8.5 1.5 73 51 26
-1 9 2 77 54 27
-1 10 2 80 56 28
-1 10 1 80 56 28
-1 9 1 77 54 27
-1 9.5 1.5 78 55 28
-1 10 2 80 56 28
-1 11 2 81 57 29
-1 11 1 81 57 29
-1 10 1 80 56 28
-1 10.5 1.5 81 57 29
-1 11 2 150 125 82
-1 12 2 152 127 84
-1 12 1 153 128 84
-1 11 1 150 125 82
-1 11.5 1.5 151 126 83
-1 12 2 152 127 84
-1 13 2 155 130 85
-1 13 1 155 130 85
-1 12 1 153 128 84
-1 12.5 1.5 154 129 84
-1 13 2 155 130 85
-1 14 2 157 131 86
-1 14 1 157 131 86
-1 13 1 155 130 85
-1 13.5 1.5 156 130 86
-2 0 2 114 108 75
-1 0 2 114 108 75
-1 1 2 119 113 79
-2 1 2 119 113 79
-1.5 0.5 2 117 110 77
-1 0 2 114 108 75
0 0 2 114 108 75
0 1 2 119 113 79
-1 1 2 119 113 79
-0.5 0.5 2 117 110 77
0 0 2 114 108 75
1 0 2 114 108 75
1 1 2 119 112 79
0 1 2 119 113 79
0.5 0.5 2 116 110 77
-2 1 2 119 113 79
-1 1 2 119 113 79
-1 2 2 124 117 82
-2 2 2 124 117 82
-1.5 1.5 2 122 115 81
-1 1 2 65 65 65
0 1 2 65 65 65
0 2 2 68 68 68
-1 2 2 68 68 68
-0.5 1.5 2 66 66 66
0 1 2 140 140 138
1 1 2 140 140 138
1 2 2 146 146 143
0 2 2 146 146 143
0.5 1.5 2 143 143 141
1 1 2 119 112 79
2 1 2 119 112 79
2 2 2 124 117 82
1 2 2 124 117 82
1.5 1.5 2 122 115 80
-3 1 2 119 113 79
-2 1 2 119 113 79
-2 2 2 124 117 82
-3 2 2 124 117 82
-2.5 1.5 2 122 115 81
-2 2 2 146 146 144
-1 2 2 146 146 144
-1 3 2 151 151 149
-2 3 2 151 151 149
-1.5 2.5 2 148 148 146
-3 2 2 124 117 82
-2 2 2 124 117 82
-2 3 2 129 121 85
-3 3 2 129 122 85
-2.5 2.5 2 126 119 84
-1 2 2 146 146 144
0 2 2 146 146 143
0 3 2 151 151 149
-1 3 2 151 151 149
-0.5 2.5 2 148 148 146
0 2 2 146 146 143
1 2 2 146 146 143
1 3 2 151 151 149
0 3 2 151 151 149
0.5 2.5 2 148 148 146
1 2 2 124 117 82
2 2 2 124 117 82
2 3 2 128 121 85
1 3 2 128 121 85
1.5 2.5 2 126 119 84
-2 3 2 129 121 85
-1 3 2 128 121 85
-1 4 2 133 126 88
-2 4 2 133 126 88
-1.5 3.5 2 131 124 87
-2 5 2 161 161 158
-1 5 2 160 160 158
-1 6 2 164 164 161
-2 6 2 164 164 161
-1.5 5.5 2 162 162 160
-1 3 2 151 151 149
0 3 2 151 151 149
0 4 2 157 157 154
-1 4 2 157 157 154
-0.5 3.5 2 154 154 151
0 3 2 151 151 149
1 3 2 151 151 149
1 4 2 157 157 154
0 4 2 157 157 154
0.5 3.5 2 154 154 151
-3 5 2 137 129 91
-2 5 2 137 129 90
-2 6 2 139 132 92
-3 6 2 140 132 93
-2.5 5.5 2 138 130 92
-2 4 2 133 126 88
-1 4 2 133 126 88
-1 5 2 136 129 90
-2 5 2 137 129 90
-1.5 4.5 2 135 127 89
0 5 2 160 160 158
1 5 2 160 160 158
1 6 2 163 163 161
0 6 2 163 163 161
0.5 5.5 2 162 162 159
-1 4 2 157 157 154
0 4 2 157 157 154
0 5 2 160 160 158
-1 5 2 160 160 158
-0.5 4.5 2 158 158 156
0 4 2 157 157 154
1 4 2 157 157 154
1 5 2 160 160 158
0 5 2 160 160 158
0.5 4.5 2 158 158 156
1 5 2 136 129 90
2 5 2 136 129 90
2 6 2 139 131 92
1 6 2 139 131 92
1.5 5.5 2 138 130 91
-1 5 2 75 53 27
0 5 2 75 53 27
0 6 2 77 54 27
-1 6 2 77 54 27
-0.5 5.5 2 76 54 27
1 6 2 139 131 92
2 6 2 139 131 92
2 7 2 142 134 94
1 7 2 142 134 94
1.5 6.5 2 140 133 93
-3 6 2 140 132 93
-2 6 2 139 132 92
-2 7 2 143 135 94
-3 7 2 143 135 95
-2.5 6.5 2 141 133 93
-3 7 2 143 135 95
-2 7 2 143 135 94
-2 8 2 146 138 96
-3 8 2 146 138 97
-2.5 7.5 2 144 136 96
-1 6 2 77 54 27
0 6 2 77 54 27
0 7 2 78 55 28
-1 7 2 78 55 28
-0.5 6.5 2 78 55 27
-1 7 2 78 55 28
0 7 2 78 55 28
0 8 2 80 57 28
-1 8 2 80 57 28
-0.5 7.5 2 79 56 28
-1 8 2 80 57 28
0 8 2 80 57 28
0 9 2 82 58 29
-1 9 2 82 58 29
-0.5 8.5 2 81 57 29
-1 9 2 82 58 29
0 9 2 82 58 29
0 10 2 84 59 30
-1 10 2 83 59 30
-0.5 9.5 2 83 58 29
-1 10 2 83 59 30
0 10 2 84 59 30
0 11 2 85 60 30
-1 11 2 85 60 30
-0.5 10.5 2 84 60 30
-1 11 2 157 131 86
0 11 2 157 131 86
0 12 2 159 133 87
-1 12 2 159 133 87
-0.5 11.5 2 158 132 87
-1 12 2 159 133 87
0 12 2 159 133 87
0 13 2 161 135 88
-1 13 2 161 135 88
-0.5 12.5 2 160 134 88
0 13 2 161 135 88
1 13 2 161 135 88
1 14 2 163 137 90
0 14 2 163 137 90
0.5 13.5 2 162 136 89
-1 13 2 161 135 88
0 13 2 161 135 88
0 14 2 163 137 90
-1 14 2 164 137 90
-0.5 13.5 2 162 136 89
3 4 0 1
3 4 1 2
3 4 2 3
3 4 3 0
3 9 5 6
3 9 6 7
3 9 7 8
3 9 8 5
3 14 10 11
3 14 11 12
3 14 12 13
3 14 13 10
3 19 15 16
3 19 16 17
3 19 17 18
3 19 18 15
3 24 20 21
3 24 21 22
3 24 22 23
3 24 23 20
3 29 25 26
3 29 26 27
3 29 27 28
3 29 28 25
3 34 30 31
3 34 31 32
3 34 32 33
3 34 33 30
3 39 35 36
3 39 36 37
3 39 37 38
3 39 38 35
3 44 40 41
3 44 41 42
3 44 42 43
3 44 43 40
3 49 45 46
3 49 46 47
3 49 47 48
3 49 48 45
3 54 50 51
3 54 51 52
3 54 52 53
3 54 53 50
3 59 55 56
3 59 56 57
3 59 57 58
3 59 58 55
3 64 60 61
3 64 61 62
3 64 62 63
3 64 63 60
3 69 65 66
3 69 66 67
3 69 67 68
3 69 68 65
3 74 70 71
3 74 71 72
3 74 72 73
3 74 73 70
3 79 75 76
3 79 76 77
3 79 77 78
3 79 78 75
3 84 80 81
3 84 81 82
3 84 82 83
3 84 83 80
3 89 85 86
3 89 86 87
3 89 87 88
3 89 88 85
3 94 90 91
3 94 91 92
3 94 92 93
3 94 93 90
3 99 95 96
3 99 96 97
3 99 97 98
3 99 98 95
3 104 100 101
3 104 101 102
3 104 102 103
3 104 103 100
3 109 105 106
3 109 106 107
3 109 107 108
3 109 108 105
3 114 110 111
3 114 111 112
3 114 112 113
3 114 113 110
3 119 115 116
3 119 116 117
3 119 117 118
3 119 118 115
3 124 120 121
3 124 121 122
3 124 122 123
3 124 123 120
3 129 125 126
3 129 126 127
3 129 127 128
3 129 128 125
3 134 130 131
3 134 131 132
3 134 132 133
3 134 133 130
3 139 135 136
3 139 136 137
3 139 137 138
3 139 138 135
3 144 140 141
3 144 141 142
3 144 142 143
3 144 143 140
3 149 145 146
3 149 146 147
3 149 147 148
3 149 148 145
3 154 150 151
3 154 151 152
3 154 152 153
3 154 153 150
3 159 155 156
3 159 156 157
3 159 157 158
3 159 158 155
3 164 160 161
3 164 161 162
3 164 162 163
3 164 163 160
3 169 165 166
3 169 166 167
3 169 167 168
3 169 168 165
3 174 170 171
3 174 171 172
3 174 172 173
3 174 173 170
3 179 175 176
3 179 176 177
3 179 177 178
3 179 178 175
3 184 180 181
3 184 181 182
3 184 182 183
3 184 183 180
3 189 185 186
3 189 186 187
3 189 187 188
3 189 188 185
3 194 190 191
3 194 191 192
3 194 192 193
3 194 193 190
3 199 195 196
3 199 196 197
3 199 197 198
3 199 198 195
3 204 200 201
3 204 201 202
3 204 202 203
3 204 203 200
3 209 205 206
3 209 206 207
3 209 207 208
3 209 208 205
3 214 210 211
3 214 211 212
3 214 212 213
3 214 213 210
3 219 215 216
3 219 216 217
3 219 217 218
3 219 218 215
3 224 220 221
3 224 221 222
3 224 222 223
3 224 223 220
3 229 225 226
3 229 226 227
3 229 227 228
3 229 228 225
3 234 230 231
3 234 231 232
3 234 232 233
3 234 233 230
3 239 235 236
3 239 236 237
3 239 237 238
3 239 238 235
3 244 240 241
3 244 241 242
3 244 242 243
3 244 243 240
3 249 245 246
3 249 246 247
3 249 247 248
3 249 248 245
3 254 250 251
3 254 251 252
3 254 252 253
3 254 253 250
3 259 255 256
3 259 256 257
3 259 257 258
3 259 258 255
3 264 260 261
3 264 261 262
3 264 262 263
3 264 263 260
3 269 265 266
3 269 266 267
3 269 267 268
3 269 268 265
3 274 270 271
3 274 271 272
3 274 272 273
3 274 273 270
3 279 275 276
3 279 276 277
3 279 277 278
3 279 278 275
3 284 280 281
3 284 281 282
3 284 282 283
3 284 283 280
3 289 285 286
3 289 286 287
3 289 287 288
3 289 288 285
3 294 290 291
3 294 291 292
3 294 292 293
3 294 293 290
3 299 295 296
3 299 296 297
3 299 297 298
3 299 298 295
3 304 300 301
3 304 301 302
3 304 302 303
3 304 303 300
3 309 305 306
3 309 306 307
3 309 307 308
3 309 308 305
3 314 310 311
3 314 311 312
3 314 312 313
3 314 313 310
3 319 315 316
3 319 316 317
3 319 317 318
3 319 318 315
3 324 320 321
3 324 321 322
3 324 322 323
3 324 323 320
3 329 325 326
3 329 326 327
3 329 327 328
3 329 328 325
3 334 330 331
3 334 331 332
3 334 332 333
3 334 333 330
3 339 335 336
3 339 336 337
3 339 337 338
3 339 338 335
3 344 340 341
3 344 341 342
3 344 342 343
3 344 343 340
3 349 345 346
3 349 346 347
3 349 347 348
3 349 348 345
3 354 350 351
3 354 351 352
3 354 352 353
3 354 353 350
3 359 355 356
3 359 356 357
3 359 357 358
3 359 358 355
3 364 360 361
3 364 361 362
3 364 362 363
3 364 363 360
3 369 365 366
3 369 366 367
3 369 367 368
3 369 368 365
3 374 370 371
3 374 371 372
3 374 372 373
3 374 373 370
3 379 375 376
3 379 376 377
3 379 377 378
3 379 378 375
3 384 380 381
3 384 381 382
3 384 382 383
3 384 383 380
3 389 385 386
3 389 386 387
3 389 387 388
3 389 388 385
3 394 390 391
3 394 391 392
3 394 392 393
3 394 393 390
3 399 395 396
3 399 396 397
3 399 397 398
3 399 398 395
3 404 400 401
3 404 401 402
3 404 402 403
3 404 403 400
3 409 405 406
3 409 406 407
3 409 407 408
3 409 408 405
3 414 410 411
3 414 411 412
3 414 412 413
3 414 413 410
3 419 415 416
3 419 416 417
3 419 417 418
3 419 418 415
3 424 420 421
3 424 421 422
3 424 422 423
3 424 423 420
3 429 425 426
3 429 426 427
3 429 427 428
3 429 428 425
3 434 430 431
3 434 431 432
3 434 432 433
3 434 433 430
3 439 435 436
3 439 436 437
3 439 437 438
3 439 438 435
3 444 440 441
3 444 441 442
3 444 442 443
3 444 443 440
3 449 445 446
3 449 446 447
3 449 447 448
3 449 448 445
3 454 450 451
3 454 451 452
3 454 452 453
3 454 453 450
3 459 455 456
3 459 456 457
3 459 457 458
3 459 458 455
3 464 460 461
3 464 461 462
3 464 462 463
3 464 463 460
3 469 465 466
3 469 466 467
3 469 467 468
3 469 468 465
3 474 470 471
3 474 471 472
3 474 472 473
3 474 473 470
3 479 475 476
3 479 476 477
3 479 477 478
3 479 478 475
3 484 480 481
3 484 481 482
3 484 482 483
3 484 483 480
3 489 485 486
3 489 486 487
3 489 487 488
3 489 488 485
3 494 490 491
3 494 491 492
3 494 492 493
3 494 493 490
3 499 495 496
3 499 496 497
3 499 497 498
3 499 498 495
3 504 500 501
3 504 501 502
3 504 502 503
3 504 503 500
3 509 505 506
3 509 506 507
3 509 507 508
3 509 508 505
3 514 510 511
3 514 511 512
3 514 512 513
3 514 513 510
3 519 515 516
3 519 516 517
3 519 517 518
3 519 518 515
3 524 520 521
3 524 521 522
3 524 522 523
3 524 523 520
3 529 525 526
3 529 526 527
3 529 527 528
3 529 528 525
3 534 530 531
3 534 531 532
3 534 532 533
3 534 533 530
3 539 535 536
3 539 536 537
3 539 537 538
3 539 538 535
3 544 540 541
3 544 541 542
3 544 542 543
3 544 543 540
3 549 545 546
3 549 546 547
3 549 547 548
3 549 548 545
3 554 550 551
3 554 551 552
3 554 552 553
3 554 553 550
3 559 555 556
3 559 556 557
3 559 557 558
3 559 558 555
3 564 560 561
3 564 561 562
3 564 562 563
3 564 563 560
3 569 565 566
3 569 566 567
3 569 567 568
3 569 568 565
3 574 570 571
3 574 571 572
3 574 572 573
3 574 573 570
3 579 575 576
3 579 576 577
3 579 577 578
3 579 578 575
3 584 580 581
3 584 581 582
3 584 582 583
3 584 583 580
3 589 585 586
3 589 586 587
3 589 587 588
3 589 588 585
3 594 590 591
3 594 591 592
3 594 592 593
3 594 593 590
3 599 595 596
3 599 596 597
3 599 597 598
3 599 598 595
3 604 600 601
3 604 601 602
3 604 602 603
3 604 603 600
3 609 605 606
3 609 606 607
3 609 607 608
3 609 608 605
