ply
format ascii 1.0
comment : 
comment : MagicaVoxel @ ephtracy
element vertex 340
property float x
property float y
property float z
property uchar red
property uchar green
property uchar blue
element face 272
property list uchar int vertex_index
end_header
1 10 1 78 80 78
2 10 1 84 86 84
2 10 -0 83 85 83
1 10 -0 75 77 75
1.5 10 0.5 80 82 80
-3 11 1 90 92 90
-2 11 1 90 92 90
-2 11 -0 90 92 90
-3 11 -0 90 92 90
-2.5 11 0.5 90 92 90
-2 11 1 90 92 90
-1 11 1 90 92 90
-1 11 -0 90 92 90
-2 11 -0 90 92 90
-1.5 11 0.5 90 92 90
-1 11 1 90 92 90
0 11 1 90 92 90
0 11 -0 90 92 90
-1 11 -0 90 92 90
-0.5 11 0.5 90 92 90
0 11 1 169 172 167
1 11 1 169 172 167
1 11 -0 169 172 167
0 11 -0 169 172 167
0.5 11 0.5 169 172 167
0 0 1 65 43 23
0 0 -0 65 43 23
0 1 -0 67 45 23
0 1 1 67 45 23
0 0.5 0.5 66 44 23
0 1 1 67 45 23
0 1 -0 67 45 23
0 2 -0 69 46 24
0 2 1 69 46 24
0 1.5 0.5 68 45 24
0 2 1 69 46 24
0 2 -0 69 46 24
0 3 -0 71 47 25
0 3 1 71 47 25
0 2.5 0.5 70 46 24
0 3 1 71 47 25
0 3 -0 71 47 25
0 4 -0 73 48 25
0 4 1 72 48 25
0 3.5 0.5 72 47 25
0 4 1 72 48 25
0 4 -0 73 48 25
0 5 -0 74 49 26
0 5 1 74 49 26
0 4.5 0.5 73 48 25
0 5 1 74 49 26
0 5 -0 74 49 26
0 6 -0 75 50 26
0 6 1 75 50 26
0 5.5 0.5 75 49 26
0 6 1 75 50 26
0 6 -0 75 50 26
0 7 -0 74 49 26
0 7 1 75 50 26
0 6.5 0.5 75 50 26
0 7 1 75 50 26
0 7 -0 74 49 26
0 8 -0 68 45 23
0 8 1 69 46 24
0 7.5 0.5 71 47 25
0 8 1 69 46 24
0 8 -0 68 45 23
0 9 -0 61 40 21
0 9 1 64 42 22
0 8.5 0.5 65 43 23
2 9 1 68 69 68
2 9 -0 68 69 68
2 10 -0 69 70 69
2 10 1 69 70 69
2 9.5 0.5 68 70 68
1 10 1 120 121 118
1 10 -0 118 120 116
1 11 -0 129 131 127
1 11 1 129 131 127
1 10.5 0.5 124 126 122
-1 0 -0 62 41 22
-1 1 -0 64 42 22
0 1 -0 64 42 22
0 0 -0 62 41 22
-0.5 0.5 -0 63 42 22
-1 1 -0 64 42 22
-1 2 -0 66 44 23
0 2 -0 66 44 23
0 1 -0 64 42 22
-0.5 1.5 -0 65 43 23
-1 2 -0 66 44 23
-1 3 -0 68 45 24
0 3 -0 68 45 24
0 2 -0 66 44 23
-0.5 2.5 -0 67 44 23
-1 3 -0 68 45 24
-1 4 -0 70 46 24
0 4 -0 70 46 24
0 3 -0 68 45 24
-0.5 3.5 -0 69 45 24
-1 4 -0 70 46 24
-1 5 -0 72 47 25
0 5 -0 72 47 25
0 4 -0 70 46 24
-0.5 4.5 -0 71 47 25
-1 5 -0 72 47 25
-1 6 -0 74 49 26
0 6 -0 74 49 26
0 5 -0 72 47 25
-0.5 5.5 -0 73 48 25
-1 6 -0 74 49 26
-1 7 -0 76 50 27
0 7 -0 76 50 26
0 6 -0 74 49 26
-0.5 6.5 -0 75 50 26
-1 7 -0 76 50 27
-1 8 -0 78 52 27
0 8 -0 78 52 27
0 7 -0 76 50 26
-0.5 7.5 -0 77 51 27
-1 8 -0 78 52 27
-1 9 -0 79 53 28
0 9 -0 79 53 28
0 8 -0 78 52 27
-0.5 8.5 -0 79 52 27
-1 9 -0 64 65 64
-1 10 -0 66 67 66
0 10 -0 66 67 66
0 9 -0 64 65 64
-0.5 9.5 -0 65 66 65
-2 9 -0 64 65 64
-2 10 -0 66 67 66
-1 10 -0 66 67 66
-1 9 -0 64 65 64
-1.5 9.5 -0 65 66 65
-3 9 -0 64 66 64
-3 10 -0 66 67 66
-2 10 -0 66 67 66
-2 9 -0 64 65 64
-2.5 9.5 -0 65 66 65
0 9 -0 64 65 64
0 10 -0 66 67 66
1 10 -0 66 67 66
1 9 -0 64 65 64
0.5 9.5 -0 65 66 65
1 9 -0 64 65 64
1 10 -0 66 67 66
2 10 -0 66 67 66
2 9 -0 64 65 64
1.5 9.5 -0 65 66 65
-3 10 -0 66 67 66
-3 11 -0 67 68 67
-2 11 -0 67 68 67
-2 10 -0 66 67 66
-2.5 10.5 -0 66 68 66
-2 10 -0 66 67 66
-2 11 -0 67 68 67
-1 11 -0 67 68 67
-1 10 -0 66 67 66
-1.5 10.5 -0 66 68 66
-1 10 -0 66 67 66
-1 11 -0 67 68 67
0 11 -0 67 68 67
0 10 -0 66 67 66
-0.5 10.5 -0 66 68 66
0 10 -0 123 125 121
0 11 -0 126 128 124
1 11 -0 126 128 124
1 10 -0 123 125 121
0.5 10.5 -0 124 126 122
-1 0 1 12 8 4
-1 0 -0 12 8 4
0 0 -0 12 8 4
0 0 1 12 8 4
-0.5 0 0.5 12 8 4
-2 9 1 18 18 18
-2 9 -0 18 18 18
-1 9 -0 17 17 17
-1 9 1 17 18 17
-1.5 9 0.5 17 18 17
-3 9 1 18 19 18
-3 9 -0 18 19 18
-2 9 -0 18 18 18
-2 9 1 18 18 18
-2.5 9 0.5 18 18 18
0 9 1 17 18 17
0 9 -0 17 17 17
1 9 -0 18 18 18
1 9 1 18 18 18
0.5 9 0.5 17 18 17
1 9 1 18 18 18
1 9 -0 18 18 18
2 9 -0 18 19 18
2 9 1 18 19 18
1.5 9 0.5 18 18 18
-1 0 1 64 42 22
-1 1 1 66 44 23
-1 1 -0 66 44 23
-1 0 -0 64 42 22
-1 0.5 0.5 65 43 23
-1 1 1 66 44 23
-1 2 1 68 45 24
-1 2 -0 68 45 24
-1 1 -0 66 44 23
-1 1.5 0.5 67 44 23
-1 2 1 68 45 24
-1 3 1 70 46 24
-1 3 -0 70 46 24
-1 2 -0 68 45 24
-1 2.5 0.5 69 46 24
-1 3 1 70 46 24
-1 4 1 72 47 25
-1 4 -0 72 48 25
-1 3 -0 70 46 24
-1 3.5 0.5 71 47 25
-1 4 1 72 47 25
-1 5 1 74 49 26
-1 5 -0 74 49 26
-1 4 -0 72 48 25
-1 4.5 0.5 73 48 25
-1 5 1 74 49 26
-1 6 1 75 49 26
-1 6 -0 75 50 26
-1 5 -0 74 49 26
-1 5.5 0.5 74 49 26
-1 6 1 75 49 26
-1 7 1 74 49 26
-1 7 -0 75 49 26
-1 6 -0 75 50 26
-1 6.5 0.5 74 49 26
-1 7 1 74 49 26
-1 8 1 68 45 24
-1 8 -0 69 45 24
-1 7 -0 75 49 26
-1 7.5 0.5 71 47 25
-1 8 1 68 45 24
-1 9 1 62 41 21
-1 9 -0 62 41 22
-1 8 -0 69 45 24
-1 8.5 0.5 65 43 23
-3 9 1 67 68 67
-3 10 1 68 69 68
-3 10 -0 68 70 68
-3 9 -0 67 68 67
-3 9.5 0.5 67 69 67
-3 10 1 68 69 68
-3 11 1 70 71 70
-3 11 -0 70 71 70
-3 10 -0 68 70 68
-3 10.5 0.5 69 70 69
-1 0 1 65 43 23
0 0 1 65 43 23
0 1 1 68 45 24
-1 1 1 68 45 24
-0.5 0.5 1 67 44 23
-1 1 1 68 45 24
0 1 1 68 45 24
0 2 1 71 47 25
-1 2 1 71 47 25
-0.5 1.5 1 70 46 24
-1 2 1 71 47 25
0 2 1 71 47 25
0 3 1 73 49 25
-1 3 1 73 49 26
-0.5 2.5 1 72 48 25
-1 3 1 73 49 26
0 3 1 73 49 25
0 4 1 76 50 26
-1 4 1 76 50 26
-0.5 3.5 1 75 49 26
-1 4 1 76 50 26
0 4 1 76 50 26
0 5 1 78 52 27
-1 5 1 78 52 27
-0.5 4.5 1 77 51 27
-1 5 1 78 52 27
0 5 1 78 52 27
0 6 1 79 53 28
-1 6 1 80 53 28
-0.5 5.5 1 79 52 27
-1 6 1 80 53 28
0 6 1 79 53 28
0 7 1 81 54 28
-1 7 1 81 54 28
-0.5 6.5 1 80 53 28
-1 7 1 81 54 28
0 7 1 81 54 28
0 8 1 83 55 29
-1 8 1 83 55 29
-0.5 7.5 1 82 54 29
-1 8 1 83 55 29
0 8 1 83 55 29
0 9 1 84 56 29
-1 9 1 85 56 29
-0.5 8.5 1 84 55 29
-1 9 1 68 70 68
0 9 1 68 70 68
0 10 1 70 71 70
-1 10 1 70 71 70
-0.5 9.5 1 69 70 69
-2 9 1 68 70 68
-1 9 1 68 70 68
-1 10 1 70 71 70
-2 10 1 70 71 70
-1.5 9.5 1 69 70 69
-3 9 1 69 70 69
-2 9 1 68 70 68
-2 10 1 70 71 70
-3 10 1 70 71 70
-2.5 9.5 1 69 70 69
0 9 1 68 70 68
1 9 1 68 69 68
1 10 1 70 71 70
0 10 1 70 71 70
0.5 9.5 1 69 70 69
1 9 1 68 69 68
2 9 1 68 70 68
2 10 1 70 71 70
1 10 1 70 71 70
1.5 9.5 1 69 70 69
-3 10 1 70 71 70
-2 10 1 70 71 70
-2 11 1 71 73 71
-3 11 1 71 73 71
-2.5 10.5 1 70 72 70
-2 10 1 70 71 70
-1 10 1 70 71 70
-1 11 1 71 73 71
-2 11 1 71 73 71
-1.5 10.5 1 70 72 70
-1 10 1 70 71 70
0 10 1 70 71 70
0 11 1 71 73 71
-1 11 1 71 73 71
-0.5 10.5 1 71 72 71
0 10 1 131 133 129
1 10 1 131 133 129
1 11 1 134 136 132
0 11 1 134 136 132
0.5 10.5 1 133 135 130
3 4 0 1
3 4 1 2
3 4 2 3
3 4 3 0
3 9 5 6
3 9 6 7
3 9 7 8
3 9 8 5
3 14 10 11
3 14 11 12
3 14 12 13
3 14 13 10
3 19 15 16
3 19 16 17
3 19 17 18
3 19 18 15
3 24 20 21
3 24 21 22
3 24 22 23
3 24 23 20
3 29 25 26
3 29 26 27
3 29 27 28
3 29 28 25
3 34 30 31
3 34 31 32
3 34 32 33
3 34 33 30
3 39 35 36
3 39 36 37
3 39 37 38
3 39 38 35
3 44 40 41
3 44 41 42
3 44 42 43
3 44 43 40
3 49 45 46
3 49 46 47
3 49 47 48
3 49 48 45
3 54 50 51
3 54 51 52
3 54 52 53
3 54 53 50
3 59 55 56
3 59 56 57
3 59 57 58
3 59 58 55
3 64 60 61
3 64 61 62
3 64 62 63
3 64 63 60
3 69 65 66
3 69 66 67
3 69 67 68
3 69 68 65
3 74 70 71
3 74 71 72
3 74 72 73
3 74 73 70
3 79 75 76
3 79 76 77
3 79 77 78
3 79 78 75
3 84 80 81
3 84 81 82
3 84 82 83
3 84 83 80
3 89 85 86
3 89 86 87
3 89 87 88
3 89 88 85
3 94 90 91
3 94 91 92
3 94 92 93
3 94 93 90
3 99 95 96
3 99 96 97
3 99 97 98
3 99 98 95
3 104 100 101
3 104 101 102
3 104 102 103
3 104 103 100
3 109 105 106
3 109 106 107
3 109 107 108
3 109 108 105
3 114 110 111
3 114 111 112
3 114 112 113
3 114 113 110
3 119 115 116
3 119 116 117
3 119 117 118
3 119 118 115
3 124 120 121
3 124 121 122
3 124 122 123
3 124 123 120
3 129 125 126
3 129 126 127
3 129 127 128
3 129 128 125
3 134 130 131
3 134 131 132
3 134 132 133
3 134 133 130
3 139 135 136
3 139 136 137
3 139 137 138
3 139 138 135
3 144 140 141
3 144 141 142
3 144 142 143
3 144 143 140
3 149 145 146
3 149 146 147
3 149 147 148
3 149 148 145
3 154 150 151
3 154 151 152
3 154 152 153
3 154 153 150
3 159 155 156
3 159 156 157
3 159 157 158
3 159 158 155
3 164 160 161
3 164 161 162
3 164 162 163
3 164 163 160
3 169 165 166
3 169 166 167
3 169 167 168
3 169 168 165
3 174 170 171
3 174 171 172
3 174 172 173
3 174 173 170
3 179 175 176
3 179 176 177
3 179 177 178
3 179 178 175
3 184 180 181
3 184 181 182
3 184 182 183
3 184 183 180
3 189 185 186
3 189 186 187
3 189 187 188
3 189 188 185
3 194 190 191
3 194 191 192
3 194 192 193
3 194 193 190
3 199 195 196
3 199 196 197
3 199 197 198
3 199 198 195
3 204 200 201
3 204 201 202
3 204 202 203
3 204 203 200
3 209 205 206
3 209 206 207
3 209 207 208
3 209 208 205
3 214 210 211
3 214 211 212
3 214 212 213
3 214 213 210
3 219 215 216
3 219 216 217
3 219 217 218
3 219 218 215
3 224 220 221
3 224 221 222
3 224 222 223
3 224 223 220
3 229 225 226
3 229 226 227
3 229 227 228
3 229 228 225
3 234 230 231
3 234 231 232
3 234 232 233
3 234 233 230
3 239 235 236
3 239 236 237
3 239 237 238
3 239 238 235
3 244 240 241
3 244 241 242
3 244 242 243
3 244 243 240
3 249 245 246
3 249 246 247
3 249 247 248
3 249 248 245
3 254 250 251
3 254 251 252
3 254 252 253
3 254 253 250
3 259 255 256
3 259 256 257
3 259 257 258
3 259 258 255
3 264 260 261
3 264 261 262
3 264 262 263
3 264 263 260
3 269 265 266
3 269 266 267
3 269 267 268
3 269 268 265
3 274 270 271
3 274 271 272
3 274 272 273
3 274 273 270
3 279 275 276
3 279 276 277
3 279 277 278
3 279 278 275
3 284 280 281
3 284 281 282
3 284 282 283
3 284 283 280
3 289 285 286
3 289 286 287
3 289 287 288
3 289 288 285
3 294 290 291
3 294 291 292
3 294 292 293
3 294 293 290
3 299 295 296
3 299 296 297
3 299 297 298
3 299 298 295
3 304 300 301
3 304 301 302
3 304 302 303
3 304 303 300
3 309 305 306
3 309 306 307
3 309 307 308
3 309 308 305
3 314 310 311
3 314 311 312
3 314 312 313
3 314 313 310
3 319 315 316
3 319 316 317
3 319 317 318
3 319 318 315
3 324 320 321
3 324 321 322
3 324 322 323
3 324 323 320
3 329 325 326
3 329 326 327
3 329 327 328
3 329 328 325
3 334 330 331
3 334 331 332
3 334 332 333
3 334 333 330
3 339 335 336
3 339 336 337
3 339 337 338
3 339 338 335
