# WaveFront *.obj file (generated by Cheetah3D)

mtllib ring.mtl

g チューブ
v 0.000000 -0.900000 -0.000000
v 0.000000 -0.960000 -0.000000
v 0.296656 -0.913014 -0.000000
v 0.278115 -0.855951 -0.000000
v 0.564274 -0.776656 -0.000000
v 0.529007 -0.728115 -0.000000
v 0.776656 -0.564274 -0.000000
v 0.728115 -0.529007 -0.000000
v 0.913014 -0.296656 -0.000000
v 0.855951 -0.278115 -0.000000
v 0.960000 0.000000 0.000000
v 0.900000 0.000000 0.000000
v 0.913014 0.296656 0.000000
v 0.855951 0.278115 0.000000
v 0.776656 0.564274 0.000000
v 0.728115 0.529007 0.000000
v 0.564274 0.776656 0.000000
v 0.529007 0.728115 0.000000
v 0.296656 0.913014 0.000000
v 0.278115 0.855951 0.000000
v -0.000000 0.960000 0.000000
v -0.000000 0.900000 0.000000
v -0.296656 0.913014 0.000000
v -0.278115 0.855951 0.000000
v -0.564274 0.776656 0.000000
v -0.529007 0.728115 0.000000
v -0.776656 0.564274 0.000000
v -0.728115 0.529007 0.000000
v -0.913014 0.296656 0.000000
v -0.855951 0.278115 0.000000
v -0.960000 -0.000000 -0.000000
v -0.900000 -0.000000 -0.000000
v -0.913014 -0.296656 -0.000000
v -0.855951 -0.278115 -0.000000
v -0.776656 -0.564274 -0.000000
v -0.728115 -0.529007 -0.000000
v -0.564274 -0.776657 -0.000000
v -0.529006 -0.728115 -0.000000
v -0.296656 -0.913014 -0.000000
v -0.278115 -0.855951 -0.000000

vt 0.500000 0.031250
vt 0.500000 0.000000
vt 0.654508 0.024472
vt 0.644852 0.054192
vt 0.793893 0.095492
vt 0.775524 0.120773
vt 0.904508 0.206107
vt 0.879227 0.224476
vt 0.975528 0.345492
vt 0.945808 0.355148
vt 1.000000 0.500000
vt 0.968750 0.500000
vt 0.975528 0.654509
vt 0.945808 0.644852
vt 0.904508 0.793893
vt 0.879227 0.775524
vt 0.793893 0.904509
vt 0.775524 0.879227
vt 0.654508 0.975528
vt 0.644852 0.945808
vt 0.500000 1.000000
vt 0.500000 0.968750
vt 0.345492 0.975528
vt 0.355148 0.945808
vt 0.206107 0.904508
vt 0.224476 0.879227
vt 0.095491 0.793893
vt 0.120773 0.775524
vt 0.024472 0.654509
vt 0.054192 0.644852
vt 0.000000 0.500000
vt 0.031250 0.500000
vt 0.024472 0.345491
vt 0.054192 0.355148
vt 0.095492 0.206107
vt 0.120773 0.224476
vt 0.206108 0.095491
vt 0.224476 0.120773
vt 0.345492 0.024472
vt 0.355148 0.054192
vt 0.000000 0.000000
vt 0.000000 1.000000
vt 0.050000 1.000000
vt 0.050000 0.000000
vt 0.100000 1.000000
vt 0.100000 0.000000
vt 0.150000 1.000000
vt 0.150000 0.000000
vt 0.200000 1.000000
vt 0.200000 0.000000
vt 0.250000 1.000000
vt 0.250000 0.000000
vt 0.300000 1.000000
vt 0.300000 0.000000
vt 0.350000 1.000000
vt 0.350000 0.000000
vt 0.400000 1.000000
vt 0.400000 0.000000
vt 0.450000 1.000000
vt 0.450000 0.000000
vt 0.500000 1.000000
vt 0.550000 1.000000
vt 0.550000 0.000000
vt 0.600000 1.000000
vt 0.600000 0.000000
vt 0.650000 1.000000
vt 0.650000 0.000000
vt 0.700000 1.000000
vt 0.700000 0.000000
vt 0.750000 1.000000
vt 0.750000 0.000000
vt 0.800000 1.000000
vt 0.800000 0.000000
vt 0.850000 1.000000
vt 0.850000 0.000000
vt 0.900000 1.000000
vt 0.900000 0.000000
vt 0.950000 1.000000
vt 0.950000 0.000000
vt 1.000000 1.000000
vt 1.000000 0.000000

vn 0.000000 0.000000 -1.000000
vn 0.000000 -0.000000 1.000000
vn 0.000000 0.000000 0.000000

usemtl default
f 4/4/1 3/3/1 2/2/1 1/1/1
f 6/6/1 5/5/1 3/3/1 4/4/1
f 8/8/1 7/7/1 5/5/1 6/6/1
f 10/10/1 9/9/1 7/7/1 8/8/1
f 12/12/1 11/11/1 9/9/1 10/10/1
f 14/14/1 13/13/1 11/11/1 12/12/1
f 16/16/1 15/15/1 13/13/1 14/14/1
f 18/18/1 17/17/1 15/15/1 16/16/1
f 20/20/1 19/19/1 17/17/1 18/18/1
f 22/22/1 21/21/1 19/19/1 20/20/1
f 24/24/1 23/23/1 21/21/1 22/22/1
f 26/26/1 25/25/1 23/23/1 24/24/1
f 28/28/1 27/27/1 25/25/1 26/26/1
f 30/30/1 29/29/1 27/27/1 28/28/1
f 32/32/1 31/31/1 29/29/1 30/30/1
f 34/34/1 33/33/1 31/31/1 32/32/1
f 36/36/1 35/35/1 33/33/1 34/34/1
f 38/38/1 37/37/1 35/35/1 36/36/1
f 40/40/1 39/39/1 37/37/1 38/38/1
f 1/1/1 2/2/1 39/39/1 40/40/1
f 2/2/2 3/3/2 4/4/2 1/1/2
f 3/3/2 5/5/2 6/6/2 4/4/2
f 5/5/2 7/7/2 8/8/2 6/6/2
f 7/7/2 9/9/2 10/10/2 8/8/2
f 9/9/2 11/11/2 12/12/2 10/10/2
f 11/11/2 13/13/2 14/14/2 12/12/2
f 13/13/2 15/15/2 16/16/2 14/14/2
f 15/15/2 17/17/2 18/18/2 16/16/2
f 17/17/2 19/19/2 20/20/2 18/18/2
f 19/19/2 21/21/2 22/22/2 20/20/2
f 21/21/2 23/23/2 24/24/2 22/22/2
f 23/23/2 25/25/2 26/26/2 24/24/2
f 25/25/2 27/27/2 28/28/2 26/26/2
f 27/27/2 29/29/2 30/30/2 28/28/2
f 29/29/2 31/31/2 32/32/2 30/30/2
f 31/31/2 33/33/2 34/34/2 32/32/2
f 33/33/2 35/35/2 36/36/2 34/34/2
f 35/35/2 37/37/2 38/38/2 36/36/2
f 37/37/2 39/39/2 40/40/2 38/38/2
f 39/39/2 2/2/2 1/1/2 40/40/2
f 3/44/3 3/43/3 2/42/3 2/41/3
f 5/46/3 5/45/3 3/43/3 3/44/3
f 7/48/3 7/47/3 5/45/3 5/46/3
f 9/50/3 9/49/3 7/47/3 7/48/3
f 11/52/3 11/51/3 9/49/3 9/50/3
f 13/54/2 13/53/2 11/51/2 11/52/2
f 15/56/2 15/55/2 13/53/2 13/54/2
f 17/58/2 17/57/2 15/55/2 15/56/2
f 19/60/1 19/59/1 17/57/1 17/58/1
f 21/2/3 21/61/3 19/59/3 19/60/3
f 23/63/1 23/62/1 21/61/1 21/2/1
f 25/65/3 25/64/3 23/62/3 23/63/3
f 27/67/3 27/66/3 25/64/3 25/65/3
f 29/69/3 29/68/3 27/66/3 27/67/3
f 31/71/3 31/70/3 29/68/3 29/69/3
f 33/73/1 33/72/1 31/70/1 31/71/1
f 35/75/2 35/74/2 33/72/2 33/73/2
f 37/77/2 37/76/2 35/74/2 35/75/2
f 39/79/3 39/78/3 37/76/3 37/77/3
f 2/81/1 2/80/1 39/78/1 39/79/1
f 1/42/3 4/43/3 4/44/3 1/41/3
f 4/43/3 6/45/3 6/46/3 4/44/3
f 6/45/3 8/47/3 8/48/3 6/46/3
f 8/47/3 10/49/3 10/50/3 8/48/3
f 10/49/3 12/51/3 12/52/3 10/50/3
f 12/51/3 14/53/3 14/54/3 12/52/3
f 14/53/3 16/55/3 16/56/3 14/54/3
f 16/55/3 18/57/3 18/58/3 16/56/3
f 18/57/3 20/59/3 20/60/3 18/58/3
f 20/59/3 22/61/3 22/2/3 20/60/3
f 22/61/3 24/62/3 24/63/3 22/2/3
f 24/62/3 26/64/3 26/65/3 24/63/3
f 26/64/3 28/66/3 28/67/3 26/65/3
f 28/66/3 30/68/3 30/69/3 28/67/3
f 30/68/3 32/70/3 32/71/3 30/69/3
f 32/70/3 34/72/3 34/73/3 32/71/3
f 34/72/3 36/74/3 36/75/3 34/73/3
f 36/74/3 38/76/3 38/77/3 36/75/3
f 38/76/3 40/78/3 40/79/3 38/77/3
f 40/78/3 1/80/3 1/81/3 40/79/3

