# MagicaVoxel @ ephtracy

# material
mtllib rock1.mtl
usemtl palette

# normals
vn -1 0 0
vn 1 0 0
vn 0 0 1
vn 0 0 -1
vn 0 -1 0
vn 0 1 0

# texcoords
vt 0.935547 0.5

# verts
v -7 0 -4
v -7 0 -6
v -7 1 -4
v -7 1 -6
v -6 0 -6
v -6 0 -7
v -6 1 -5
v -6 1 -6
v -6 1 -7
v -6 2 -5
v -6 2 -6
v -5 1 -4
v -5 1 -5
v -5 2 -4
v -5 2 -5
v -4 0 -4
v -4 0 -7
v -4 1 -6
v -4 1 -7
v -4 2 -4
v -4 2 -6
v -7 0 -4
v -7 1 -4
v -5 1 -4
v -5 2 -4
v -4 0 -4
v -4 2 -4
v -6 1 -5
v -6 2 -5
v -5 1 -5
v -5 2 -5
v -7 0 -6
v -7 1 -6
v -6 0 -6
v -6 1 -6
v -6 2 -6
v -4 1 -6
v -4 2 -6
v -6 0 -7
v -6 1 -7
v -4 0 -7
v -4 1 -7
v -7 0 -4
v -4 0 -4
v -7 0 -6
v -6 0 -6
v -6 0 -7
v -4 0 -7
v -7 1 -4
v -5 1 -4
v -6 1 -5
v -5 1 -5
v -7 1 -6
v -6 1 -6
v -4 1 -6
v -6 1 -7
v -4 1 -7
v -5 2 -4
v -4 2 -4
v -6 2 -5
v -5 2 -5
v -6 2 -6
v -4 2 -6

# faces
f 3/1/1 2/1/1 1/1/1
f 4/1/1 2/1/1 3/1/1
f 8/1/1 6/1/1 5/1/1
f 9/1/1 6/1/1 8/1/1
f 10/1/1 8/1/1 7/1/1
f 11/1/1 8/1/1 10/1/1
f 14/1/1 13/1/1 12/1/1
f 15/1/1 13/1/1 14/1/1
f 16/1/2 17/1/2 18/1/2
f 18/1/2 17/1/2 19/1/2
f 16/1/2 18/1/2 20/1/2
f 20/1/2 18/1/2 21/1/2
f 24/1/3 23/1/3 22/1/3
f 26/1/3 24/1/3 22/1/3
f 26/1/3 25/1/3 24/1/3
f 27/1/3 25/1/3 26/1/3
f 30/1/3 29/1/3 28/1/3
f 31/1/3 29/1/3 30/1/3
f 32/1/4 33/1/4 34/1/4
f 34/1/4 33/1/4 35/1/4
f 35/1/4 36/1/4 37/1/4
f 37/1/4 36/1/4 38/1/4
f 39/1/4 40/1/4 41/1/4
f 41/1/4 40/1/4 42/1/4
f 45/1/5 44/1/5 43/1/5
f 46/1/5 44/1/5 45/1/5
f 47/1/5 44/1/5 46/1/5
f 48/1/5 44/1/5 47/1/5
f 49/1/6 50/1/6 51/1/6
f 51/1/6 50/1/6 52/1/6
f 49/1/6 51/1/6 53/1/6
f 53/1/6 51/1/6 54/1/6
f 54/1/6 55/1/6 56/1/6
f 56/1/6 55/1/6 57/1/6
f 58/1/6 59/1/6 61/1/6
f 60/1/6 61/1/6 62/1/6
f 61/1/6 59/1/6 63/1/6
f 62/1/6 61/1/6 63/1/6
