# WaveFront *.obj file (generated by Cheetah3D)

mtllib ship.mtl

g 立方体
v -0.082736 0.122571 -0.372070
v -0.073612 0.039009 -0.372070
v -0.000000 0.061798 -0.485528
v -0.000000 -0.019026 -0.485528
v -0.047772 -0.031182 -0.372070
v -0.000000 0.129092 -0.485528
v -0.013826 0.061798 -0.485528
v -0.009922 -0.013142 -0.485528
v -0.015219 0.129092 -0.485528
v -0.086984 -0.045299 0.441860
v -0.130959 0.000000 0.476642
v 0.000000 0.000000 0.485975
v 0.000000 -0.059946 0.444134
v -0.147118 0.108560 0.485528
v 0.000000 0.108560 0.494861
v -0.000000 -0.041772 -0.372070
v -0.157987 0.000000 0.408535
v -0.168636 0.108560 0.412901
v -0.105354 -0.058808 0.380198
v 0.000000 -0.074470 0.384783
v 0.000000 0.108560 0.417486
v -0.187178 0.000000 0.000000
v -0.133163 -0.074197 0.000000
v -0.197828 0.108560 0.000000
v 0.000000 0.108560 0.000000
v 0.000000 -0.089524 0.000000
v -0.169054 0.000000 0.342756
v -0.179703 0.108560 0.342756
v -0.118945 -0.068080 0.327461
v 0.000000 -0.083407 0.327461
v 0.000000 0.108560 0.342756
v -0.163406 0.114779 -0.236507
v -0.000000 0.114779 -0.236507
v -0.145045 0.011780 -0.236507
v -0.092995 -0.052736 -0.236507
v -0.000000 -0.068950 -0.236507
v -0.000000 0.122571 -0.372070
v 0.082736 0.122571 -0.372070
v 0.073612 0.039009 -0.372070
v 0.047772 -0.031182 -0.372070
v 0.013826 0.061798 -0.485528
v 0.009922 -0.013142 -0.485528
v 0.015219 0.129092 -0.485528
v 0.086984 -0.045299 0.441860
v 0.130959 0.000000 0.476642
v 0.147118 0.108560 0.485528
v 0.157987 0.000000 0.408535
v 0.168636 0.108560 0.412901
v 0.105354 -0.058808 0.380198
v 0.187178 0.000000 -0.000000
v 0.133163 -0.074197 -0.000000
v 0.197828 0.108560 -0.000000
v 0.169054 0.000000 0.342756
v 0.179703 0.108560 0.342756
v 0.118945 -0.068080 0.327461
v 0.163406 0.114779 -0.236507
v 0.145045 0.011780 -0.236507
v 0.092995 -0.052736 -0.236507

vt 1.000000 0.743557
vt 1.000000 0.500000
vt 0.500000 0.500000
vt 0.500000 0.743557
vt 1.000000 0.074792
vt 1.000000 0.000000
vt 0.500000 0.000000
vt 0.500000 0.074792
vt 0.500000 1.000000
vt 1.000000 1.000000
vt 0.000000 0.000000
vt 0.000000 0.500000
vt 0.000000 1.000000
vt 1.000000 0.852972
vt 0.500000 0.852972
vt 1.000000 0.116840
vt 0.500000 0.116840
vt 0.925208 1.000000
vt 0.925208 0.500000
vt 0.925208 0.000000
vt 0.256443 1.000000
vt 0.256443 0.500000
vt 0.256443 0.000000
vt 0.852972 0.500000
vt 0.852972 1.000000
vt 0.852972 0.000000
vt 0.500000 0.147028
vt 1.000000 0.147028
vt 1.000000 0.925208
vt 0.500000 0.925208
vt 0.500000 0.256443
vt 1.000000 0.256443
vt 0.116840 1.000000
vt 0.116840 0.500000
vt 0.116840 0.000000
vt 1.000000 0.883160
vt 0.500000 0.883160

vn -0.398447 -0.901067 -0.171225
vn -0.510349 -0.858011 -0.057970
vn 0.000000 -0.999221 -0.039459
vn 0.000000 -0.988131 -0.153614
vn -0.431843 -0.869397 0.240127
vn -0.307650 -0.825640 0.472938
vn 0.000000 -0.834351 0.551234
vn 0.000000 -0.976721 0.214513
vn -0.000000 0.000000 -1.000000
vn -0.291568 -0.548193 0.783883
vn 0.000000 -0.363356 0.931651
vn -0.077966 -0.362250 0.928815
vn -0.066721 -0.086327 0.994030
vn 0.000000 -0.086520 0.996250
vn -0.000000 1.000000 0.000000
vn 0.000000 0.999914 0.013143
vn 0.000000 0.998352 0.057385
vn -0.963063 -0.117841 0.242123
vn -0.936637 -0.135369 0.323088
vn -0.825926 -0.459521 0.326629
vn -0.866414 -0.427222 0.258473
vn -0.797184 -0.531805 0.285799
vn -0.634052 -0.561729 0.531450
vn -0.933114 -0.132359 -0.334335
vn -0.991642 -0.116442 -0.055561
vn -0.928022 -0.367079 -0.063470
vn -0.882901 -0.338278 -0.325660
vn -0.624978 -0.776205 -0.083112
vn -0.523834 -0.814896 -0.248078
vn -0.919464 -0.374473 0.119812
vn -0.989422 -0.098669 0.106343
vn -0.598868 -0.786651 0.150122
vn 0.000000 -0.994898 0.100890
vn -0.129300 -0.990833 -0.039128
vn -0.353399 -0.924485 0.142958
vn 0.000000 1.000000 -0.000000
vn 0.000000 0.999124 0.041840
vn 0.000000 0.999914 0.013143
vn 0.000000 0.999124 0.041840
vn -0.863113 -0.093466 -0.496286
vn -0.861647 -0.207940 -0.462954
vn -0.791568 -0.531273 -0.301942
vn -0.722416 -0.571992 -0.388510
vn -0.225967 -0.951513 -0.208716
vn -0.000000 -0.976777 -0.214258
vn 0.000000 0.998352 0.057385
vn -0.881387 -0.121941 -0.456384
vn -0.867183 -0.060456 -0.494305
vn -0.847665 -0.320916 -0.422465
vn -0.890791 -0.182564 -0.416128
vn -0.000000 -0.975113 -0.221709
vn -0.268230 -0.939380 -0.213585
vn -0.449755 -0.840364 -0.302505
vn -0.921547 -0.306394 0.238483
vn -0.489795 -0.863487 0.120381
vn 0.398447 -0.901067 -0.171225
vn 0.510349 -0.858011 -0.057970
vn 0.431843 -0.869397 0.240127
vn 0.307650 -0.825640 0.472937
vn 0.291568 -0.548193 0.783883
vn 0.077967 -0.362250 0.928815
vn 0.066721 -0.086327 0.994030
vn 0.963063 -0.117841 0.242123
vn 0.866414 -0.427222 0.258473
vn 0.825926 -0.459521 0.326629
vn 0.936637 -0.135369 0.323088
vn 0.797184 -0.531805 0.285799
vn 0.634052 -0.561729 0.531449
vn 0.933114 -0.132359 -0.334335
vn 0.882901 -0.338278 -0.325660
vn 0.928022 -0.367079 -0.063470
vn 0.991642 -0.116442 -0.055561
vn 0.523834 -0.814896 -0.248078
vn 0.624978 -0.776205 -0.083112
vn 0.919464 -0.374473 0.119812
vn 0.989422 -0.098669 0.106343
vn 0.598868 -0.786651 0.150122
vn 0.353399 -0.924485 0.142958
vn 0.129300 -0.990833 -0.039128
vn 0.863113 -0.093466 -0.496286
vn 0.861647 -0.207940 -0.462954
vn 0.722416 -0.571992 -0.388510
vn 0.791568 -0.531273 -0.301942
vn 0.225967 -0.951513 -0.208716
vn 0.867183 -0.060456 -0.494306
vn 0.881387 -0.121941 -0.456385
vn 0.847665 -0.320916 -0.422466
vn 0.890791 -0.182564 -0.416128
vn 0.449754 -0.840364 -0.302505
vn 0.268230 -0.939380 -0.213585
vn 0.921547 -0.306394 0.238483
vn 0.489795 -0.863487 0.120381

usemtl default
f 36/4/4 26/3/3 23/2/2 35/1/1
f 20/8/8 13/7/7 10/6/6 19/5/5
f 8/6/9 7/2/9 3/3/9 4/7/9
f 7/2/9 9/10/9 6/9/9 3/3/9
f 13/7/7 12/3/11 11/12/10 10/11/6
f 12/3/11 15/9/14 14/13/13 11/12/12
f 31/15/15 25/3/16 24/2/16 28/14/15
f 37/17/17 6/7/17 9/6/17 1/16/17
f 17/19/21 11/2/20 14/10/19 18/18/18
f 19/20/5 10/6/6 11/2/23 17/19/22
f 34/22/27 22/3/26 24/9/25 32/21/24
f 35/23/29 23/7/28 22/3/26 34/22/27
f 28/25/31 24/9/25 22/3/26 27/24/30
f 27/24/30 22/3/26 23/7/28 29/26/32
f 29/28/35 23/2/34 26/3/3 30/27/33
f 21/30/36 31/15/15 28/14/15 18/29/15
f 32/32/39 24/2/16 25/3/38 33/31/37
f 2/34/41 34/22/27 32/21/24 1/33/40
f 5/35/43 35/23/42 34/22/27 2/34/41
f 16/37/45 36/4/4 35/1/1 5/36/44
f 1/16/17 32/32/39 33/31/37 37/17/46
f 1/33/40 9/13/48 7/12/47 2/34/41
f 2/34/41 7/12/47 8/11/50 5/35/49
f 5/36/53 8/10/52 4/9/51 16/37/45
f 18/18/18 28/25/31 27/24/30 17/19/54
f 17/19/21 27/24/30 29/26/55 19/20/5
f 19/5/5 29/28/55 30/27/33 20/8/8
f 18/29/15 14/10/15 15/9/36 21/30/36
f 51/2/57 26/3/3 36/4/4 58/1/56
f 44/6/59 13/7/7 20/8/8 49/5/58
f 3/3/9 41/2/9 42/6/9 4/7/9
f 6/9/9 43/10/9 41/2/9 3/3/9
f 45/12/60 12/3/11 13/7/7 44/11/59
f 46/13/62 15/9/14 12/3/11 45/12/61
f 52/2/38 25/3/38 31/15/15 54/14/15
f 43/6/46 6/7/46 37/17/46 38/16/46
f 46/10/66 45/2/65 47/19/64 48/18/63
f 45/2/68 44/6/59 49/20/58 47/19/67
f 52/9/72 50/3/71 57/22/70 56/21/69
f 50/3/71 51/7/74 58/23/73 57/22/70
f 50/3/71 52/9/72 54/25/76 53/24/75
f 51/7/74 50/3/71 53/24/75 55/26/77
f 26/3/3 51/2/79 55/28/78 30/27/33
f 54/14/15 31/15/15 21/30/36 48/29/36
f 25/3/38 52/2/38 56/32/37 33/31/37
f 56/21/69 57/22/70 39/34/81 38/33/80
f 57/22/70 58/23/83 40/35/82 39/34/81
f 58/1/56 36/4/4 16/37/45 40/36/84
f 33/31/37 56/32/37 38/16/46 37/17/46
f 41/12/86 43/13/85 38/33/80 39/34/81
f 42/11/88 41/12/86 39/34/81 40/35/87
f 4/9/51 42/10/90 40/36/89 16/37/45
f 53/24/75 54/25/76 48/18/63 47/19/91
f 55/26/92 53/24/75 47/19/64 49/20/58
f 30/27/33 55/28/92 49/5/58 20/8/8
f 15/9/36 46/10/36 48/29/36 21/30/36

