ply
format ascii 1.0
comment : 
comment : MagicaVoxel @ ephtracy
element vertex 690
property float x
property float y
property float z
property uchar red
property uchar green
property uchar blue
element face 552
property list uchar int vertex_index
end_header
-1 3 2 205 205 205
0 3 2 196 196 196
0 3 1 182 182 182
-1 3 1 195 195 195
-0.5 3 1.5 194 194 194
0 3 2 196 196 196
1 3 2 198 198 198
1 3 1 186 186 186
0 3 1 182 182 182
0.5 3 1.5 191 191 191
-1 3 1 195 195 195
0 3 1 182 182 182
0 3 -0 176 176 176
-1 3 -0 190 190 190
-0.5 3 0.5 186 186 186
1 3 2 198 198 198
2 3 2 209 209 209
2 3 1 200 200 200
1 3 1 186 186 186
1.5 3 1.5 198 198 198
-1 3 -0 190 190 190
0 3 -0 176 176 176
0 3 -1 191 191 191
-1 3 -1 197 197 197
-0.5 3 -0.5 189 189 189
1 3 1 186 186 186
2 3 1 200 200 200
2 3 -0 198 198 198
1 3 -0 182 182 182
1.5 3 0.5 192 192 192
0 3 -0 176 176 176
1 3 -0 182 182 182
1 3 -1 195 195 195
0 3 -1 191 191 191
0.5 3 -0.5 186 186 186
1 3 -0 182 182 182
2 3 -0 198 198 198
2 3 -1 207 207 207
1 3 -1 195 195 195
1.5 3 -0.5 196 196 196
0 15 1 61 61 61
1 15 1 61 61 61
1 15 -0 61 61 61
0 15 -0 61 61 61
0.5 15 0.5 61 61 61
-1 14 1 169 22 57
0 14 1 158 21 53
0 14 -0 154 20 52
-1 14 -0 168 22 57
-0.5 14 0.5 162 21 55
-4 13 1 179 23 61
-3 13 1 169 22 57
-3 13 -0 167 22 57
-4 13 -0 179 23 61
-3.5 13 0.5 174 23 59
-1 12 1 117 15 40
0 12 1 119 15 40
0 12 -0 111 14 37
-1 12 -0 107 14 36
-0.5 12 0.5 114 15 38
-2 14 1 179 23 61
-1 14 1 169 22 57
-1 14 -0 168 22 57
-2 14 -0 179 23 61
-1.5 14 0.5 174 23 59
-3 13 1 169 22 57
-2 13 1 155 20 52
-2 13 -0 150 19 51
-3 13 -0 167 22 57
-2.5 13 0.5 160 21 54
2 0 1 134 134 134
2 0 -0 134 134 134
2 1 -0 138 138 138
2 1 1 138 138 138
2 0.5 0.5 136 136 136
2 0 2 134 134 134
2 0 1 134 134 134
2 1 1 138 138 138
2 1 2 138 138 138
2 0.5 1.5 136 136 136
2 0 -0 134 134 134
2 0 -1 134 134 134
2 1 -1 138 138 138
2 1 -0 138 138 138
2 0.5 -0.5 136 136 136
2 1 1 138 138 138
2 1 -0 138 138 138
2 2 -0 143 143 143
2 2 1 143 143 143
2 1.5 0.5 141 141 141
2 1 2 138 138 138
2 1 1 138 138 138
2 2 1 143 143 143
2 2 2 143 143 143
2 1.5 1.5 141 141 141
2 1 -0 138 138 138
2 1 -1 138 138 138
2 2 -1 143 143 143
2 2 -0 143 143 143
2 1.5 -0.5 141 141 141
-2 10 1 99 13 33
-2 10 -0 96 12 32
-2 11 -0 89 11 30
-2 11 1 93 12 31
-2 10.5 0.5 94 12 32
1 3 1 39 39 39
1 3 -0 39 39 39
1 4 -0 39 39 39
1 4 1 39 39 39
1 3.5 0.5 39 39 39
1 4 1 39 39 39
1 4 -0 39 39 39
1 5 -0 41 41 41
1 5 1 41 41 41
1 4.5 0.5 40 40 40
1 5 1 41 41 41
1 5 -0 41 41 41
1 6 -0 42 42 42
1 6 1 42 42 42
1 5.5 0.5 41 41 41
1 6 1 42 42 42
1 6 -0 42 42 42
1 7 -0 43 43 43
1 7 1 43 43 43
1 6.5 0.5 43 43 43
1 7 1 43 43 43
1 7 -0 43 43 43
1 8 -0 44 44 44
1 8 1 44 44 44
1 7.5 0.5 44 44 44
1 8 1 44 44 44
1 8 -0 44 44 44
1 9 -0 45 45 45
1 9 1 45 45 45
1 8.5 0.5 45 45 45
1 9 1 45 45 45
1 9 -0 45 45 45
1 10 -0 46 46 46
1 10 1 46 46 46
1 9.5 0.5 45 45 45
2 2 2 143 143 143
2 2 1 143 143 143
2 3 1 147 147 147
2 3 2 147 147 147
2 2.5 1.5 145 145 145
2 2 1 143 143 143
2 2 -0 143 143 143
2 3 -0 148 148 148
2 3 1 147 147 147
2 2.5 0.5 145 145 145
2 2 -0 143 143 143
2 2 -1 143 143 143
2 3 -1 148 148 148
2 3 -0 148 148 148
2 2.5 -0.5 145 145 145
1 10 1 46 46 46
1 10 -0 46 46 46
1 11 -0 47 47 47
1 11 1 47 47 47
1 10.5 0.5 46 46 46
1 11 1 141 18 47
1 11 -0 141 18 48
1 12 -0 143 19 48
1 12 1 143 19 48
1 11.5 0.5 142 18 48
1 12 1 48 48 48
1 12 -0 48 48 48
1 13 -0 48 48 48
1 13 1 48 48 48
1 12.5 0.5 48 48 48
1 13 1 145 19 49
1 13 -0 145 19 49
1 14 -0 147 19 50
1 14 1 147 19 50
1 13.5 0.5 146 19 49
1 14 1 49 49 49
1 14 -0 49 49 49
1 15 -0 50 50 50
1 15 1 50 50 50
1 14.5 0.5 49 49 49
-1 12 1 93 12 31
-1 12 -0 87 11 29
-1 13 -0 90 12 30
-1 13 1 95 12 32
-1 12.5 0.5 91 12 31
-1 0 -1 127 127 127
-1 1 -1 132 132 132
0 1 -1 131 131 131
0 0 -1 127 127 127
-0.5 0.5 -1 129 129 129
0 0 -1 127 127 127
0 1 -1 131 131 131
1 1 -1 131 131 131
1 0 -1 127 127 127
0.5 0.5 -1 129 129 129
1 0 -1 127 127 127
1 1 -1 131 131 131
2 1 -1 132 132 132
2 0 -1 127 127 127
1.5 0.5 -1 129 129 129
-4 10 -0 133 17 45
-4 11 -0 135 18 46
-3 11 -0 135 18 46
-3 10 -0 133 17 45
-3.5 10.5 -0 134 17 45
0 1 -1 131 131 131
0 2 -1 135 135 135
1 2 -1 135 135 135
1 1 -1 131 131 131
0.5 1.5 -1 133 133 133
-1 1 -1 132 132 132
-1 2 -1 136 136 136
0 2 -1 135 135 135
0 1 -1 131 131 131
-0.5 1.5 -1 134 134 134
1 1 -1 131 131 131
1 2 -1 135 135 135
2 2 -1 135 135 135
2 1 -1 132 132 132
1.5 1.5 -1 133 133 133
-3 10 -0 133 17 45
-3 11 -0 135 18 46
-2 11 -0 135 18 46
-2 10 -0 132 17 45
-2.5 10.5 -0 134 17 45
0 3 -0 37 37 37
0 4 -0 37 37 37
1 4 -0 37 37 37
1 3 -0 37 37 37
0.5 3.5 -0 37 37 37
0 4 -0 37 37 37
0 5 -0 39 39 39
1 5 -0 39 39 39
1 4 -0 37 37 37
0.5 4.5 -0 38 38 38
0 5 -0 39 39 39
0 6 -0 40 40 40
1 6 -0 40 40 40
1 5 -0 39 39 39
0.5 5.5 -0 39 39 39
0 6 -0 40 40 40
0 7 -0 41 41 41
1 7 -0 41 41 41
1 6 -0 40 40 40
0.5 6.5 -0 41 41 41
0 7 -0 41 41 41
0 8 -0 42 42 42
1 8 -0 42 42 42
1 7 -0 41 41 41
0.5 7.5 -0 42 42 42
0 8 -0 42 42 42
0 9 -0 43 43 43
1 9 -0 43 43 43
1 8 -0 42 42 42
0.5 8.5 -0 43 43 43
0 9 -0 43 43 43
0 10 -0 44 44 44
1 10 -0 44 44 44
1 9 -0 43 43 43
0.5 9.5 -0 43 43 43
-1 2 -1 136 136 136
-1 3 -1 139 139 139
0 3 -1 139 139 139
0 2 -1 135 135 135
-0.5 2.5 -1 137 137 137
0 2 -1 135 135 135
0 3 -1 139 139 139
1 3 -1 139 139 139
1 2 -1 135 135 135
0.5 2.5 -1 137 137 137
1 2 -1 135 135 135
1 3 -1 139 139 139
2 3 -1 139 139 139
2 2 -1 135 135 135
1.5 2.5 -1 137 137 137
0 10 -0 44 44 44
0 11 -0 45 45 45
1 11 -0 45 45 45
1 10 -0 44 44 44
0.5 10.5 -0 44 44 44
0 11 -0 135 18 46
0 12 -0 138 18 47
1 12 -0 138 18 47
1 11 -0 135 18 46
0.5 11.5 -0 137 18 46
0 12 -0 46 46 46
0 13 -0 47 47 47
1 13 -0 47 47 47
1 12 -0 46 46 46
0.5 12.5 -0 46 46 46
0 13 -0 140 18 47
0 14 -0 142 18 48
1 14 -0 142 18 48
1 13 -0 140 18 47
0.5 13.5 -0 141 18 48
0 14 -0 47 47 47
0 15 -0 48 48 48
1 15 -0 48 48 48
1 14 -0 47 47 47
0.5 14.5 -0 47 47 47
-1 13 -0 140 18 47
-1 14 -0 142 18 48
0 14 -0 142 18 48
0 13 -0 140 18 47
-0.5 13.5 -0 141 18 48
-4 12 -0 138 18 47
-4 13 -0 140 18 47
-3 13 -0 140 18 47
-3 12 -0 138 18 47
-3.5 12.5 -0 139 18 47
-1 11 -0 135 18 46
-1 12 -0 138 18 47
0 12 -0 138 18 47
0 11 -0 135 18 46
-0.5 11.5 -0 137 18 46
-2 11 -0 135 18 46
-2 12 -0 138 18 47
-1 12 -0 138 18 47
-1 11 -0 135 18 46
-1.5 11.5 -0 137 18 46
-2 12 -0 138 18 47
-2 13 -0 140 18 47
-1 13 -0 140 18 47
-1 12 -0 138 18 47
-1.5 12.5 -0 139 18 47
-2 13 -0 140 18 47
-2 14 -0 142 18 48
-1 14 -0 142 18 48
-1 13 -0 140 18 47
-1.5 13.5 -0 141 18 48
-4 11 -0 135 18 46
-4 12 -0 138 18 47
-3 12 -0 138 18 47
-3 11 -0 135 18 46
-3.5 11.5 -0 137 18 46
-3 12 -0 138 18 47
-3 13 -0 140 18 47
-2 13 -0 140 18 47
-2 12 -0 138 18 47
-2.5 12.5 -0 139 18 47
-3 11 -0 135 18 46
-3 12 -0 138 18 47
-2 12 -0 138 18 47
-2 11 -0 135 18 46
-2.5 11.5 -0 137 18 46
0 0 2 25 25 25
0 0 1 25 25 25
1 0 1 25 25 25
1 0 2 25 25 25
0.5 0 1.5 25 25 25
1 0 1 25 25 25
1 0 -0 25 25 25
2 0 -0 25 25 25
2 0 1 25 25 25
1.5 0 0.5 25 25 25
1 0 2 25 25 25
1 0 1 25 25 25
2 0 1 25 25 25
2 0 2 25 25 25
1.5 0 1.5 25 25 25
0 0 1 25 25 25
0 0 -0 25 25 25
1 0 -0 25 25 25
1 0 1 25 25 25
0.5 0 0.5 25 25 25
-1 0 2 25 25 25
-1 0 1 25 25 25
0 0 1 25 25 25
0 0 2 25 25 25
-0.5 0 1.5 25 25 25
-1 0 1 25 25 25
-1 0 -0 25 25 25
0 0 -0 25 25 25
0 0 1 25 25 25
-0.5 0 0.5 25 25 25
-1 0 -0 25 25 25
-1 0 -1 25 25 25
0 0 -1 25 25 25
0 0 -0 25 25 25
-0.5 0 -0.5 25 25 25
0 0 -0 25 25 25
0 0 -1 25 25 25
1 0 -1 25 25 25
1 0 -0 25 25 25
0.5 0 -0.5 25 25 25
1 0 -0 25 25 25
1 0 -1 25 25 25
2 0 -1 25 25 25
2 0 -0 25 25 25
1.5 0 -0.5 25 25 25
-4 10 1 41 5 14
-4 10 -0 41 5 13
-3 10 -0 40 5 13
-3 10 1 40 5 13
-3.5 10 0.5 41 5 13
-3 10 1 40 5 13
-3 10 -0 40 5 13
-2 10 -0 40 5 13
-2 10 1 40 5 13
-2.5 10 0.5 40 5 13
-1 13 1 39 5 13
-1 13 -0 39 5 13
0 13 -0 40 5 13
0 13 1 40 5 13
-0.5 13 0.5 39 5 13
-1 11 1 38 5 13
-1 11 -0 38 5 12
0 11 -0 37 5 12
0 11 1 38 5 13
-0.5 11 0.5 38 5 12
-2 11 1 38 5 12
-2 11 -0 37 5 12
-1 11 -0 38 5 12
-1 11 1 38 5 13
-1.5 11 0.5 38 5 12
-1 0 2 131 131 131
-1 1 2 135 135 135
-1 1 1 135 135 135
-1 0 1 131 131 131
-1 0.5 1.5 133 133 133
-1 0 1 131 131 131
-1 1 1 135 135 135
-1 1 -0 135 135 135
-1 0 -0 131 131 131
-1 0.5 0.5 133 133 133
-1 0 -0 131 131 131
-1 1 -0 135 135 135
-1 1 -1 135 135 135
-1 0 -1 131 131 131
-1 0.5 -0.5 133 133 133
-4 10 1 138 18 47
-4 11 1 141 18 48
-4 11 -0 141 18 48
-4 10 -0 138 18 47
-4 10.5 0.5 140 18 47
-1 1 1 135 135 135
-1 2 1 139 139 139
-1 2 -0 139 139 139
-1 1 -0 135 135 135
-1 1.5 0.5 137 137 137
-1 1 2 135 135 135
-1 2 2 139 139 139
-1 2 1 139 139 139
-1 1 1 135 135 135
-1 1.5 1.5 137 137 137
-1 1 -0 135 135 135
-1 2 -0 139 139 139
-1 2 -1 139 139 139
-1 1 -1 135 135 135
-1 1.5 -0.5 137 137 137
0 3 1 38 38 38
0 4 1 38 38 38
0 4 -0 38 38 38
0 3 -0 37 37 37
0 3.5 0.5 38 38 38
0 4 1 38 38 38
0 5 1 39 39 39
0 5 -0 40 40 40
0 4 -0 38 38 38
0 4.5 0.5 39 39 39
0 5 1 39 39 39
0 6 1 40 40 40
0 6 -0 40 40 40
0 5 -0 40 40 40
0 5.5 0.5 40 40 40
0 6 1 40 40 40
0 7 1 40 40 40
0 7 -0 41 41 41
0 6 -0 40 40 40
0 6.5 0.5 40 40 40
0 7 1 40 40 40
0 8 1 40 40 40
0 8 -0 40 40 40
0 7 -0 41 41 41
0 7.5 0.5 40 40 40
0 8 1 40 40 40
0 9 1 38 38 38
0 9 -0 39 39 39
0 8 -0 40 40 40
0 8.5 0.5 39 39 39
0 9 1 38 38 38
0 10 1 34 34 34
0 10 -0 35 35 35
0 9 -0 39 39 39
0 9.5 0.5 37 37 37
-1 2 2 139 139 139
-1 3 2 143 143 143
-1 3 1 143 143 143
-1 2 1 139 139 139
-1 2.5 1.5 141 141 141
-1 2 1 139 139 139
-1 3 1 143 143 143
-1 3 -0 143 143 143
-1 2 -0 139 139 139
-1 2.5 0.5 141 141 141
-1 2 -0 139 139 139
-1 3 -0 143 143 143
-1 3 -1 143 143 143
-1 2 -1 139 139 139
-1 2.5 -0.5 141 141 141
0 10 1 34 34 34
0 11 1 31 31 31
0 11 -0 32 32 32
0 10 -0 35 35 35
0 10.5 0.5 33 33 33
0 12 1 29 29 29
0 13 1 31 31 31
0 13 -0 31 31 31
0 12 -0 29 29 29
0 12.5 0.5 30 30 30
0 14 1 41 41 41
0 15 1 46 46 46
0 15 -0 46 46 46
0 14 -0 41 41 41
0 14.5 0.5 44 44 44
-4 12 1 144 19 49
-4 13 1 146 19 49
-4 13 -0 146 19 49
-4 12 -0 144 19 49
-4 12.5 0.5 145 19 49
-2 13 1 125 16 42
-2 14 1 140 18 47
-2 14 -0 140 18 47
-2 13 -0 125 16 42
-2 13.5 0.5 132 17 45
-4 11 1 141 18 48
-4 12 1 144 19 49
-4 12 -0 144 19 49
-4 11 -0 141 18 48
-4 11.5 0.5 143 19 48
0 0 2 134 134 134
1 0 2 134 134 134
1 1 2 140 140 140
0 1 2 140 140 140
0.5 0.5 2 137 137 137
1 0 2 134 134 134
2 0 2 134 134 134
2 1 2 140 140 140
1 1 2 140 140 140
1.5 0.5 2 137 137 137
-1 0 2 134 134 134
0 0 2 134 134 134
0 1 2 140 140 140
-1 1 2 140 140 140
-0.5 0.5 2 137 137 137
-4 10 1 141 18 47
-3 10 1 141 18 47
-3 11 1 144 19 48
-4 11 1 143 19 48
-3.5 10.5 1 142 18 48
0 1 2 140 140 140
1 1 2 140 140 140
1 2 2 146 146 146
0 2 2 146 146 146
0.5 1.5 2 143 143 143
-1 1 2 140 140 140
0 1 2 140 140 140
0 2 2 146 146 146
-1 2 2 146 146 146
-0.5 1.5 2 143 143 143
1 1 2 140 140 140
2 1 2 140 140 140
2 2 2 146 146 146
1 2 2 146 146 146
1.5 1.5 2 143 143 143
-3 10 1 141 18 47
-2 10 1 141 18 47
-2 11 1 144 19 48
-3 11 1 144 19 48
-2.5 10.5 1 142 18 48
0 3 1 40 40 40
1 3 1 40 40 40
1 4 1 41 41 41
0 4 1 41 41 41
0.5 3.5 1 40 40 40
0 4 1 41 41 41
1 4 1 41 41 41
1 5 1 42 42 42
0 5 1 42 42 42
0.5 4.5 1 41 41 41
0 5 1 42 42 42
1 5 1 42 42 42
1 6 1 43 43 43
0 6 1 43 43 43
0.5 5.5 1 43 43 43
0 6 1 43 43 43
1 6 1 43 43 43
1 7 1 44 44 44
0 7 1 44 44 44
0.5 6.5 1 44 44 44
0 7 1 44 44 44
1 7 1 44 44 44
1 8 1 45 45 45
0 8 1 45 45 45
0.5 7.5 1 44 44 44
0 8 1 45 45 45
1 8 1 45 45 45
1 9 1 46 46 46
0 9 1 46 46 46
0.5 8.5 1 45 45 45
0 9 1 46 46 46
1 9 1 46 46 46
1 10 1 47 47 47
0 10 1 47 47 47
0.5 9.5 1 46 46 46
-1 2 2 146 146 146
0 2 2 146 146 146
0 3 2 151 151 151
-1 3 2 151 151 151
-0.5 2.5 2 148 148 148
0 2 2 146 146 146
1 2 2 146 146 146
1 3 2 151 151 151
0 3 2 151 151 151
0.5 2.5 2 148 148 148
1 2 2 146 146 146
2 2 2 146 146 146
2 3 2 151 151 151
1 3 2 151 151 151
1.5 2.5 2 148 148 148
0 10 1 47 47 47
1 10 1 47 47 47
1 11 1 48 48 48
0 11 1 48 48 48
0.5 10.5 1 47 47 47
0 11 1 144 19 49
1 11 1 144 19 49
1 12 1 145 19 49
0 12 1 146 19 49
0.5 11.5 1 145 19 49
0 12 1 48 48 48
1 12 1 48 48 48
1 13 1 49 49 49
0 13 1 49 49 49
0.5 12.5 1 49 49 49
0 13 1 148 19 50
1 13 1 147 19 50
1 14 1 150 19 51
0 14 1 150 19 51
0.5 13.5 1 149 19 50
0 14 1 50 50 50
1 14 1 50 50 50
1 15 1 50 50 50
0 15 1 51 51 51
0.5 14.5 1 50 50 50
-1 13 1 148 19 50
0 13 1 148 19 50
0 14 1 150 19 51
-1 14 1 150 20 51
-0.5 13.5 1 149 19 50
-4 12 1 147 19 49
-3 12 1 146 19 49
-3 13 1 148 19 50
-4 13 1 149 19 50
-3.5 12.5 1 147 19 50
-1 11 1 144 19 49
0 11 1 144 19 49
0 12 1 146 19 49
-1 12 1 146 19 49
-0.5 11.5 1 145 19 49
-2 11 1 144 19 48
-1 11 1 144 19 49
-1 12 1 146 19 49
-2 12 1 146 19 49
-1.5 11.5 1 145 19 49
-2 12 1 146 19 49
-1 12 1 146 19 49
-1 13 1 148 19 50
-2 13 1 148 19 50
-1.5 12.5 1 147 19 50
-2 13 1 148 19 50
-1 13 1 148 19 50
-1 14 1 150 20 51
-2 14 1 150 20 51
-1.5 13.5 1 149 19 50
-4 11 1 143 19 48
-3 11 1 144 19 48
-3 12 1 146 19 49
-4 12 1 147 19 49
-3.5 11.5 1 145 19 49
-3 12 1 146 19 49
-2 12 1 146 19 49
-2 13 1 148 19 50
-3 13 1 148 19 50
-2.5 12.5 1 147 19 50
-3 11 1 144 19 48
-2 11 1 144 19 48
-2 12 1 146 19 49
-3 12 1 146 19 49
-2.5 11.5 1 145 19 49
3 4 0 1
3 4 1 2
3 4 2 3
3 4 3 0
3 9 5 6
3 9 6 7
3 9 7 8
3 9 8 5
3 14 10 11
3 14 11 12
3 14 12 13
3 14 13 10
3 19 15 16
3 19 16 17
3 19 17 18
3 19 18 15
3 24 20 21
3 24 21 22
3 24 22 23
3 24 23 20
3 29 25 26
3 29 26 27
3 29 27 28
3 29 28 25
3 34 30 31
3 34 31 32
3 34 32 33
3 34 33 30
3 39 35 36
3 39 36 37
3 39 37 38
3 39 38 35
3 44 40 41
3 44 41 42
3 44 42 43
3 44 43 40
3 49 45 46
3 49 46 47
3 49 47 48
3 49 48 45
3 54 50 51
3 54 51 52
3 54 52 53
3 54 53 50
3 59 55 56
3 59 56 57
3 59 57 58
3 59 58 55
3 64 60 61
3 64 61 62
3 64 62 63
3 64 63 60
3 69 65 66
3 69 66 67
3 69 67 68
3 69 68 65
3 74 70 71
3 74 71 72
3 74 72 73
3 74 73 70
3 79 75 76
3 79 76 77
3 79 77 78
3 79 78 75
3 84 80 81
3 84 81 82
3 84 82 83
3 84 83 80
3 89 85 86
3 89 86 87
3 89 87 88
3 89 88 85
3 94 90 91
3 94 91 92
3 94 92 93
3 94 93 90
3 99 95 96
3 99 96 97
3 99 97 98
3 99 98 95
3 104 100 101
3 104 101 102
3 104 102 103
3 104 103 100
3 109 105 106
3 109 106 107
3 109 107 108
3 109 108 105
3 114 110 111
3 114 111 112
3 114 112 113
3 114 113 110
3 119 115 116
3 119 116 117
3 119 117 118
3 119 118 115
3 124 120 121
3 124 121 122
3 124 122 123
3 124 123 120
3 129 125 126
3 129 126 127
3 129 127 128
3 129 128 125
3 134 130 131
3 134 131 132
3 134 132 133
3 134 133 130
3 139 135 136
3 139 136 137
3 139 137 138
3 139 138 135
3 144 140 141
3 144 141 142
3 144 142 143
3 144 143 140
3 149 145 146
3 149 146 147
3 149 147 148
3 149 148 145
3 154 150 151
3 154 151 152
3 154 152 153
3 154 153 150
3 159 155 156
3 159 156 157
3 159 157 158
3 159 158 155
3 164 160 161
3 164 161 162
3 164 162 163
3 164 163 160
3 169 165 166
3 169 166 167
3 169 167 168
3 169 168 165
3 174 170 171
3 174 171 172
3 174 172 173
3 174 173 170
3 179 175 176
3 179 176 177
3 179 177 178
3 179 178 175
3 184 180 181
3 184 181 182
3 184 182 183
3 184 183 180
3 189 185 186
3 189 186 187
3 189 187 188
3 189 188 185
3 194 190 191
3 194 191 192
3 194 192 193
3 194 193 190
3 199 195 196
3 199 196 197
3 199 197 198
3 199 198 195
3 204 200 201
3 204 201 202
3 204 202 203
3 204 203 200
3 209 205 206
3 209 206 207
3 209 207 208
3 209 208 205
3 214 210 211
3 214 211 212
3 214 212 213
3 214 213 210
3 219 215 216
3 219 216 217
3 219 217 218
3 219 218 215
3 224 220 221
3 224 221 222
3 224 222 223
3 224 223 220
3 229 225 226
3 229 226 227
3 229 227 228
3 229 228 225
3 234 230 231
3 234 231 232
3 234 232 233
3 234 233 230
3 239 235 236
3 239 236 237
3 239 237 238
3 239 238 235
3 244 240 241
3 244 241 242
3 244 242 243
3 244 243 240
3 249 245 246
3 249 246 247
3 249 247 248
3 249 248 245
3 254 250 251
3 254 251 252
3 254 252 253
3 254 253 250
3 259 255 256
3 259 256 257
3 259 257 258
3 259 258 255
3 264 260 261
3 264 261 262
3 264 262 263
3 264 263 260
3 269 265 266
3 269 266 267
3 269 267 268
3 269 268 265
3 274 270 271
3 274 271 272
3 274 272 273
3 274 273 270
3 279 275 276
3 279 276 277
3 279 277 278
3 279 278 275
3 284 280 281
3 284 281 282
3 284 282 283
3 284 283 280
3 289 285 286
3 289 286 287
3 289 287 288
3 289 288 285
3 294 290 291
3 294 291 292
3 294 292 293
3 294 293 290
3 299 295 296
3 299 296 297
3 299 297 298
3 299 298 295
3 304 300 301
3 304 301 302
3 304 302 303
3 304 303 300
3 309 305 306
3 309 306 307
3 309 307 308
3 309 308 305
3 314 310 311
3 314 311 312
3 314 312 313
3 314 313 310
3 319 315 316
3 319 316 317
3 319 317 318
3 319 318 315
3 324 320 321
3 324 321 322
3 324 322 323
3 324 323 320
3 329 325 326
3 329 326 327
3 329 327 328
3 329 328 325
3 334 330 331
3 334 331 332
3 334 332 333
3 334 333 330
3 339 335 336
3 339 336 337
3 339 337 338
3 339 338 335
3 344 340 341
3 344 341 342
3 344 342 343
3 344 343 340
3 349 345 346
3 349 346 347
3 349 347 348
3 349 348 345
3 354 350 351
3 354 351 352
3 354 352 353
3 354 353 350
3 359 355 356
3 359 356 357
3 359 357 358
3 359 358 355
3 364 360 361
3 364 361 362
3 364 362 363
3 364 363 360
3 369 365 366
3 369 366 367
3 369 367 368
3 369 368 365
3 374 370 371
3 374 371 372
3 374 372 373
3 374 373 370
3 379 375 376
3 379 376 377
3 379 377 378
3 379 378 375
3 384 380 381
3 384 381 382
3 384 382 383
3 384 383 380
3 389 385 386
3 389 386 387
3 389 387 388
3 389 388 385
3 394 390 391
3 394 391 392
3 394 392 393
3 394 393 390
3 399 395 396
3 399 396 397
3 399 397 398
3 399 398 395
3 404 400 401
3 404 401 402
3 404 402 403
3 404 403 400
3 409 405 406
3 409 406 407
3 409 407 408
3 409 408 405
3 414 410 411
3 414 411 412
3 414 412 413
3 414 413 410
3 419 415 416
3 419 416 417
3 419 417 418
3 419 418 415
3 424 420 421
3 424 421 422
3 424 422 423
3 424 423 420
3 429 425 426
3 429 426 427
3 429 427 428
3 429 428 425
3 434 430 431
3 434 431 432
3 434 432 433
3 434 433 430
3 439 435 436
3 439 436 437
3 439 437 438
3 439 438 435
3 444 440 441
3 444 441 442
3 444 442 443
3 444 443 440
3 449 445 446
3 449 446 447
3 449 447 448
3 449 448 445
3 454 450 451
3 454 451 452
3 454 452 453
3 454 453 450
3 459 455 456
3 459 456 457
3 459 457 458
3 459 458 455
3 464 460 461
3 464 461 462
3 464 462 463
3 464 463 460
3 469 465 466
3 469 466 467
3 469 467 468
3 469 468 465
3 474 470 471
3 474 471 472
3 474 472 473
3 474 473 470
3 479 475 476
3 479 476 477
3 479 477 478
3 479 478 475
3 484 480 481
3 484 481 482
3 484 482 483
3 484 483 480
3 489 485 486
3 489 486 487
3 489 487 488
3 489 488 485
3 494 490 491
3 494 491 492
3 494 492 493
3 494 493 490
3 499 495 496
3 499 496 497
3 499 497 498
3 499 498 495
3 504 500 501
3 504 501 502
3 504 502 503
3 504 503 500
3 509 505 506
3 509 506 507
3 509 507 508
3 509 508 505
3 514 510 511
3 514 511 512
3 514 512 513
3 514 513 510
3 519 515 516
3 519 516 517
3 519 517 518
3 519 518 515
3 524 520 521
3 524 521 522
3 524 522 523
3 524 523 520
3 529 525 526
3 529 526 527
3 529 527 528
3 529 528 525
3 534 530 531
3 534 531 532
3 534 532 533
3 534 533 530
3 539 535 536
3 539 536 537
3 539 537 538
3 539 538 535
3 544 540 541
3 544 541 542
3 544 542 543
3 544 543 540
3 549 545 546
3 549 546 547
3 549 547 548
3 549 548 545
3 554 550 551
3 554 551 552
3 554 552 553
3 554 553 550
3 559 555 556
3 559 556 557
3 559 557 558
3 559 558 555
3 564 560 561
3 564 561 562
3 564 562 563
3 564 563 560
3 569 565 566
3 569 566 567
3 569 567 568
3 569 568 565
3 574 570 571
3 574 571 572
3 574 572 573
3 574 573 570
3 579 575 576
3 579 576 577
3 579 577 578
3 579 578 575
3 584 580 581
3 584 581 582
3 584 582 583
3 584 583 580
3 589 585 586
3 589 586 587
3 589 587 588
3 589 588 585
3 594 590 591
3 594 591 592
3 594 592 593
3 594 593 590
3 599 595 596
3 599 596 597
3 599 597 598
3 599 598 595
3 604 600 601
3 604 601 602
3 604 602 603
3 604 603 600
3 609 605 606
3 609 606 607
3 609 607 608
3 609 608 605
3 614 610 611
3 614 611 612
3 614 612 613
3 614 613 610
3 619 615 616
3 619 616 617
3 619 617 618
3 619 618 615
3 624 620 621
3 624 621 622
3 624 622 623
3 624 623 620
3 629 625 626
3 629 626 627
3 629 627 628
3 629 628 625
3 634 630 631
3 634 631 632
3 634 632 633
3 634 633 630
3 639 635 636
3 639 636 637
3 639 637 638
3 639 638 635
3 644 640 641
3 644 641 642
3 644 642 643
3 644 643 640
3 649 645 646
3 649 646 647
3 649 647 648
3 649 648 645
3 654 650 651
3 654 651 652
3 654 652 653
3 654 653 650
3 659 655 656
3 659 656 657
3 659 657 658
3 659 658 655
3 664 660 661
3 664 661 662
3 664 662 663
3 664 663 660
3 669 665 666
3 669 666 667
3 669 667 668
3 669 668 665
3 674 670 671
3 674 671 672
3 674 672 673
3 674 673 670
3 679 675 676
3 679 676 677
3 679 677 678
3 679 678 675
3 684 680 681
3 684 681 682
3 684 682 683
3 684 683 680
3 689 685 686
3 689 686 687
3 689 687 688
3 689 688 685
