# WaveFront *.obj file (generated by Cheetah3D)

mtllib target.mtl

g å††éŒ
v 0.000000 1.000000 0.000000
v 0.000000 1.000000 -0.300000
v 0.114805 1.000000 -0.277164
v 0.212132 1.000000 -0.212132
v 0.277164 1.000000 -0.114805
v 0.300000 1.000000 0.000000
v 0.277164 1.000000 0.114805
v 0.212132 1.000000 0.212132
v 0.114805 1.000000 0.277164
v -0.000000 1.000000 0.300000
v -0.114805 1.000000 0.277164
v -0.212132 1.000000 0.212132
v -0.277164 1.000000 0.114805
v -0.300000 1.000000 0.000000
v -0.277164 1.000000 -0.114805
v -0.212132 1.000000 -0.212132
v -0.114805 1.000000 -0.277164
v 0.000000 0.000000 -0.000000

vt 0.500000 0.500000
vt 0.500000 0.000000
vt 0.691342 0.038060
vt 0.853553 0.146447
vt 0.961940 0.308658
vt 1.000000 0.500000
vt 0.961940 0.691342
vt 0.853553 0.853553
vt 0.691342 0.961940
vt 0.500000 1.000000
vt 0.308658 0.961940
vt 0.146447 0.853553
vt 0.038060 0.691342
vt 0.000000 0.500000
vt 0.038060 0.308658
vt 0.146447 0.146446
vt 0.308658 0.038060
vt 0.062500 1.000000
vt 0.062500 0.000000
vt 0.000000 0.000000
vt 0.125000 1.000000
vt 0.125000 0.000000
vt 0.187500 1.000000
vt 0.187500 0.000000
vt 0.250000 1.000000
vt 0.250000 0.000000
vt 0.312500 1.000000
vt 0.312500 0.000000
vt 0.375000 1.000000
vt 0.375000 0.000000
vt 0.437500 1.000000
vt 0.437500 0.000000
vt 0.500000 1.000000
vt 0.562500 1.000000
vt 0.562500 0.000000
vt 0.625000 1.000000
vt 0.625000 0.000000
vt 0.687500 1.000000
vt 0.687500 0.000000
vt 0.750000 1.000000
vt 0.750000 0.000000
vt 0.812500 1.000000
vt 0.812500 0.000000
vt 0.875000 1.000000
vt 0.875000 0.000000
vt 0.937500 1.000000
vt 0.937500 0.000000
vt 1.000000 1.000000
vt 1.000000 0.000000

vn 0.000000 1.000000 0.000000
vn 0.184413 -0.326294 -0.927105
vn 0.366544 -0.287348 -0.884916
vn -0.000000 -0.287348 -0.957826
vn 0.525163 -0.326294 -0.785962
vn 0.677285 -0.287348 -0.677285
vn 0.785962 -0.326294 -0.525163
vn 0.884916 -0.287348 -0.366544
vn 0.927105 -0.326294 -0.184413
vn 0.957826 -0.287348 -0.000000
vn 0.927105 -0.326294 0.184413
vn 0.884916 -0.287348 0.366544
vn 0.785962 -0.326294 0.525163
vn 0.677285 -0.287348 0.677285
vn 0.525163 -0.326294 0.785962
vn 0.366544 -0.287348 0.884916
vn 0.184413 -0.326294 0.927105
vn -0.000000 -0.287348 0.957826
vn -0.184413 -0.326294 0.927105
vn -0.366544 -0.287348 0.884916
vn -0.525163 -0.326294 0.785962
vn -0.677285 -0.287348 0.677285
vn -0.785962 -0.326294 0.525163
vn -0.884916 -0.287348 0.366544
vn -0.927105 -0.326294 0.184412
vn -0.957826 -0.287348 -0.000000
vn -0.927105 -0.326294 -0.184413
vn -0.884916 -0.287348 -0.366544
vn -0.785962 -0.326294 -0.525163
vn -0.677285 -0.287348 -0.677286
vn -0.525163 -0.326294 -0.785962
vn -0.366544 -0.287348 -0.884916
vn -0.184413 -0.326294 -0.927105

usemtl default
f 3/3/1 2/2/1 1/1/1
f 4/4/1 3/3/1 1/1/1
f 5/5/1 4/4/1 1/1/1
f 6/6/1 5/5/1 1/1/1
f 7/7/1 6/6/1 1/1/1
f 8/8/1 7/7/1 1/1/1
f 9/9/1 8/8/1 1/1/1
f 10/10/1 9/9/1 1/1/1
f 11/11/1 10/10/1 1/1/1
f 12/12/1 11/11/1 1/1/1
f 13/13/1 12/12/1 1/1/1
f 14/14/1 13/13/1 1/1/1
f 15/15/1 14/14/1 1/1/1
f 16/16/1 15/15/1 1/1/1
f 17/17/1 16/16/1 1/1/1
f 2/2/1 17/17/1 1/1/1
f 2/20/4 3/19/3 18/18/2
f 3/19/3 4/22/6 18/21/5
f 4/22/6 5/24/8 18/23/7
f 5/24/8 6/26/10 18/25/9
f 6/26/10 7/28/12 18/27/11
f 7/28/12 8/30/14 18/29/13
f 8/30/14 9/32/16 18/31/15
f 9/32/16 10/2/18 18/33/17
f 10/2/18 11/35/20 18/34/19
f 11/35/20 12/37/22 18/36/21
f 12/37/22 13/39/24 18/38/23
f 13/39/24 14/41/26 18/40/25
f 14/41/26 15/43/28 18/42/27
f 15/43/28 16/45/30 18/44/29
f 16/45/30 17/47/32 18/46/31
f 17/47/32 2/49/4 18/48/33

