# MagicaVoxel @ ephtracy

# material
mtllib tree3.mtl
usemtl palette

# normals
vn -1 0 0
vn 1 0 0
vn 0 0 1
vn 0 0 -1
vn 0 -1 0
vn 0 1 0

# texcoords
vt 0.220703 0.5
vt 0.595703 0.5

# verts
v -6 7 2
v -6 7 1
v -6 9 2
v -6 9 1
v -5 9 2
v -5 9 1
v -5 10 2
v -5 10 1
v -4 8 -4
v -4 8 -5
v -4 9 1
v -4 9 -1
v -4 9 -3
v -4 9 -4
v -4 10 1
v -4 10 -0
v -4 10 -3
v -4 10 -5
v -4 11 -0
v -4 11 -1
v -3 10 -1
v -3 10 -3
v -3 10 -4
v -3 11 -1
v -3 11 -2
v -3 11 -3
v -3 11 -4
v -3 12 -2
v -3 12 -3
v -2 6 -0
v -2 6 -2
v -2 9 5
v -2 9 3
v -2 9 -0
v -2 9 -1
v -2 10 5
v -2 10 4
v -2 10 3
v -2 10 1
v -2 10 -1
v -2 10 -2
v -2 11 4
v -2 11 2
v -2 11 1
v -2 11 -0
v -2 11 -2
v -2 12 2
v -2 12 -2
v -1 4 1
v -1 4 -1
v -1 6 1
v -1 6 -0
v -1 6 -1
v -1 9 -3
v -1 9 -4
v -1 10 -0
v -1 10 -1
v -1 10 -3
v -1 11 -0
v -1 11 -1
v -1 11 -3
v -1 11 -4
v 0 0 2
v 0 0 -0
v 0 2 2
v 0 2 1
v 0 2 -0
v 0 2 -1
v 0 4 1
v 0 4 -1
v 1 8 -5
v 1 8 -6
v 1 9 -4
v 1 9 -5
v 1 10 2
v 1 10 -0
v 1 10 -3
v 1 10 -4
v 1 10 -5
v 1 10 -6
v 1 11 2
v 1 11 -0
v 1 11 -3
v 1 11 -5
v 2 9 3
v 2 9 2
v 2 10 2
v 2 11 3
v 2 11 2
v 3 9 4
v 3 9 3
v 3 10 4
v 3 10 3
v 4 8 4
v 4 8 3
v 4 9 4
v 4 9 3
v -5 7 2
v -5 7 1
v -5 8 2
v -5 8 1
v -4 8 2
v -4 8 1
v -4 9 2
v -4 9 1
v -3 8 -4
v -3 8 -5
v -3 9 2
v -3 9 -1
v -3 9 -4
v -3 10 2
v -3 10 -0
v -3 10 -1
v -3 10 -4
v -3 10 -5
v -2 9 -3
v -2 9 -4
v -2 10 -0
v -2 10 -1
v -2 10 -3
v -2 11 -0
v -2 11 -1
v -2 11 -3
v -2 11 -4
v -1 9 5
v -1 9 3
v -1 10 5
v -1 10 4
v -1 10 3
v -1 10 1
v -1 11 4
v -1 11 2
v -1 11 1
v -1 11 -0
v -1 11 -1
v -1 11 -2
v -1 11 -3
v -1 12 2
v -1 12 -1
v -1 12 -2
v -1 12 -3
v 0 6 -0
v 0 6 -1
v 0 6 -2
v 0 9 -0
v 0 9 -1
v 0 9 -3
v 0 9 -4
v 0 10 -1
v 0 10 -2
v 0 10 -3
v 0 11 -3
v 0 11 -4
v 1 4 1
v 1 4 -1
v 1 6 1
v 1 6 -1
v 1 10 -1
v 1 10 -2
v 1 11 -1
v 1 11 -2
v 1 12 -1
v 1 12 -2
v 2 0 2
v 2 0 -0
v 2 2 2
v 2 2 1
v 2 2 -0
v 2 2 -1
v 2 4 1
v 2 4 -1
v 2 8 -5
v 2 8 -6
v 2 9 -4
v 2 9 -5
v 2 10 1
v 2 10 -1
v 2 10 -2
v 2 10 -4
v 2 10 -5
v 2 10 -6
v 2 11 1
v 2 11 -1
v 2 11 -2
v 2 11 -5
v 3 10 3
v 3 10 2
v 3 10 1
v 3 11 3
v 3 11 1
v 4 9 3
v 4 9 2
v 4 10 3
v 4 10 2
v 5 8 4
v 5 8 3
v 5 10 4
v 5 10 3
v -2 9 5
v -2 10 5
v -1 9 5
v -1 10 5
v -2 10 4
v -2 11 4
v -1 10 4
v -1 11 4
v 3 9 4
v 3 10 4
v 4 8 4
v 4 9 4
v 5 8 4
v 5 10 4
v 2 9 3
v 2 11 3
v 3 9 3
v 3 10 3
v 3 11 3
v -6 7 2
v -6 9 2
v -5 7 2
v -5 8 2
v -5 9 2
v -5 10 2
v -4 8 2
v -4 9 2
v -3 9 2
v -3 10 2
v -2 11 2
v -2 12 2
v -1 11 2
v -1 12 2
v 0 0 2
v 0 2 2
v 1 10 2
v 1 11 2
v 2 0 2
v 2 2 2
v 2 10 2
v 2 11 2
v -1 4 1
v -1 6 1
v 0 2 1
v 0 4 1
v 1 4 1
v 1 6 1
v 2 2 1
v 2 4 1
v -4 10 -0
v -4 11 -0
v -3 10 -0
v -2 6 -0
v -2 9 -0
v -2 10 -0
v -2 11 -0
v -1 6 -0
v -1 10 -0
v -1 11 -0
v 0 6 -0
v 0 9 -0
v 1 10 -0
v 1 11 -0
v -2 9 -1
v -2 10 -1
v -2 11 -1
v -1 10 -1
v -1 11 -1
v -1 12 -1
v 0 9 -1
v 0 10 -1
v 1 11 -1
v 1 12 -1
v -3 11 -2
v -3 12 -2
v -2 11 -2
v -2 12 -2
v 1 10 -2
v 1 11 -2
v 2 10 -2
v 2 11 -2
v -4 9 -3
v -4 10 -3
v -3 10 -3
v -2 9 -3
v -2 10 -3
v -1 9 -3
v -1 10 -3
v 0 9 -3
v 0 10 -3
v -4 8 -4
v -4 9 -4
v -3 8 -4
v -3 9 -4
v 1 9 -4
v 1 10 -4
v 2 9 -4
v 2 10 -4
v 1 8 -5
v 1 9 -5
v 2 8 -5
v 2 9 -5
v -2 9 3
v -2 10 3
v -1 9 3
v -1 10 3
v 4 8 3
v 4 9 3
v 4 10 3
v 5 8 3
v 5 10 3
v 2 9 2
v 2 10 2
v 3 10 2
v 4 9 2
v 4 10 2
v -6 7 1
v -6 9 1
v -5 7 1
v -5 8 1
v -5 9 1
v -5 10 1
v -4 8 1
v -4 9 1
v -4 10 1
v -2 10 1
v -2 11 1
v -1 10 1
v -1 11 1
v 2 10 1
v 2 11 1
v 3 10 1
v 3 11 1
v 0 0 -0
v 0 2 -0
v 2 0 -0
v 2 2 -0
v -4 9 -1
v -4 11 -1
v -3 9 -1
v -3 10 -1
v -3 11 -1
v -1 4 -1
v -1 6 -1
v 0 2 -1
v 0 4 -1
v 0 6 -1
v 1 4 -1
v 1 6 -1
v 1 10 -1
v 1 11 -1
v 2 2 -1
v 2 4 -1
v 2 10 -1
v 2 11 -1
v -2 6 -2
v -2 10 -2
v -1 11 -2
v -1 12 -2
v 0 6 -2
v 0 10 -2
v 1 11 -2
v 1 12 -2
v -3 11 -3
v -3 12 -3
v -2 10 -3
v -2 11 -3
v -1 10 -3
v -1 11 -3
v -1 12 -3
v 0 10 -3
v 0 11 -3
v 1 10 -3
v 1 11 -3
v -3 9 -4
v -3 10 -4
v -3 11 -4
v -2 9 -4
v -2 11 -4
v -1 9 -4
v -1 11 -4
v 0 9 -4
v 0 11 -4
v -4 8 -5
v -4 10 -5
v -3 8 -5
v -3 10 -5
v 1 10 -5
v 1 11 -5
v 2 10 -5
v 2 11 -5
v 1 8 -6
v 1 10 -6
v 2 8 -6
v 2 10 -6
v 0 0 2
v 2 0 2
v 0 0 -0
v 2 0 -0
v 0 2 -0
v 2 2 -0
v 0 2 -1
v 2 2 -1
v -1 4 1
v 0 4 1
v -1 4 -1
v 0 4 -1
v -2 6 -0
v -1 6 -0
v -1 6 -1
v 0 6 -1
v -2 6 -2
v 0 6 -2
v -6 7 2
v -5 7 2
v -6 7 1
v -5 7 1
v 4 8 4
v 5 8 4
v 4 8 3
v 5 8 3
v -5 8 2
v -4 8 2
v -5 8 1
v -4 8 1
v -4 8 -4
v -3 8 -4
v -4 8 -5
v -3 8 -5
v 1 8 -5
v 2 8 -5
v 1 8 -6
v 2 8 -6
v -2 9 5
v -1 9 5
v 3 9 4
v 4 9 4
v -2 9 3
v -1 9 3
v 2 9 3
v 3 9 3
v 4 9 3
v -4 9 2
v -3 9 2
v 2 9 2
v 4 9 2
v -4 9 1
v -4 9 -1
v -3 9 -1
v -4 9 -3
v -2 9 -3
v -1 9 -3
v 0 9 -3
v -4 9 -4
v -3 9 -4
v -2 9 -4
v -1 9 -4
v 0 9 -4
v 1 9 -4
v 2 9 -4
v 1 9 -5
v 2 9 -5
v -2 10 3
v -1 10 3
v 1 10 2
v 2 10 2
v 3 10 2
v -2 10 1
v -1 10 1
v 2 10 1
v 3 10 1
v -3 10 -0
v -2 10 -0
v -1 10 -0
v 1 10 -0
v -3 10 -1
v -2 10 -1
v -1 10 -1
v 0 10 -1
v 1 10 -1
v 2 10 -1
v -2 10 -2
v 0 10 -2
v 1 10 -2
v 2 10 -2
v -3 10 -3
v -2 10 -3
v -1 10 -3
v 0 10 -3
v 1 10 -3
v 1 10 -4
v 2 10 -4
v -2 11 1
v -1 11 1
v -2 11 -0
v -1 11 -0
v -2 11 -1
v -1 11 -1
v 0 2 2
v 2 2 2
v 0 2 1
v 2 2 1
v 1 4 1
v 2 4 1
v 1 4 -1
v 2 4 -1
v -1 6 1
v 1 6 1
v -1 6 -0
v 0 6 -0
v 0 6 -1
v 1 6 -1
v -6 9 2
v -5 9 2
v -6 9 1
v -5 9 1
v -2 9 -0
v 0 9 -0
v -2 9 -1
v 0 9 -1
v -2 10 5
v -1 10 5
v -2 10 4
v -1 10 4
v 3 10 4
v 5 10 4
v 3 10 3
v 4 10 3
v 5 10 3
v -5 10 2
v -3 10 2
v 3 10 2
v 4 10 2
v -5 10 1
v -4 10 1
v -4 10 -0
v -3 10 -0
v -4 10 -3
v -3 10 -3
v -3 10 -4
v -4 10 -5
v -3 10 -5
v 1 10 -5
v 2 10 -5
v 1 10 -6
v 2 10 -6
v -2 11 4
v -1 11 4
v 2 11 3
v 3 11 3
v -2 11 2
v -1 11 2
v 1 11 2
v 2 11 2
v 2 11 1
v 3 11 1
v -4 11 -0
v -2 11 -0
v -1 11 -0
v 1 11 -0
v -4 11 -1
v -3 11 -1
v -1 11 -1
v 1 11 -1
v 2 11 -1
v -3 11 -2
v -2 11 -2
v -1 11 -2
v 1 11 -2
v 2 11 -2
v -3 11 -3
v -2 11 -3
v -1 11 -3
v 0 11 -3
v 1 11 -3
v -3 11 -4
v -2 11 -4
v -1 11 -4
v 0 11 -4
v 1 11 -5
v 2 11 -5
v -2 12 2
v -1 12 2
v -1 12 -1
v 1 12 -1
v -3 12 -2
v -2 12 -2
v -1 12 -2
v 1 12 -2
v -3 12 -3
v -1 12 -3

# faces
f 3/2/1 2/2/1 1/2/1
f 4/2/1 2/2/1 3/2/1
f 7/2/1 6/2/1 5/2/1
f 8/2/1 6/2/1 7/2/1
f 14/2/1 10/2/1 9/2/1
f 15/2/1 12/2/1 11/2/1
f 16/2/1 12/2/1 15/2/1
f 17/2/1 14/2/1 13/2/1
f 18/2/1 10/2/1 14/2/1
f 18/2/1 14/2/1 17/2/1
f 19/2/1 12/2/1 16/2/1
f 20/2/1 12/2/1 19/2/1
f 24/2/1 22/2/1 21/2/1
f 24/2/1 23/2/1 22/2/1
f 25/2/1 23/2/1 24/2/1
f 26/2/1 23/2/1 25/2/1
f 27/2/1 23/2/1 26/2/1
f 28/2/1 26/2/1 25/2/1
f 29/2/1 26/2/1 28/2/1
f 34/1/1 31/1/1 30/1/1
f 35/1/1 31/1/1 34/1/1
f 36/2/1 33/2/1 32/2/1
f 37/2/1 33/2/1 36/2/1
f 38/2/1 33/2/1 37/2/1
f 40/1/1 31/1/1 35/1/1
f 41/1/1 31/1/1 40/1/1
f 42/2/1 39/2/1 38/2/1
f 42/2/1 38/2/1 37/2/1
f 43/2/1 39/2/1 42/2/1
f 44/2/1 39/2/1 43/2/1
f 47/2/1 46/2/1 45/2/1
f 47/2/1 45/2/1 44/2/1
f 47/2/1 44/2/1 43/2/1
f 48/2/1 46/2/1 47/2/1
f 51/1/1 50/1/1 49/1/1
f 52/1/1 50/1/1 51/1/1
f 53/1/1 50/1/1 52/1/1
f 58/2/1 55/2/1 54/2/1
f 59/2/1 57/2/1 56/2/1
f 60/2/1 57/2/1 59/2/1
f 61/2/1 55/2/1 58/2/1
f 62/2/1 55/2/1 61/2/1
f 65/1/1 64/1/1 63/1/1
f 66/1/1 64/1/1 65/1/1
f 67/1/1 64/1/1 66/1/1
f 69/1/1 68/1/1 67/1/1
f 69/1/1 67/1/1 66/1/1
f 70/1/1 68/1/1 69/1/1
f 74/2/1 72/2/1 71/2/1
f 78/2/1 74/2/1 73/2/1
f 79/2/1 72/2/1 74/2/1
f 79/2/1 74/2/1 78/2/1
f 80/2/1 72/2/1 79/2/1
f 81/2/1 76/2/1 75/2/1
f 82/2/1 76/2/1 81/2/1
f 83/2/1 78/2/1 77/2/1
f 83/2/1 79/2/1 78/2/1
f 84/2/1 79/2/1 83/2/1
f 87/2/1 86/2/1 85/2/1
f 88/2/1 87/2/1 85/2/1
f 89/2/1 87/2/1 88/2/1
f 92/2/1 91/2/1 90/2/1
f 93/2/1 91/2/1 92/2/1
f 96/2/1 95/2/1 94/2/1
f 97/2/1 95/2/1 96/2/1
f 98/2/2 99/2/2 100/2/2
f 100/2/2 99/2/2 101/2/2
f 102/2/2 103/2/2 104/2/2
f 104/2/2 103/2/2 105/2/2
f 106/2/2 107/2/2 110/2/2
f 108/2/2 109/2/2 111/2/2
f 111/2/2 109/2/2 112/2/2
f 112/2/2 109/2/2 113/2/2
f 110/2/2 107/2/2 114/2/2
f 114/2/2 107/2/2 115/2/2
f 116/2/2 117/2/2 120/2/2
f 118/2/2 119/2/2 121/2/2
f 121/2/2 119/2/2 122/2/2
f 120/2/2 117/2/2 123/2/2
f 123/2/2 117/2/2 124/2/2
f 125/2/2 126/2/2 127/2/2
f 127/2/2 126/2/2 128/2/2
f 128/2/2 126/2/2 129/2/2
f 129/2/2 130/2/2 131/2/2
f 128/2/2 129/2/2 131/2/2
f 131/2/2 130/2/2 132/2/2
f 132/2/2 130/2/2 133/2/2
f 132/2/2 133/2/2 138/2/2
f 134/2/2 135/2/2 138/2/2
f 133/2/2 134/2/2 138/2/2
f 138/2/2 135/2/2 139/2/2
f 136/2/2 137/2/2 140/2/2
f 140/2/2 137/2/2 141/2/2
f 142/1/2 143/1/2 145/1/2
f 143/1/2 144/1/2 145/1/2
f 145/1/2 144/1/2 146/1/2
f 146/1/2 144/1/2 149/1/2
f 149/1/2 144/1/2 150/1/2
f 147/2/2 148/2/2 151/2/2
f 151/2/2 148/2/2 152/2/2
f 152/2/2 148/2/2 153/2/2
f 154/1/2 155/1/2 156/1/2
f 156/1/2 155/1/2 157/1/2
f 158/2/2 159/2/2 160/2/2
f 160/2/2 159/2/2 161/2/2
f 160/2/2 161/2/2 162/2/2
f 162/2/2 161/2/2 163/2/2
f 164/1/2 165/1/2 166/1/2
f 166/1/2 165/1/2 167/1/2
f 167/1/2 165/1/2 168/1/2
f 168/1/2 169/1/2 170/1/2
f 167/1/2 168/1/2 170/1/2
f 170/1/2 169/1/2 171/1/2
f 172/2/2 173/2/2 175/2/2
f 174/2/2 175/2/2 179/2/2
f 175/2/2 173/2/2 180/2/2
f 179/2/2 175/2/2 180/2/2
f 180/2/2 173/2/2 181/2/2
f 176/2/2 177/2/2 182/2/2
f 182/2/2 177/2/2 183/2/2
f 178/2/2 179/2/2 184/2/2
f 179/2/2 180/2/2 184/2/2
f 184/2/2 180/2/2 185/2/2
f 186/2/2 187/2/2 189/2/2
f 187/2/2 188/2/2 189/2/2
f 189/2/2 188/2/2 190/2/2
f 191/2/2 192/2/2 193/2/2
f 193/2/2 192/2/2 194/2/2
f 195/2/2 196/2/2 197/2/2
f 197/2/2 196/2/2 198/2/2
f 201/2/3 200/2/3 199/2/3
f 202/2/3 200/2/3 201/2/3
f 205/2/3 204/2/3 203/2/3
f 206/2/3 204/2/3 205/2/3
f 210/2/3 208/2/3 207/2/3
f 211/2/3 210/2/3 209/2/3
f 212/2/3 208/2/3 210/2/3
f 212/2/3 210/2/3 211/2/3
f 215/2/3 214/2/3 213/2/3
f 216/2/3 214/2/3 215/2/3
f 217/2/3 214/2/3 216/2/3
f 220/2/3 219/2/3 218/2/3
f 221/2/3 219/2/3 220/2/3
f 222/2/3 219/2/3 221/2/3
f 224/2/3 223/2/3 222/2/3
f 224/2/3 222/2/3 221/2/3
f 225/2/3 223/2/3 224/2/3
f 226/2/3 223/2/3 225/2/3
f 227/2/3 223/2/3 226/2/3
f 230/2/3 229/2/3 228/2/3
f 231/2/3 229/2/3 230/2/3
f 236/1/3 233/1/3 232/1/3
f 237/1/3 233/1/3 236/1/3
f 238/2/3 235/2/3 234/2/3
f 239/2/3 235/2/3 238/2/3
f 243/1/3 241/1/3 240/1/3
f 244/1/3 241/1/3 243/1/3
f 244/1/3 243/1/3 242/1/3
f 245/1/3 241/1/3 244/1/3
f 246/1/3 244/1/3 242/1/3
f 247/1/3 244/1/3 246/1/3
f 250/2/3 249/2/3 248/2/3
f 253/2/3 249/2/3 250/2/3
f 254/2/3 249/2/3 253/2/3
f 255/1/3 252/1/3 251/1/3
f 258/1/3 252/1/3 255/1/3
f 259/1/3 252/1/3 258/1/3
f 260/2/3 257/2/3 256/2/3
f 261/2/3 257/2/3 260/2/3
f 265/1/3 263/1/3 262/1/3
f 265/1/3 264/1/3 263/1/3
f 266/1/3 264/1/3 265/1/3
f 268/1/3 265/1/3 262/1/3
f 269/1/3 265/1/3 268/1/3
f 270/2/3 267/2/3 266/2/3
f 271/2/3 267/2/3 270/2/3
f 274/2/3 273/2/3 272/2/3
f 275/2/3 273/2/3 274/2/3
f 278/2/3 277/2/3 276/2/3
f 279/2/3 277/2/3 278/2/3
f 282/2/3 281/2/3 280/2/3
f 283/2/3 282/2/3 280/2/3
f 284/2/3 282/2/3 283/2/3
f 287/2/3 286/2/3 285/2/3
f 288/2/3 286/2/3 287/2/3
f 291/2/3 290/2/3 289/2/3
f 292/2/3 290/2/3 291/2/3
f 295/2/3 294/2/3 293/2/3
f 296/2/3 294/2/3 295/2/3
f 299/2/3 298/2/3 297/2/3
f 300/2/3 298/2/3 299/2/3
f 301/2/4 302/2/4 303/2/4
f 303/2/4 302/2/4 304/2/4
f 305/2/4 306/2/4 308/2/4
f 306/2/4 307/2/4 308/2/4
f 308/2/4 307/2/4 309/2/4
f 310/2/4 311/2/4 312/2/4
f 310/2/4 312/2/4 313/2/4
f 313/2/4 312/2/4 314/2/4
f 315/2/4 316/2/4 317/2/4
f 317/2/4 316/2/4 318/2/4
f 318/2/4 316/2/4 319/2/4
f 319/2/4 320/2/4 321/2/4
f 318/2/4 319/2/4 321/2/4
f 321/2/4 320/2/4 322/2/4
f 322/2/4 320/2/4 323/2/4
f 324/2/4 325/2/4 326/2/4
f 326/2/4 325/2/4 327/2/4
f 328/2/4 329/2/4 330/2/4
f 330/2/4 329/2/4 331/2/4
f 332/1/4 333/1/4 334/1/4
f 334/1/4 333/1/4 335/1/4
f 336/2/4 337/2/4 338/2/4
f 338/2/4 337/2/4 339/2/4
f 339/2/4 337/2/4 340/2/4
f 341/1/4 342/1/4 344/1/4
f 344/1/4 342/1/4 345/1/4
f 343/1/4 344/1/4 346/1/4
f 344/1/4 345/1/4 346/1/4
f 346/1/4 345/1/4 347/1/4
f 343/1/4 346/1/4 350/1/4
f 350/1/4 346/1/4 351/1/4
f 348/2/4 349/2/4 352/2/4
f 352/2/4 349/2/4 353/2/4
f 354/1/4 355/1/4 358/1/4
f 358/1/4 355/1/4 359/1/4
f 356/2/4 357/2/4 360/2/4
f 360/2/4 357/2/4 361/2/4
f 362/2/4 363/2/4 365/2/4
f 364/2/4 365/2/4 366/2/4
f 365/2/4 363/2/4 367/2/4
f 366/2/4 365/2/4 367/2/4
f 367/2/4 363/2/4 368/2/4
f 369/2/4 370/2/4 371/2/4
f 371/2/4 370/2/4 372/2/4
f 373/2/4 374/2/4 376/2/4
f 374/2/4 375/2/4 376/2/4
f 376/2/4 375/2/4 377/2/4
f 378/2/4 379/2/4 380/2/4
f 380/2/4 379/2/4 381/2/4
f 382/2/4 383/2/4 384/2/4
f 384/2/4 383/2/4 385/2/4
f 386/2/4 387/2/4 388/2/4
f 388/2/4 387/2/4 389/2/4
f 390/2/4 391/2/4 392/2/4
f 392/2/4 391/2/4 393/2/4
f 396/1/5 395/1/5 394/1/5
f 397/1/5 395/1/5 396/1/5
f 400/1/5 399/1/5 398/1/5
f 401/1/5 399/1/5 400/1/5
f 404/1/5 403/1/5 402/1/5
f 405/1/5 403/1/5 404/1/5
f 408/1/5 407/1/5 406/1/5
f 410/1/5 408/1/5 406/1/5
f 410/1/5 409/1/5 408/1/5
f 411/1/5 409/1/5 410/1/5
f 414/2/5 413/2/5 412/2/5
f 415/2/5 413/2/5 414/2/5
f 418/2/5 417/2/5 416/2/5
f 419/2/5 417/2/5 418/2/5
f 422/2/5 421/2/5 420/2/5
f 423/2/5 421/2/5 422/2/5
f 426/2/5 425/2/5 424/2/5
f 427/2/5 425/2/5 426/2/5
f 430/2/5 429/2/5 428/2/5
f 431/2/5 429/2/5 430/2/5
f 436/2/5 433/2/5 432/2/5
f 437/2/5 433/2/5 436/2/5
f 439/2/5 435/2/5 434/2/5
f 440/2/5 435/2/5 439/2/5
f 443/2/5 439/2/5 438/2/5
f 443/2/5 440/2/5 439/2/5
f 444/2/5 440/2/5 443/2/5
f 445/2/5 442/2/5 441/2/5
f 446/2/5 442/2/5 445/2/5
f 447/2/5 442/2/5 446/2/5
f 452/2/5 449/2/5 448/2/5
f 453/2/5 449/2/5 452/2/5
f 454/2/5 449/2/5 453/2/5
f 455/2/5 451/2/5 450/2/5
f 456/2/5 451/2/5 455/2/5
f 459/2/5 458/2/5 457/2/5
f 460/2/5 458/2/5 459/2/5
f 466/2/5 462/2/5 461/2/5
f 467/2/5 462/2/5 466/2/5
f 468/2/5 465/2/5 464/2/5
f 468/2/5 464/2/5 463/2/5
f 469/2/5 465/2/5 468/2/5
f 473/2/5 468/2/5 463/2/5
f 474/2/5 471/2/5 470/2/5
f 475/2/5 471/2/5 474/2/5
f 476/2/5 473/2/5 472/2/5
f 477/2/5 473/2/5 476/2/5
f 478/2/5 468/2/5 473/2/5
f 478/2/5 473/2/5 477/2/5
f 479/2/5 468/2/5 478/2/5
f 480/2/5 475/2/5 474/2/5
f 481/2/5 478/2/5 477/2/5
f 482/2/5 478/2/5 481/2/5
f 484/2/5 480/2/5 474/2/5
f 484/2/5 483/2/5 482/2/5
f 484/2/5 482/2/5 481/2/5
f 484/2/5 481/2/5 480/2/5
f 485/2/5 483/2/5 484/2/5
f 486/2/5 483/2/5 485/2/5
f 487/2/5 483/2/5 486/2/5
f 488/2/5 483/2/5 487/2/5
f 489/2/5 483/2/5 488/2/5
f 490/2/5 483/2/5 489/2/5
f 493/2/5 492/2/5 491/2/5
f 494/2/5 492/2/5 493/2/5
f 495/2/5 494/2/5 493/2/5
f 496/2/5 494/2/5 495/2/5
f 497/1/6 498/1/6 499/1/6
f 499/1/6 498/1/6 500/1/6
f 501/1/6 502/1/6 503/1/6
f 503/1/6 502/1/6 504/1/6
f 505/1/6 506/1/6 507/1/6
f 507/1/6 506/1/6 508/1/6
f 508/1/6 506/1/6 509/1/6
f 509/1/6 506/1/6 510/1/6
f 511/2/6 512/2/6 513/2/6
f 513/2/6 512/2/6 514/2/6
f 515/1/6 516/1/6 517/1/6
f 517/1/6 516/1/6 518/1/6
f 519/2/6 520/2/6 521/2/6
f 521/2/6 520/2/6 522/2/6
f 523/2/6 524/2/6 525/2/6
f 525/2/6 524/2/6 526/2/6
f 526/2/6 524/2/6 527/2/6
f 525/2/6 526/2/6 530/2/6
f 530/2/6 526/2/6 531/2/6
f 528/2/6 529/2/6 532/2/6
f 532/2/6 529/2/6 533/2/6
f 533/2/6 529/2/6 534/2/6
f 534/2/6 529/2/6 535/2/6
f 536/2/6 537/2/6 538/2/6
f 536/2/6 538/2/6 539/2/6
f 539/2/6 538/2/6 540/2/6
f 541/2/6 542/2/6 543/2/6
f 543/2/6 542/2/6 544/2/6
f 545/2/6 546/2/6 549/2/6
f 549/2/6 546/2/6 550/2/6
f 547/2/6 548/2/6 552/2/6
f 551/2/6 552/2/6 553/2/6
f 552/2/6 548/2/6 553/2/6
f 553/2/6 548/2/6 554/2/6
f 551/2/6 553/2/6 558/2/6
f 555/2/6 556/2/6 559/2/6
f 559/2/6 556/2/6 560/2/6
f 557/2/6 558/2/6 561/2/6
f 558/2/6 553/2/6 562/2/6
f 561/2/6 558/2/6 562/2/6
f 562/2/6 553/2/6 563/2/6
f 560/2/6 556/2/6 564/2/6
f 564/2/6 556/2/6 565/2/6
f 567/2/6 568/2/6 571/2/6
f 566/2/6 567/2/6 571/2/6
f 571/2/6 568/2/6 572/2/6
f 572/2/6 568/2/6 573/2/6
f 569/2/6 570/2/6 574/2/6
f 574/2/6 570/2/6 575/2/6
f 571/2/6 572/2/6 576/2/6
f 576/2/6 572/2/6 577/2/6
f 573/2/6 568/2/6 578/2/6
f 578/2/6 568/2/6 579/2/6
f 580/2/6 581/2/6 582/2/6
f 580/2/6 582/2/6 585/2/6
f 582/2/6 583/2/6 585/2/6
f 585/2/6 583/2/6 586/2/6
f 586/2/6 583/2/6 587/2/6
f 584/2/6 585/2/6 588/2/6
f 585/2/6 586/2/6 588/2/6
f 588/2/6 586/2/6 589/2/6
